M48
; DRILL file {KiCad (5.1.4)-1} date 10/26/2019 1:29:09 PM
; FORMAT={-:-/ absolute / inch / decimal}
; #@! TF.CreationDate,2019-10-26T13:29:09-07:00
; #@! TF.GenerationSoftware,Kicad,Pcbnew,(5.1.4)-1
FMAT,2
INCH
T1C0.0197
T2C0.0236
T3C0.0276
T4C0.0315
T5C0.0354
T6C0.0394
%
G90
G05
T1
X2.3Y-4.75
X2.3Y-4.975
X2.725Y-3.975
X2.825Y-4.0
X2.92Y-4.02
X3.025Y-3.6
X3.05Y-3.325
X3.1Y-5.0
X3.1Y-5.05
X3.2125Y-5.0625
X3.35Y-3.325
X3.425Y-4.575
X3.4815Y-3.0935
X3.4815Y-3.0935
X3.525Y-3.15
X3.525Y-4.55
X3.625Y-4.575
X3.75Y-3.275
X3.875Y-3.525
X3.875Y-4.6
X3.95Y-4.6
X4.025Y-4.6
X4.075Y-3.275
X4.1893Y-3.6893
X4.325Y-4.55
X4.35Y-3.325
X4.4Y-4.4
X4.525Y-3.0
X4.525Y-3.0
X4.525Y-4.4
X4.725Y-4.45
X4.8Y-3.6
X4.85Y-4.475
X4.85Y-4.55
X4.925Y-4.6
X5.0Y-3.375
X5.025Y-4.6
X5.1Y-3.4
X5.725Y-3.95
T2
X5.95Y-4.475
X6.0287Y-4.475
X2.475Y-4.675
X2.5537Y-4.675
T3
X2.875Y-2.775
X2.875Y-2.975
X2.775Y-2.775
X2.775Y-2.975
T4
X2.55Y-3.2416
X2.55Y-3.34
X4.92Y-2.96
X4.92Y-3.26
X5.02Y-2.96
X5.02Y-3.26
X5.12Y-2.96
X5.12Y-3.26
X5.22Y-2.96
X5.22Y-3.26
X5.32Y-2.96
X5.32Y-3.26
X5.42Y-2.96
X5.42Y-3.26
X5.52Y-2.96
X5.52Y-3.26
X5.62Y-2.96
X5.62Y-3.26
X3.74Y-3.14
X3.74Y-3.44
X3.84Y-3.14
X3.84Y-3.44
X3.94Y-3.14
X3.94Y-3.44
X4.04Y-3.14
X4.04Y-3.44
X4.14Y-3.14
X4.14Y-3.44
X4.24Y-3.14
X4.24Y-3.44
X4.34Y-3.14
X4.34Y-3.44
X4.9Y-3.5
X4.9Y-3.8
X5.0Y-3.5
X5.0Y-3.8
X5.1Y-3.5
X5.1Y-3.8
X5.2Y-3.5
X5.2Y-3.8
X5.3Y-3.5
X5.3Y-3.8
X5.4Y-3.5
X5.4Y-3.8
X5.5Y-3.5
X5.5Y-3.8
X5.6Y-3.5
X5.6Y-3.8
X4.86Y-4.08
X4.86Y-4.38
X4.96Y-4.08
X4.96Y-4.38
X5.06Y-4.08
X5.06Y-4.38
X5.16Y-4.08
X5.16Y-4.38
X5.26Y-4.08
X5.26Y-4.38
X5.36Y-4.08
X5.36Y-4.38
X5.46Y-4.08
X5.46Y-4.38
X5.56Y-4.08
X5.56Y-4.38
X5.66Y-4.08
X5.66Y-4.38
X5.76Y-4.08
X5.76Y-4.38
X5.875Y-4.175
X5.875Y-4.2734
X4.3Y-3.8766
X4.3Y-3.975
X3.6Y-3.2266
X3.6Y-3.325
X4.875Y-2.76
X4.975Y-2.76
X5.075Y-2.76
X5.175Y-2.76
X5.275Y-2.76
X5.375Y-2.76
X5.475Y-2.76
X5.575Y-2.76
X5.675Y-2.76
X5.725Y-3.6016
X5.725Y-3.7
X2.74Y-3.14
X2.74Y-3.44
X2.84Y-3.14
X2.84Y-3.44
X2.94Y-3.14
X2.94Y-3.44
X3.04Y-3.14
X3.04Y-3.44
X3.14Y-3.14
X3.14Y-3.44
X3.24Y-3.14
X3.24Y-3.44
X3.34Y-3.14
X3.34Y-3.44
X2.62Y-3.8
X2.62Y-4.4
X2.72Y-3.8
X2.72Y-4.4
X2.82Y-3.8
X2.82Y-4.4
X2.92Y-3.8
X2.92Y-4.4
X3.02Y-3.8
X3.02Y-4.4
X3.12Y-3.8
X3.12Y-4.4
X3.22Y-3.8
X3.22Y-4.4
X3.32Y-3.8
X3.32Y-4.4
X3.42Y-3.8
X3.42Y-4.4
X3.52Y-3.8
X3.52Y-4.4
X3.62Y-3.8
X3.62Y-4.4
X3.72Y-3.8
X3.72Y-4.4
X3.82Y-3.8
X3.82Y-4.4
X3.92Y-3.8
X3.92Y-4.4
X4.02Y-3.8
X4.02Y-4.4
X4.12Y-3.8
X4.12Y-4.4
T5
X2.45Y-2.9
X2.55Y-2.9
T6
X3.45Y-2.8
X3.45Y-2.9
X3.15Y-2.8
X3.15Y-2.9
X3.3Y-2.8
X3.3Y-2.9
X3.3Y-3.0
X3.025Y-4.705
X3.025Y-4.805
X3.125Y-4.705
X3.125Y-4.805
X3.225Y-4.705
X3.225Y-4.805
X3.325Y-4.705
X3.325Y-4.805
X3.425Y-4.705
X3.425Y-4.805
X3.525Y-4.705
X3.525Y-4.805
X3.625Y-4.705
X3.625Y-4.805
X3.725Y-4.705
X3.725Y-4.805
X3.825Y-4.705
X3.825Y-4.805
X3.925Y-4.705
X3.925Y-4.805
X4.025Y-4.705
X4.025Y-4.805
X4.125Y-4.705
X4.125Y-4.805
X4.225Y-4.705
X4.225Y-4.805
X4.325Y-4.705
X4.325Y-4.805
X4.425Y-4.705
X4.425Y-4.805
X4.525Y-4.705
X4.525Y-4.805
X4.625Y-4.705
X4.625Y-4.805
X4.725Y-4.705
X4.725Y-4.805
X4.825Y-4.705
X4.825Y-4.805
X4.925Y-4.705
X4.925Y-4.805
X5.025Y-4.705
X5.025Y-4.805
X5.125Y-4.705
X5.125Y-4.805
X5.225Y-4.705
X5.225Y-4.805
X5.325Y-4.705
X5.325Y-4.805
X5.425Y-4.705
X5.425Y-4.805
X5.525Y-4.705
X5.525Y-4.805
X5.625Y-4.705
X5.625Y-4.805
X5.725Y-4.705
X5.725Y-4.805
X5.825Y-4.705
X5.825Y-4.805
X5.925Y-4.705
X5.925Y-4.805
X6.025Y-4.705
X6.025Y-4.805
T0
M30
