G04 #@! TF.GenerationSoftware,KiCad,Pcbnew,(5.1.4)-1*
G04 #@! TF.CreationDate,2019-10-26T13:29:07-07:00*
G04 #@! TF.ProjectId,XT Prototype Board,58542050-726f-4746-9f74-79706520426f,rev?*
G04 #@! TF.SameCoordinates,Original*
G04 #@! TF.FileFunction,Legend,Top*
G04 #@! TF.FilePolarity,Positive*
%FSLAX46Y46*%
G04 Gerber Fmt 4.6, Leading zero omitted, Abs format (unit mm)*
G04 Created by KiCad (PCBNEW (5.1.4)-1) date 2019-10-26 13:29:07*
%MOMM*%
%LPD*%
G04 APERTURE LIST*
%ADD10C,0.150000*%
%ADD11C,0.300000*%
%ADD12C,0.500000*%
%ADD13C,0.750000*%
%ADD14C,0.120000*%
%ADD15C,0.400000*%
G04 APERTURE END LIST*
D10*
X85391666Y-76922380D02*
X86010714Y-76922380D01*
X85677380Y-77303333D01*
X85820238Y-77303333D01*
X85915476Y-77350952D01*
X85963095Y-77398571D01*
X86010714Y-77493809D01*
X86010714Y-77731904D01*
X85963095Y-77827142D01*
X85915476Y-77874761D01*
X85820238Y-77922380D01*
X85534523Y-77922380D01*
X85439285Y-77874761D01*
X85391666Y-77827142D01*
X85375714Y-69667380D02*
X84804285Y-69667380D01*
X85090000Y-69667380D02*
X85090000Y-68667380D01*
X84994761Y-68810238D01*
X84899523Y-68905476D01*
X84804285Y-68953095D01*
X122334047Y-85494761D02*
X122476904Y-85542380D01*
X122715000Y-85542380D01*
X122810238Y-85494761D01*
X122857857Y-85447142D01*
X122905476Y-85351904D01*
X122905476Y-85256666D01*
X122857857Y-85161428D01*
X122810238Y-85113809D01*
X122715000Y-85066190D01*
X122524523Y-85018571D01*
X122429285Y-84970952D01*
X122381666Y-84923333D01*
X122334047Y-84828095D01*
X122334047Y-84732857D01*
X122381666Y-84637619D01*
X122429285Y-84590000D01*
X122524523Y-84542380D01*
X122762619Y-84542380D01*
X122905476Y-84590000D01*
X123238809Y-84542380D02*
X123476904Y-85542380D01*
X123667380Y-84828095D01*
X123857857Y-85542380D01*
X124095952Y-84542380D01*
X125381666Y-84970952D02*
X125286428Y-84923333D01*
X125238809Y-84875714D01*
X125191190Y-84780476D01*
X125191190Y-84732857D01*
X125238809Y-84637619D01*
X125286428Y-84590000D01*
X125381666Y-84542380D01*
X125572142Y-84542380D01*
X125667380Y-84590000D01*
X125715000Y-84637619D01*
X125762619Y-84732857D01*
X125762619Y-84780476D01*
X125715000Y-84875714D01*
X125667380Y-84923333D01*
X125572142Y-84970952D01*
X125381666Y-84970952D01*
X125286428Y-85018571D01*
X125238809Y-85066190D01*
X125191190Y-85161428D01*
X125191190Y-85351904D01*
X125238809Y-85447142D01*
X125286428Y-85494761D01*
X125381666Y-85542380D01*
X125572142Y-85542380D01*
X125667380Y-85494761D01*
X125715000Y-85447142D01*
X125762619Y-85351904D01*
X125762619Y-85161428D01*
X125715000Y-85066190D01*
X125667380Y-85018571D01*
X125572142Y-84970952D01*
X127619761Y-84542380D02*
X128286428Y-84542380D01*
X127857857Y-85542380D01*
X130619761Y-84542380D02*
X130429285Y-84542380D01*
X130334047Y-84590000D01*
X130286428Y-84637619D01*
X130191190Y-84780476D01*
X130143571Y-84970952D01*
X130143571Y-85351904D01*
X130191190Y-85447142D01*
X130238809Y-85494761D01*
X130334047Y-85542380D01*
X130524523Y-85542380D01*
X130619761Y-85494761D01*
X130667380Y-85447142D01*
X130715000Y-85351904D01*
X130715000Y-85113809D01*
X130667380Y-85018571D01*
X130619761Y-84970952D01*
X130524523Y-84923333D01*
X130334047Y-84923333D01*
X130238809Y-84970952D01*
X130191190Y-85018571D01*
X130143571Y-85113809D01*
X133143571Y-84542380D02*
X132667380Y-84542380D01*
X132619761Y-85018571D01*
X132667380Y-84970952D01*
X132762619Y-84923333D01*
X133000714Y-84923333D01*
X133095952Y-84970952D01*
X133143571Y-85018571D01*
X133191190Y-85113809D01*
X133191190Y-85351904D01*
X133143571Y-85447142D01*
X133095952Y-85494761D01*
X133000714Y-85542380D01*
X132762619Y-85542380D01*
X132667380Y-85494761D01*
X132619761Y-85447142D01*
X135572142Y-84875714D02*
X135572142Y-85542380D01*
X135334047Y-84494761D02*
X135095952Y-85209047D01*
X135715000Y-85209047D01*
X137524523Y-84542380D02*
X138143571Y-84542380D01*
X137810238Y-84923333D01*
X137953095Y-84923333D01*
X138048333Y-84970952D01*
X138095952Y-85018571D01*
X138143571Y-85113809D01*
X138143571Y-85351904D01*
X138095952Y-85447142D01*
X138048333Y-85494761D01*
X137953095Y-85542380D01*
X137667380Y-85542380D01*
X137572142Y-85494761D01*
X137524523Y-85447142D01*
X140048333Y-84637619D02*
X140095952Y-84590000D01*
X140191190Y-84542380D01*
X140429285Y-84542380D01*
X140524523Y-84590000D01*
X140572142Y-84637619D01*
X140619761Y-84732857D01*
X140619761Y-84828095D01*
X140572142Y-84970952D01*
X140000714Y-85542380D01*
X140619761Y-85542380D01*
X143095952Y-85542380D02*
X142524523Y-85542380D01*
X142810238Y-85542380D02*
X142810238Y-84542380D01*
X142715000Y-84685238D01*
X142619761Y-84780476D01*
X142524523Y-84828095D01*
D11*
X59300000Y-115089285D02*
X59300000Y-114375000D01*
X59728571Y-115232142D02*
X58228571Y-114732142D01*
X59728571Y-114232142D01*
X59728571Y-113089285D02*
X58228571Y-113089285D01*
X59657142Y-113089285D02*
X59728571Y-113232142D01*
X59728571Y-113517857D01*
X59657142Y-113660714D01*
X59585714Y-113732142D01*
X59442857Y-113803571D01*
X59014285Y-113803571D01*
X58871428Y-113732142D01*
X58800000Y-113660714D01*
X58728571Y-113517857D01*
X58728571Y-113232142D01*
X58800000Y-113089285D01*
X59728571Y-112375000D02*
X58728571Y-112375000D01*
X59014285Y-112375000D02*
X58871428Y-112303571D01*
X58800000Y-112232142D01*
X58728571Y-112089285D01*
X58728571Y-111946428D01*
X59728571Y-111446428D02*
X58728571Y-111446428D01*
X58228571Y-111446428D02*
X58300000Y-111517857D01*
X58371428Y-111446428D01*
X58300000Y-111375000D01*
X58228571Y-111446428D01*
X58371428Y-111446428D01*
X59728571Y-110089285D02*
X58942857Y-110089285D01*
X58800000Y-110160714D01*
X58728571Y-110303571D01*
X58728571Y-110589285D01*
X58800000Y-110732142D01*
X59657142Y-110089285D02*
X59728571Y-110232142D01*
X59728571Y-110589285D01*
X59657142Y-110732142D01*
X59514285Y-110803571D01*
X59371428Y-110803571D01*
X59228571Y-110732142D01*
X59157142Y-110589285D01*
X59157142Y-110232142D01*
X59085714Y-110089285D01*
X58728571Y-109375000D02*
X59728571Y-109375000D01*
X58871428Y-109375000D02*
X58800000Y-109303571D01*
X58728571Y-109160714D01*
X58728571Y-108946428D01*
X58800000Y-108803571D01*
X58942857Y-108732142D01*
X59728571Y-108732142D01*
X58942857Y-106375000D02*
X59014285Y-106160714D01*
X59085714Y-106089285D01*
X59228571Y-106017857D01*
X59442857Y-106017857D01*
X59585714Y-106089285D01*
X59657142Y-106160714D01*
X59728571Y-106303571D01*
X59728571Y-106875000D01*
X58228571Y-106875000D01*
X58228571Y-106375000D01*
X58300000Y-106232142D01*
X58371428Y-106160714D01*
X58514285Y-106089285D01*
X58657142Y-106089285D01*
X58800000Y-106160714D01*
X58871428Y-106232142D01*
X58942857Y-106375000D01*
X58942857Y-106875000D01*
X59728571Y-105160714D02*
X59657142Y-105303571D01*
X59514285Y-105375000D01*
X58228571Y-105375000D01*
X59728571Y-103946428D02*
X58942857Y-103946428D01*
X58800000Y-104017857D01*
X58728571Y-104160714D01*
X58728571Y-104446428D01*
X58800000Y-104589285D01*
X59657142Y-103946428D02*
X59728571Y-104089285D01*
X59728571Y-104446428D01*
X59657142Y-104589285D01*
X59514285Y-104660714D01*
X59371428Y-104660714D01*
X59228571Y-104589285D01*
X59157142Y-104446428D01*
X59157142Y-104089285D01*
X59085714Y-103946428D01*
X59657142Y-102589285D02*
X59728571Y-102732142D01*
X59728571Y-103017857D01*
X59657142Y-103160714D01*
X59585714Y-103232142D01*
X59442857Y-103303571D01*
X59014285Y-103303571D01*
X58871428Y-103232142D01*
X58800000Y-103160714D01*
X58728571Y-103017857D01*
X58728571Y-102732142D01*
X58800000Y-102589285D01*
X59728571Y-101946428D02*
X58228571Y-101946428D01*
X59157142Y-101803571D02*
X59728571Y-101375000D01*
X58728571Y-101375000D02*
X59300000Y-101946428D01*
X58157142Y-98517857D02*
X60085714Y-99803571D01*
X59300000Y-96946428D02*
X59300000Y-96232142D01*
X59728571Y-97089285D02*
X58228571Y-96589285D01*
X59728571Y-96089285D01*
X59728571Y-94946428D02*
X58228571Y-94946428D01*
X59657142Y-94946428D02*
X59728571Y-95089285D01*
X59728571Y-95375000D01*
X59657142Y-95517857D01*
X59585714Y-95589285D01*
X59442857Y-95660714D01*
X59014285Y-95660714D01*
X58871428Y-95589285D01*
X58800000Y-95517857D01*
X58728571Y-95375000D01*
X58728571Y-95089285D01*
X58800000Y-94946428D01*
X59728571Y-94232142D02*
X58728571Y-94232142D01*
X59014285Y-94232142D02*
X58871428Y-94160714D01*
X58800000Y-94089285D01*
X58728571Y-93946428D01*
X58728571Y-93803571D01*
X59728571Y-93303571D02*
X58728571Y-93303571D01*
X58228571Y-93303571D02*
X58300000Y-93375000D01*
X58371428Y-93303571D01*
X58300000Y-93232142D01*
X58228571Y-93303571D01*
X58371428Y-93303571D01*
X59728571Y-91946428D02*
X58942857Y-91946428D01*
X58800000Y-92017857D01*
X58728571Y-92160714D01*
X58728571Y-92446428D01*
X58800000Y-92589285D01*
X59657142Y-91946428D02*
X59728571Y-92089285D01*
X59728571Y-92446428D01*
X59657142Y-92589285D01*
X59514285Y-92660714D01*
X59371428Y-92660714D01*
X59228571Y-92589285D01*
X59157142Y-92446428D01*
X59157142Y-92089285D01*
X59085714Y-91946428D01*
X58728571Y-91232142D02*
X59728571Y-91232142D01*
X58871428Y-91232142D02*
X58800000Y-91160714D01*
X58728571Y-91017857D01*
X58728571Y-90803571D01*
X58800000Y-90660714D01*
X58942857Y-90589285D01*
X59728571Y-90589285D01*
X58228571Y-89803571D02*
X58514285Y-89946428D01*
X59657142Y-89232142D02*
X59728571Y-89089285D01*
X59728571Y-88803571D01*
X59657142Y-88660714D01*
X59514285Y-88589285D01*
X59442857Y-88589285D01*
X59300000Y-88660714D01*
X59228571Y-88803571D01*
X59228571Y-89017857D01*
X59157142Y-89160714D01*
X59014285Y-89232142D01*
X58942857Y-89232142D01*
X58800000Y-89160714D01*
X58728571Y-89017857D01*
X58728571Y-88803571D01*
X58800000Y-88660714D01*
X59728571Y-86803571D02*
X58228571Y-86803571D01*
X58228571Y-86446428D01*
X58300000Y-86232142D01*
X58442857Y-86089285D01*
X58585714Y-86017857D01*
X58871428Y-85946428D01*
X59085714Y-85946428D01*
X59371428Y-86017857D01*
X59514285Y-86089285D01*
X59657142Y-86232142D01*
X59728571Y-86446428D01*
X59728571Y-86803571D01*
X59728571Y-85303571D02*
X58728571Y-85303571D01*
X58228571Y-85303571D02*
X58300000Y-85375000D01*
X58371428Y-85303571D01*
X58300000Y-85232142D01*
X58228571Y-85303571D01*
X58371428Y-85303571D01*
X58728571Y-83946428D02*
X59942857Y-83946428D01*
X60085714Y-84017857D01*
X60157142Y-84089285D01*
X60228571Y-84232142D01*
X60228571Y-84446428D01*
X60157142Y-84589285D01*
X59657142Y-83946428D02*
X59728571Y-84089285D01*
X59728571Y-84375000D01*
X59657142Y-84517857D01*
X59585714Y-84589285D01*
X59442857Y-84660714D01*
X59014285Y-84660714D01*
X58871428Y-84589285D01*
X58800000Y-84517857D01*
X58728571Y-84375000D01*
X58728571Y-84089285D01*
X58800000Y-83946428D01*
X59728571Y-83232142D02*
X58728571Y-83232142D01*
X58228571Y-83232142D02*
X58300000Y-83303571D01*
X58371428Y-83232142D01*
X58300000Y-83160714D01*
X58228571Y-83232142D01*
X58371428Y-83232142D01*
X58728571Y-82732142D02*
X58728571Y-82160714D01*
X58228571Y-82517857D02*
X59514285Y-82517857D01*
X59657142Y-82446428D01*
X59728571Y-82303571D01*
X59728571Y-82160714D01*
X59728571Y-81017857D02*
X58942857Y-81017857D01*
X58800000Y-81089285D01*
X58728571Y-81232142D01*
X58728571Y-81517857D01*
X58800000Y-81660714D01*
X59657142Y-81017857D02*
X59728571Y-81160714D01*
X59728571Y-81517857D01*
X59657142Y-81660714D01*
X59514285Y-81732142D01*
X59371428Y-81732142D01*
X59228571Y-81660714D01*
X59157142Y-81517857D01*
X59157142Y-81160714D01*
X59085714Y-81017857D01*
X59728571Y-80089285D02*
X59657142Y-80232142D01*
X59514285Y-80303571D01*
X58228571Y-80303571D01*
X58942857Y-77875000D02*
X59014285Y-77660714D01*
X59085714Y-77589285D01*
X59228571Y-77517857D01*
X59442857Y-77517857D01*
X59585714Y-77589285D01*
X59657142Y-77660714D01*
X59728571Y-77803571D01*
X59728571Y-78375000D01*
X58228571Y-78375000D01*
X58228571Y-77875000D01*
X58300000Y-77732142D01*
X58371428Y-77660714D01*
X58514285Y-77589285D01*
X58657142Y-77589285D01*
X58800000Y-77660714D01*
X58871428Y-77732142D01*
X58942857Y-77875000D01*
X58942857Y-78375000D01*
X59728571Y-76232142D02*
X58942857Y-76232142D01*
X58800000Y-76303571D01*
X58728571Y-76446428D01*
X58728571Y-76732142D01*
X58800000Y-76875000D01*
X59657142Y-76232142D02*
X59728571Y-76375000D01*
X59728571Y-76732142D01*
X59657142Y-76875000D01*
X59514285Y-76946428D01*
X59371428Y-76946428D01*
X59228571Y-76875000D01*
X59157142Y-76732142D01*
X59157142Y-76375000D01*
X59085714Y-76232142D01*
X59657142Y-75589285D02*
X59728571Y-75446428D01*
X59728571Y-75160714D01*
X59657142Y-75017857D01*
X59514285Y-74946428D01*
X59442857Y-74946428D01*
X59300000Y-75017857D01*
X59228571Y-75160714D01*
X59228571Y-75375000D01*
X59157142Y-75517857D01*
X59014285Y-75589285D01*
X58942857Y-75589285D01*
X58800000Y-75517857D01*
X58728571Y-75375000D01*
X58728571Y-75160714D01*
X58800000Y-75017857D01*
X59657142Y-73732142D02*
X59728571Y-73875000D01*
X59728571Y-74160714D01*
X59657142Y-74303571D01*
X59514285Y-74375000D01*
X58942857Y-74375000D01*
X58800000Y-74303571D01*
X58728571Y-74160714D01*
X58728571Y-73875000D01*
X58800000Y-73732142D01*
X58942857Y-73660714D01*
X59085714Y-73660714D01*
X59228571Y-74375000D01*
X59728571Y-73017857D02*
X58728571Y-73017857D01*
X58871428Y-73017857D02*
X58800000Y-72946428D01*
X58728571Y-72803571D01*
X58728571Y-72589285D01*
X58800000Y-72446428D01*
X58942857Y-72375000D01*
X59728571Y-72375000D01*
X58942857Y-72375000D02*
X58800000Y-72303571D01*
X58728571Y-72160714D01*
X58728571Y-71946428D01*
X58800000Y-71803571D01*
X58942857Y-71732142D01*
X59728571Y-71732142D01*
X59657142Y-70446428D02*
X59728571Y-70589285D01*
X59728571Y-70875000D01*
X59657142Y-71017857D01*
X59514285Y-71089285D01*
X58942857Y-71089285D01*
X58800000Y-71017857D01*
X58728571Y-70875000D01*
X58728571Y-70589285D01*
X58800000Y-70446428D01*
X58942857Y-70375000D01*
X59085714Y-70375000D01*
X59228571Y-71089285D01*
X58728571Y-69732142D02*
X59728571Y-69732142D01*
X58871428Y-69732142D02*
X58800000Y-69660714D01*
X58728571Y-69517857D01*
X58728571Y-69303571D01*
X58800000Y-69160714D01*
X58942857Y-69089285D01*
X59728571Y-69089285D01*
X58728571Y-68589285D02*
X58728571Y-68017857D01*
X58228571Y-68375000D02*
X59514285Y-68375000D01*
X59657142Y-68303571D01*
X59728571Y-68160714D01*
X59728571Y-68017857D01*
X60921428Y-115089285D02*
X60850000Y-115017857D01*
X60778571Y-114875000D01*
X60778571Y-114517857D01*
X60850000Y-114375000D01*
X60921428Y-114303571D01*
X61064285Y-114232142D01*
X61207142Y-114232142D01*
X61421428Y-114303571D01*
X62278571Y-115160714D01*
X62278571Y-114232142D01*
X60778571Y-112946428D02*
X60778571Y-113232142D01*
X60850000Y-113375000D01*
X60921428Y-113446428D01*
X61135714Y-113589285D01*
X61421428Y-113660714D01*
X61992857Y-113660714D01*
X62135714Y-113589285D01*
X62207142Y-113517857D01*
X62278571Y-113375000D01*
X62278571Y-113089285D01*
X62207142Y-112946428D01*
X62135714Y-112875000D01*
X61992857Y-112803571D01*
X61635714Y-112803571D01*
X61492857Y-112875000D01*
X61421428Y-112946428D01*
X61350000Y-113089285D01*
X61350000Y-113375000D01*
X61421428Y-113517857D01*
X61492857Y-113589285D01*
X61635714Y-113660714D01*
X61707142Y-112160714D02*
X61707142Y-111017857D01*
X60778571Y-110017857D02*
X60778571Y-109732142D01*
X60850000Y-109589285D01*
X60992857Y-109446428D01*
X61278571Y-109375000D01*
X61778571Y-109375000D01*
X62064285Y-109446428D01*
X62207142Y-109589285D01*
X62278571Y-109732142D01*
X62278571Y-110017857D01*
X62207142Y-110160714D01*
X62064285Y-110303571D01*
X61778571Y-110375000D01*
X61278571Y-110375000D01*
X60992857Y-110303571D01*
X60850000Y-110160714D01*
X60778571Y-110017857D01*
X62135714Y-107875000D02*
X62207142Y-107946428D01*
X62278571Y-108160714D01*
X62278571Y-108303571D01*
X62207142Y-108517857D01*
X62064285Y-108660714D01*
X61921428Y-108732142D01*
X61635714Y-108803571D01*
X61421428Y-108803571D01*
X61135714Y-108732142D01*
X60992857Y-108660714D01*
X60850000Y-108517857D01*
X60778571Y-108303571D01*
X60778571Y-108160714D01*
X60850000Y-107946428D01*
X60921428Y-107875000D01*
X60778571Y-107446428D02*
X60778571Y-106589285D01*
X62278571Y-107017857D02*
X60778571Y-107017857D01*
X61707142Y-106089285D02*
X61707142Y-104946428D01*
X60921428Y-104303571D02*
X60850000Y-104232142D01*
X60778571Y-104089285D01*
X60778571Y-103732142D01*
X60850000Y-103589285D01*
X60921428Y-103517857D01*
X61064285Y-103446428D01*
X61207142Y-103446428D01*
X61421428Y-103517857D01*
X62278571Y-104375000D01*
X62278571Y-103446428D01*
X60778571Y-102517857D02*
X60778571Y-102375000D01*
X60850000Y-102232142D01*
X60921428Y-102160714D01*
X61064285Y-102089285D01*
X61350000Y-102017857D01*
X61707142Y-102017857D01*
X61992857Y-102089285D01*
X62135714Y-102160714D01*
X62207142Y-102232142D01*
X62278571Y-102375000D01*
X62278571Y-102517857D01*
X62207142Y-102660714D01*
X62135714Y-102732142D01*
X61992857Y-102803571D01*
X61707142Y-102875000D01*
X61350000Y-102875000D01*
X61064285Y-102803571D01*
X60921428Y-102732142D01*
X60850000Y-102660714D01*
X60778571Y-102517857D01*
X62278571Y-100589285D02*
X62278571Y-101446428D01*
X62278571Y-101017857D02*
X60778571Y-101017857D01*
X60992857Y-101160714D01*
X61135714Y-101303571D01*
X61207142Y-101446428D01*
X62278571Y-99875000D02*
X62278571Y-99589285D01*
X62207142Y-99446428D01*
X62135714Y-99375000D01*
X61921428Y-99232142D01*
X61635714Y-99160714D01*
X61064285Y-99160714D01*
X60921428Y-99232142D01*
X60850000Y-99303571D01*
X60778571Y-99446428D01*
X60778571Y-99732142D01*
X60850000Y-99875000D01*
X60921428Y-99946428D01*
X61064285Y-100017857D01*
X61421428Y-100017857D01*
X61564285Y-99946428D01*
X61635714Y-99875000D01*
X61707142Y-99732142D01*
X61707142Y-99446428D01*
X61635714Y-99303571D01*
X61564285Y-99232142D01*
X61421428Y-99160714D01*
X61278571Y-97517857D02*
X62278571Y-97160714D01*
X61278571Y-96803571D01*
X62278571Y-95446428D02*
X62278571Y-96303571D01*
X62278571Y-95875000D02*
X60778571Y-95875000D01*
X60992857Y-96017857D01*
X61135714Y-96160714D01*
X61207142Y-96303571D01*
X62135714Y-94803571D02*
X62207142Y-94732142D01*
X62278571Y-94803571D01*
X62207142Y-94875000D01*
X62135714Y-94803571D01*
X62278571Y-94803571D01*
X62278571Y-93303571D02*
X62278571Y-94160714D01*
X62278571Y-93732142D02*
X60778571Y-93732142D01*
X60992857Y-93875000D01*
X61135714Y-94017857D01*
X61207142Y-94160714D01*
D12*
X66971428Y-94067142D02*
X66971428Y-91067142D01*
X68257142Y-93924285D02*
X68685714Y-94067142D01*
X69400000Y-94067142D01*
X69685714Y-93924285D01*
X69828571Y-93781428D01*
X69971428Y-93495714D01*
X69971428Y-93210000D01*
X69828571Y-92924285D01*
X69685714Y-92781428D01*
X69400000Y-92638571D01*
X68828571Y-92495714D01*
X68542857Y-92352857D01*
X68400000Y-92210000D01*
X68257142Y-91924285D01*
X68257142Y-91638571D01*
X68400000Y-91352857D01*
X68542857Y-91210000D01*
X68828571Y-91067142D01*
X69542857Y-91067142D01*
X69971428Y-91210000D01*
X71114285Y-93210000D02*
X72542857Y-93210000D01*
X70828571Y-94067142D02*
X71828571Y-91067142D01*
X72828571Y-94067142D01*
X77828571Y-94067142D02*
X76828571Y-92638571D01*
X76114285Y-94067142D02*
X76114285Y-91067142D01*
X77257142Y-91067142D01*
X77542857Y-91210000D01*
X77685714Y-91352857D01*
X77828571Y-91638571D01*
X77828571Y-92067142D01*
X77685714Y-92352857D01*
X77542857Y-92495714D01*
X77257142Y-92638571D01*
X76114285Y-92638571D01*
X78971428Y-93210000D02*
X80400000Y-93210000D01*
X78685714Y-94067142D02*
X79685714Y-91067142D01*
X80685714Y-94067142D01*
X81685714Y-94067142D02*
X81685714Y-91067142D01*
X82685714Y-93210000D01*
X83685714Y-91067142D01*
X83685714Y-94067142D01*
X87400000Y-92495714D02*
X88400000Y-92495714D01*
X88828571Y-94067142D02*
X87400000Y-94067142D01*
X87400000Y-91067142D01*
X88828571Y-91067142D01*
X89828571Y-91067142D02*
X91828571Y-94067142D01*
X91828571Y-91067142D02*
X89828571Y-94067142D01*
X92971428Y-94067142D02*
X92971428Y-91067142D01*
X94114285Y-91067142D01*
X94400000Y-91210000D01*
X94542857Y-91352857D01*
X94685714Y-91638571D01*
X94685714Y-92067142D01*
X94542857Y-92352857D01*
X94400000Y-92495714D01*
X94114285Y-92638571D01*
X92971428Y-92638571D01*
X95828571Y-93210000D02*
X97257142Y-93210000D01*
X95542857Y-94067142D02*
X96542857Y-91067142D01*
X97542857Y-94067142D01*
X98542857Y-94067142D02*
X98542857Y-91067142D01*
X100257142Y-94067142D01*
X100257142Y-91067142D01*
X101542857Y-93924285D02*
X101971428Y-94067142D01*
X102685714Y-94067142D01*
X102971428Y-93924285D01*
X103114285Y-93781428D01*
X103257142Y-93495714D01*
X103257142Y-93210000D01*
X103114285Y-92924285D01*
X102971428Y-92781428D01*
X102685714Y-92638571D01*
X102114285Y-92495714D01*
X101828571Y-92352857D01*
X101685714Y-92210000D01*
X101542857Y-91924285D01*
X101542857Y-91638571D01*
X101685714Y-91352857D01*
X101828571Y-91210000D01*
X102114285Y-91067142D01*
X102828571Y-91067142D01*
X103257142Y-91210000D01*
X104542857Y-94067142D02*
X104542857Y-91067142D01*
X106542857Y-91067142D02*
X107114285Y-91067142D01*
X107400000Y-91210000D01*
X107685714Y-91495714D01*
X107828571Y-92067142D01*
X107828571Y-93067142D01*
X107685714Y-93638571D01*
X107400000Y-93924285D01*
X107114285Y-94067142D01*
X106542857Y-94067142D01*
X106257142Y-93924285D01*
X105971428Y-93638571D01*
X105828571Y-93067142D01*
X105828571Y-92067142D01*
X105971428Y-91495714D01*
X106257142Y-91210000D01*
X106542857Y-91067142D01*
X109114285Y-94067142D02*
X109114285Y-91067142D01*
X110828571Y-94067142D01*
X110828571Y-91067142D01*
D10*
X63754047Y-70556428D02*
X64515952Y-70556428D01*
X61849047Y-70556428D02*
X62610952Y-70556428D01*
X62230000Y-70937380D02*
X62230000Y-70175476D01*
X91426309Y-70827380D02*
X91426309Y-71541666D01*
X91378690Y-71684523D01*
X91283452Y-71779761D01*
X91140595Y-71827380D01*
X91045357Y-71827380D01*
X91902500Y-71827380D02*
X91902500Y-70827380D01*
X92283452Y-70827380D01*
X92378690Y-70875000D01*
X92426309Y-70922619D01*
X92473928Y-71017857D01*
X92473928Y-71160714D01*
X92426309Y-71255952D01*
X92378690Y-71303571D01*
X92283452Y-71351190D01*
X91902500Y-71351190D01*
X93426309Y-71827380D02*
X92854880Y-71827380D01*
X93140595Y-71827380D02*
X93140595Y-70827380D01*
X93045357Y-70970238D01*
X92950119Y-71065476D01*
X92854880Y-71113095D01*
X93854880Y-71732142D02*
X93902500Y-71779761D01*
X93854880Y-71827380D01*
X93807261Y-71779761D01*
X93854880Y-71732142D01*
X93854880Y-71827380D01*
X93854880Y-71208333D02*
X93902500Y-71255952D01*
X93854880Y-71303571D01*
X93807261Y-71255952D01*
X93854880Y-71208333D01*
X93854880Y-71303571D01*
X95283452Y-70827380D02*
X95473928Y-70827380D01*
X95569166Y-70875000D01*
X95664404Y-70970238D01*
X95712023Y-71160714D01*
X95712023Y-71494047D01*
X95664404Y-71684523D01*
X95569166Y-71779761D01*
X95473928Y-71827380D01*
X95283452Y-71827380D01*
X95188214Y-71779761D01*
X95092976Y-71684523D01*
X95045357Y-71494047D01*
X95045357Y-71160714D01*
X95092976Y-70970238D01*
X95188214Y-70875000D01*
X95283452Y-70827380D01*
X96140595Y-71827380D02*
X96140595Y-70827380D01*
X96712023Y-71827380D01*
X96712023Y-70827380D01*
X98712023Y-71446428D02*
X99473928Y-71446428D01*
X99950119Y-71160714D02*
X100712023Y-71446428D01*
X99950119Y-71732142D01*
X101950119Y-71303571D02*
X102283452Y-71303571D01*
X102426309Y-71827380D02*
X101950119Y-71827380D01*
X101950119Y-70827380D01*
X102426309Y-70827380D01*
X102854880Y-71160714D02*
X102854880Y-71827380D01*
X102854880Y-71255952D02*
X102902500Y-71208333D01*
X102997738Y-71160714D01*
X103140595Y-71160714D01*
X103235833Y-71208333D01*
X103283452Y-71303571D01*
X103283452Y-71827380D01*
X104188214Y-71827380D02*
X104188214Y-71303571D01*
X104140595Y-71208333D01*
X104045357Y-71160714D01*
X103854880Y-71160714D01*
X103759642Y-71208333D01*
X104188214Y-71779761D02*
X104092976Y-71827380D01*
X103854880Y-71827380D01*
X103759642Y-71779761D01*
X103712023Y-71684523D01*
X103712023Y-71589285D01*
X103759642Y-71494047D01*
X103854880Y-71446428D01*
X104092976Y-71446428D01*
X104188214Y-71398809D01*
X104664404Y-71827380D02*
X104664404Y-70827380D01*
X104664404Y-71208333D02*
X104759642Y-71160714D01*
X104950119Y-71160714D01*
X105045357Y-71208333D01*
X105092976Y-71255952D01*
X105140595Y-71351190D01*
X105140595Y-71636904D01*
X105092976Y-71732142D01*
X105045357Y-71779761D01*
X104950119Y-71827380D01*
X104759642Y-71827380D01*
X104664404Y-71779761D01*
X105712023Y-71827380D02*
X105616785Y-71779761D01*
X105569166Y-71684523D01*
X105569166Y-70827380D01*
X106473928Y-71779761D02*
X106378690Y-71827380D01*
X106188214Y-71827380D01*
X106092976Y-71779761D01*
X106045357Y-71684523D01*
X106045357Y-71303571D01*
X106092976Y-71208333D01*
X106188214Y-71160714D01*
X106378690Y-71160714D01*
X106473928Y-71208333D01*
X106521547Y-71303571D01*
X106521547Y-71398809D01*
X106045357Y-71494047D01*
X108283452Y-71827380D02*
X107950119Y-71351190D01*
X107712023Y-71827380D02*
X107712023Y-70827380D01*
X108092976Y-70827380D01*
X108188214Y-70875000D01*
X108235833Y-70922619D01*
X108283452Y-71017857D01*
X108283452Y-71160714D01*
X108235833Y-71255952D01*
X108188214Y-71303571D01*
X108092976Y-71351190D01*
X107712023Y-71351190D01*
X108664404Y-71541666D02*
X109140595Y-71541666D01*
X108569166Y-71827380D02*
X108902500Y-70827380D01*
X109235833Y-71827380D01*
X109569166Y-71827380D02*
X109569166Y-70827380D01*
X109902500Y-71541666D01*
X110235833Y-70827380D01*
X110235833Y-71827380D01*
X91426309Y-72477380D02*
X91426309Y-73191666D01*
X91378690Y-73334523D01*
X91283452Y-73429761D01*
X91140595Y-73477380D01*
X91045357Y-73477380D01*
X91902500Y-73477380D02*
X91902500Y-72477380D01*
X92283452Y-72477380D01*
X92378690Y-72525000D01*
X92426309Y-72572619D01*
X92473928Y-72667857D01*
X92473928Y-72810714D01*
X92426309Y-72905952D01*
X92378690Y-72953571D01*
X92283452Y-73001190D01*
X91902500Y-73001190D01*
X92854880Y-72572619D02*
X92902500Y-72525000D01*
X92997738Y-72477380D01*
X93235833Y-72477380D01*
X93331071Y-72525000D01*
X93378690Y-72572619D01*
X93426309Y-72667857D01*
X93426309Y-72763095D01*
X93378690Y-72905952D01*
X92807261Y-73477380D01*
X93426309Y-73477380D01*
X93854880Y-73382142D02*
X93902500Y-73429761D01*
X93854880Y-73477380D01*
X93807261Y-73429761D01*
X93854880Y-73382142D01*
X93854880Y-73477380D01*
X93854880Y-72858333D02*
X93902500Y-72905952D01*
X93854880Y-72953571D01*
X93807261Y-72905952D01*
X93854880Y-72858333D01*
X93854880Y-72953571D01*
X95616785Y-73477380D02*
X95045357Y-73477380D01*
X95331071Y-73477380D02*
X95331071Y-72477380D01*
X95235833Y-72620238D01*
X95140595Y-72715476D01*
X95045357Y-72763095D01*
X96045357Y-73096428D02*
X96807261Y-73096428D01*
X97235833Y-72572619D02*
X97283452Y-72525000D01*
X97378690Y-72477380D01*
X97616785Y-72477380D01*
X97712023Y-72525000D01*
X97759642Y-72572619D01*
X97807261Y-72667857D01*
X97807261Y-72763095D01*
X97759642Y-72905952D01*
X97188214Y-73477380D01*
X97807261Y-73477380D01*
X98997738Y-73096428D02*
X99759642Y-73096428D01*
X100235833Y-72810714D02*
X100997738Y-73096428D01*
X100235833Y-73382142D01*
X102759642Y-73477380D02*
X102188214Y-73477380D01*
X102473928Y-73477380D02*
X102473928Y-72477380D01*
X102378690Y-72620238D01*
X102283452Y-72715476D01*
X102188214Y-72763095D01*
X103140595Y-72572619D02*
X103188214Y-72525000D01*
X103283452Y-72477380D01*
X103521547Y-72477380D01*
X103616785Y-72525000D01*
X103664404Y-72572619D01*
X103712023Y-72667857D01*
X103712023Y-72763095D01*
X103664404Y-72905952D01*
X103092976Y-73477380D01*
X103712023Y-73477380D01*
X104283452Y-72905952D02*
X104188214Y-72858333D01*
X104140595Y-72810714D01*
X104092976Y-72715476D01*
X104092976Y-72667857D01*
X104140595Y-72572619D01*
X104188214Y-72525000D01*
X104283452Y-72477380D01*
X104473928Y-72477380D01*
X104569166Y-72525000D01*
X104616785Y-72572619D01*
X104664404Y-72667857D01*
X104664404Y-72715476D01*
X104616785Y-72810714D01*
X104569166Y-72858333D01*
X104473928Y-72905952D01*
X104283452Y-72905952D01*
X104188214Y-72953571D01*
X104140595Y-73001190D01*
X104092976Y-73096428D01*
X104092976Y-73286904D01*
X104140595Y-73382142D01*
X104188214Y-73429761D01*
X104283452Y-73477380D01*
X104473928Y-73477380D01*
X104569166Y-73429761D01*
X104616785Y-73382142D01*
X104664404Y-73286904D01*
X104664404Y-73096428D01*
X104616785Y-73001190D01*
X104569166Y-72953571D01*
X104473928Y-72905952D01*
X105092976Y-73477380D02*
X105092976Y-72477380D01*
X105188214Y-73096428D02*
X105473928Y-73477380D01*
X105473928Y-72810714D02*
X105092976Y-73191666D01*
X106664404Y-72477380D02*
X106664404Y-73286904D01*
X106712023Y-73382142D01*
X106759642Y-73429761D01*
X106854880Y-73477380D01*
X107045357Y-73477380D01*
X107140595Y-73429761D01*
X107188214Y-73382142D01*
X107235833Y-73286904D01*
X107235833Y-72477380D01*
X107712023Y-73477380D02*
X107712023Y-72477380D01*
X108045357Y-73191666D01*
X108378690Y-72477380D01*
X108378690Y-73477380D01*
X109188214Y-72953571D02*
X109331071Y-73001190D01*
X109378690Y-73048809D01*
X109426309Y-73144047D01*
X109426309Y-73286904D01*
X109378690Y-73382142D01*
X109331071Y-73429761D01*
X109235833Y-73477380D01*
X108854880Y-73477380D01*
X108854880Y-72477380D01*
X109188214Y-72477380D01*
X109283452Y-72525000D01*
X109331071Y-72572619D01*
X109378690Y-72667857D01*
X109378690Y-72763095D01*
X109331071Y-72858333D01*
X109283452Y-72905952D01*
X109188214Y-72953571D01*
X108854880Y-72953571D01*
X111331071Y-72429761D02*
X110473928Y-73715476D01*
X112378690Y-72572619D02*
X112426309Y-72525000D01*
X112521547Y-72477380D01*
X112759642Y-72477380D01*
X112854880Y-72525000D01*
X112902500Y-72572619D01*
X112950119Y-72667857D01*
X112950119Y-72763095D01*
X112902500Y-72905952D01*
X112331071Y-73477380D01*
X112950119Y-73477380D01*
X113378690Y-73096428D02*
X114140595Y-73096428D01*
X114521547Y-72477380D02*
X115140595Y-72477380D01*
X114807261Y-72858333D01*
X114950119Y-72858333D01*
X115045357Y-72905952D01*
X115092976Y-72953571D01*
X115140595Y-73048809D01*
X115140595Y-73286904D01*
X115092976Y-73382142D01*
X115045357Y-73429761D01*
X114950119Y-73477380D01*
X114664404Y-73477380D01*
X114569166Y-73429761D01*
X114521547Y-73382142D01*
X116331071Y-73096428D02*
X117092976Y-73096428D01*
X117569166Y-72810714D02*
X118331071Y-73096428D01*
X117569166Y-73382142D01*
X119997738Y-72477380D02*
X119807261Y-72477380D01*
X119712023Y-72525000D01*
X119664404Y-72572619D01*
X119569166Y-72715476D01*
X119521547Y-72905952D01*
X119521547Y-73286904D01*
X119569166Y-73382142D01*
X119616785Y-73429761D01*
X119712023Y-73477380D01*
X119902500Y-73477380D01*
X119997738Y-73429761D01*
X120045357Y-73382142D01*
X120092976Y-73286904D01*
X120092976Y-73048809D01*
X120045357Y-72953571D01*
X119997738Y-72905952D01*
X119902500Y-72858333D01*
X119712023Y-72858333D01*
X119616785Y-72905952D01*
X119569166Y-72953571D01*
X119521547Y-73048809D01*
X120950119Y-72810714D02*
X120950119Y-73477380D01*
X120712023Y-72429761D02*
X120473928Y-73144047D01*
X121092976Y-73144047D01*
X121473928Y-73477380D02*
X121473928Y-72477380D01*
X121569166Y-73096428D02*
X121854880Y-73477380D01*
X121854880Y-72810714D02*
X121473928Y-73191666D01*
X123045357Y-72477380D02*
X123045357Y-73286904D01*
X123092976Y-73382142D01*
X123140595Y-73429761D01*
X123235833Y-73477380D01*
X123426309Y-73477380D01*
X123521547Y-73429761D01*
X123569166Y-73382142D01*
X123616785Y-73286904D01*
X123616785Y-72477380D01*
X124092976Y-73477380D02*
X124092976Y-72477380D01*
X124426309Y-73191666D01*
X124759642Y-72477380D01*
X124759642Y-73477380D01*
X125569166Y-72953571D02*
X125712023Y-73001190D01*
X125759642Y-73048809D01*
X125807261Y-73144047D01*
X125807261Y-73286904D01*
X125759642Y-73382142D01*
X125712023Y-73429761D01*
X125616785Y-73477380D01*
X125235833Y-73477380D01*
X125235833Y-72477380D01*
X125569166Y-72477380D01*
X125664404Y-72525000D01*
X125712023Y-72572619D01*
X125759642Y-72667857D01*
X125759642Y-72763095D01*
X125712023Y-72858333D01*
X125664404Y-72905952D01*
X125569166Y-72953571D01*
X125235833Y-72953571D01*
X91426309Y-74127380D02*
X91426309Y-74841666D01*
X91378690Y-74984523D01*
X91283452Y-75079761D01*
X91140595Y-75127380D01*
X91045357Y-75127380D01*
X91902500Y-75127380D02*
X91902500Y-74127380D01*
X92283452Y-74127380D01*
X92378690Y-74175000D01*
X92426309Y-74222619D01*
X92473928Y-74317857D01*
X92473928Y-74460714D01*
X92426309Y-74555952D01*
X92378690Y-74603571D01*
X92283452Y-74651190D01*
X91902500Y-74651190D01*
X92807261Y-74127380D02*
X93426309Y-74127380D01*
X93092976Y-74508333D01*
X93235833Y-74508333D01*
X93331071Y-74555952D01*
X93378690Y-74603571D01*
X93426309Y-74698809D01*
X93426309Y-74936904D01*
X93378690Y-75032142D01*
X93331071Y-75079761D01*
X93235833Y-75127380D01*
X92950119Y-75127380D01*
X92854880Y-75079761D01*
X92807261Y-75032142D01*
X93854880Y-75032142D02*
X93902500Y-75079761D01*
X93854880Y-75127380D01*
X93807261Y-75079761D01*
X93854880Y-75032142D01*
X93854880Y-75127380D01*
X93854880Y-74508333D02*
X93902500Y-74555952D01*
X93854880Y-74603571D01*
X93807261Y-74555952D01*
X93854880Y-74508333D01*
X93854880Y-74603571D01*
X95283452Y-74127380D02*
X95473928Y-74127380D01*
X95569166Y-74175000D01*
X95664404Y-74270238D01*
X95712023Y-74460714D01*
X95712023Y-74794047D01*
X95664404Y-74984523D01*
X95569166Y-75079761D01*
X95473928Y-75127380D01*
X95283452Y-75127380D01*
X95188214Y-75079761D01*
X95092976Y-74984523D01*
X95045357Y-74794047D01*
X95045357Y-74460714D01*
X95092976Y-74270238D01*
X95188214Y-74175000D01*
X95283452Y-74127380D01*
X96140595Y-75127380D02*
X96140595Y-74127380D01*
X96712023Y-75127380D01*
X96712023Y-74127380D01*
X98712023Y-74746428D02*
X99473928Y-74746428D01*
X99950119Y-74460714D02*
X100712023Y-74746428D01*
X99950119Y-75032142D01*
X102426309Y-75127380D02*
X101950119Y-75127380D01*
X101950119Y-74127380D01*
X102902500Y-75127380D02*
X102807261Y-75079761D01*
X102759642Y-75032142D01*
X102712023Y-74936904D01*
X102712023Y-74651190D01*
X102759642Y-74555952D01*
X102807261Y-74508333D01*
X102902500Y-74460714D01*
X103045357Y-74460714D01*
X103140595Y-74508333D01*
X103188214Y-74555952D01*
X103235833Y-74651190D01*
X103235833Y-74936904D01*
X103188214Y-75032142D01*
X103140595Y-75079761D01*
X103045357Y-75127380D01*
X102902500Y-75127380D01*
X104092976Y-74460714D02*
X104092976Y-75270238D01*
X104045357Y-75365476D01*
X103997738Y-75413095D01*
X103902500Y-75460714D01*
X103759642Y-75460714D01*
X103664404Y-75413095D01*
X104092976Y-75079761D02*
X103997738Y-75127380D01*
X103807261Y-75127380D01*
X103712023Y-75079761D01*
X103664404Y-75032142D01*
X103616785Y-74936904D01*
X103616785Y-74651190D01*
X103664404Y-74555952D01*
X103712023Y-74508333D01*
X103807261Y-74460714D01*
X103997738Y-74460714D01*
X104092976Y-74508333D01*
X104569166Y-75127380D02*
X104569166Y-74460714D01*
X104569166Y-74127380D02*
X104521547Y-74175000D01*
X104569166Y-74222619D01*
X104616785Y-74175000D01*
X104569166Y-74127380D01*
X104569166Y-74222619D01*
X105473928Y-75079761D02*
X105378690Y-75127380D01*
X105188214Y-75127380D01*
X105092976Y-75079761D01*
X105045357Y-75032142D01*
X104997738Y-74936904D01*
X104997738Y-74651190D01*
X105045357Y-74555952D01*
X105092976Y-74508333D01*
X105188214Y-74460714D01*
X105378690Y-74460714D01*
X105473928Y-74508333D01*
X106997738Y-74603571D02*
X107140595Y-74651190D01*
X107188214Y-74698809D01*
X107235833Y-74794047D01*
X107235833Y-74936904D01*
X107188214Y-75032142D01*
X107140595Y-75079761D01*
X107045357Y-75127380D01*
X106664404Y-75127380D01*
X106664404Y-74127380D01*
X106997738Y-74127380D01*
X107092976Y-74175000D01*
X107140595Y-74222619D01*
X107188214Y-74317857D01*
X107188214Y-74413095D01*
X107140595Y-74508333D01*
X107092976Y-74555952D01*
X106997738Y-74603571D01*
X106664404Y-74603571D01*
X107569166Y-74460714D02*
X107807261Y-75127380D01*
X108045357Y-74460714D02*
X107807261Y-75127380D01*
X107712023Y-75365476D01*
X107664404Y-75413095D01*
X107569166Y-75460714D01*
X108426309Y-74460714D02*
X108426309Y-75460714D01*
X108426309Y-74508333D02*
X108521547Y-74460714D01*
X108712023Y-74460714D01*
X108807261Y-74508333D01*
X108854880Y-74555952D01*
X108902500Y-74651190D01*
X108902500Y-74936904D01*
X108854880Y-75032142D01*
X108807261Y-75079761D01*
X108712023Y-75127380D01*
X108521547Y-75127380D01*
X108426309Y-75079761D01*
X109759642Y-75127380D02*
X109759642Y-74603571D01*
X109712023Y-74508333D01*
X109616785Y-74460714D01*
X109426309Y-74460714D01*
X109331071Y-74508333D01*
X109759642Y-75079761D02*
X109664404Y-75127380D01*
X109426309Y-75127380D01*
X109331071Y-75079761D01*
X109283452Y-74984523D01*
X109283452Y-74889285D01*
X109331071Y-74794047D01*
X109426309Y-74746428D01*
X109664404Y-74746428D01*
X109759642Y-74698809D01*
X110188214Y-75079761D02*
X110283452Y-75127380D01*
X110473928Y-75127380D01*
X110569166Y-75079761D01*
X110616785Y-74984523D01*
X110616785Y-74936904D01*
X110569166Y-74841666D01*
X110473928Y-74794047D01*
X110331071Y-74794047D01*
X110235833Y-74746428D01*
X110188214Y-74651190D01*
X110188214Y-74603571D01*
X110235833Y-74508333D01*
X110331071Y-74460714D01*
X110473928Y-74460714D01*
X110569166Y-74508333D01*
X110997738Y-75079761D02*
X111092976Y-75127380D01*
X111283452Y-75127380D01*
X111378690Y-75079761D01*
X111426309Y-74984523D01*
X111426309Y-74936904D01*
X111378690Y-74841666D01*
X111283452Y-74794047D01*
X111140595Y-74794047D01*
X111045357Y-74746428D01*
X110997738Y-74651190D01*
X110997738Y-74603571D01*
X111045357Y-74508333D01*
X111140595Y-74460714D01*
X111283452Y-74460714D01*
X111378690Y-74508333D01*
X112902500Y-75508333D02*
X112854880Y-75460714D01*
X112759642Y-75317857D01*
X112712023Y-75222619D01*
X112664404Y-75079761D01*
X112616785Y-74841666D01*
X112616785Y-74651190D01*
X112664404Y-74413095D01*
X112712023Y-74270238D01*
X112759642Y-74175000D01*
X112854880Y-74032142D01*
X112902500Y-73984523D01*
X113426309Y-74127380D02*
X113426309Y-74365476D01*
X113188214Y-74270238D02*
X113426309Y-74365476D01*
X113664404Y-74270238D01*
X113283452Y-74555952D02*
X113426309Y-74365476D01*
X113569166Y-74555952D01*
X113950119Y-74127380D02*
X114188214Y-75127380D01*
X114378690Y-74413095D01*
X114569166Y-75127380D01*
X114807261Y-74127380D01*
X115140595Y-74841666D02*
X115616785Y-74841666D01*
X115045357Y-75127380D02*
X115378690Y-74127380D01*
X115712023Y-75127380D01*
X116616785Y-75127380D02*
X116283452Y-74651190D01*
X116045357Y-75127380D02*
X116045357Y-74127380D01*
X116426309Y-74127380D01*
X116521547Y-74175000D01*
X116569166Y-74222619D01*
X116616785Y-74317857D01*
X116616785Y-74460714D01*
X116569166Y-74555952D01*
X116521547Y-74603571D01*
X116426309Y-74651190D01*
X116045357Y-74651190D01*
X117045357Y-75127380D02*
X117045357Y-74127380D01*
X117616785Y-75127380D01*
X117616785Y-74127380D01*
X118092976Y-75127380D02*
X118092976Y-74127380D01*
X118569166Y-75127380D02*
X118569166Y-74127380D01*
X119140595Y-75127380D01*
X119140595Y-74127380D01*
X120140595Y-74175000D02*
X120045357Y-74127380D01*
X119902500Y-74127380D01*
X119759642Y-74175000D01*
X119664404Y-74270238D01*
X119616785Y-74365476D01*
X119569166Y-74555952D01*
X119569166Y-74698809D01*
X119616785Y-74889285D01*
X119664404Y-74984523D01*
X119759642Y-75079761D01*
X119902500Y-75127380D01*
X119997738Y-75127380D01*
X120140595Y-75079761D01*
X120188214Y-75032142D01*
X120188214Y-74698809D01*
X119997738Y-74698809D01*
X120759642Y-74127380D02*
X120759642Y-74365476D01*
X120521547Y-74270238D02*
X120759642Y-74365476D01*
X120997738Y-74270238D01*
X120616785Y-74555952D02*
X120759642Y-74365476D01*
X120902500Y-74555952D01*
X121283452Y-75508333D02*
X121331071Y-75460714D01*
X121426309Y-75317857D01*
X121473928Y-75222619D01*
X121521547Y-75079761D01*
X121569166Y-74841666D01*
X121569166Y-74651190D01*
X121521547Y-74413095D01*
X121473928Y-74270238D01*
X121426309Y-74175000D01*
X121331071Y-74032142D01*
X121283452Y-73984523D01*
D13*
X60047857Y-123525714D02*
X59047857Y-123525714D01*
X59047857Y-125097142D02*
X59047857Y-122097142D01*
X60476428Y-122097142D01*
X63333571Y-125097142D02*
X62333571Y-123668571D01*
X61619285Y-125097142D02*
X61619285Y-122097142D01*
X62762142Y-122097142D01*
X63047857Y-122240000D01*
X63190714Y-122382857D01*
X63333571Y-122668571D01*
X63333571Y-123097142D01*
X63190714Y-123382857D01*
X63047857Y-123525714D01*
X62762142Y-123668571D01*
X61619285Y-123668571D01*
X65190714Y-122097142D02*
X65762142Y-122097142D01*
X66047857Y-122240000D01*
X66333571Y-122525714D01*
X66476428Y-123097142D01*
X66476428Y-124097142D01*
X66333571Y-124668571D01*
X66047857Y-124954285D01*
X65762142Y-125097142D01*
X65190714Y-125097142D01*
X64905000Y-124954285D01*
X64619285Y-124668571D01*
X64476428Y-124097142D01*
X64476428Y-123097142D01*
X64619285Y-122525714D01*
X64905000Y-122240000D01*
X65190714Y-122097142D01*
X67762142Y-125097142D02*
X67762142Y-122097142D01*
X69476428Y-125097142D01*
X69476428Y-122097142D01*
X70476428Y-122097142D02*
X72190714Y-122097142D01*
X71333571Y-125097142D02*
X71333571Y-122097142D01*
X60976428Y-128347142D02*
X58690714Y-129204285D01*
X60976428Y-130061428D01*
X62405000Y-129204285D02*
X64690714Y-129204285D01*
X66119285Y-129204285D02*
X68405000Y-129204285D01*
X69833571Y-129204285D02*
X72119285Y-129204285D01*
D10*
X74229404Y-118832380D02*
X74038928Y-118832380D01*
X73943690Y-118880000D01*
X73896071Y-118927619D01*
X73800833Y-119070476D01*
X73753214Y-119260952D01*
X73753214Y-119641904D01*
X73800833Y-119737142D01*
X73848452Y-119784761D01*
X73943690Y-119832380D01*
X74134166Y-119832380D01*
X74229404Y-119784761D01*
X74277023Y-119737142D01*
X74324642Y-119641904D01*
X74324642Y-119403809D01*
X74277023Y-119308571D01*
X74229404Y-119260952D01*
X74134166Y-119213333D01*
X73943690Y-119213333D01*
X73848452Y-119260952D01*
X73800833Y-119308571D01*
X73753214Y-119403809D01*
X75277023Y-119832380D02*
X74705595Y-119832380D01*
X74991309Y-119832380D02*
X74991309Y-118832380D01*
X74896071Y-118975238D01*
X74800833Y-119070476D01*
X74705595Y-119118095D01*
X74102404Y-121499380D02*
X73911928Y-121499380D01*
X73816690Y-121547000D01*
X73769071Y-121594619D01*
X73673833Y-121737476D01*
X73626214Y-121927952D01*
X73626214Y-122308904D01*
X73673833Y-122404142D01*
X73721452Y-122451761D01*
X73816690Y-122499380D01*
X74007166Y-122499380D01*
X74102404Y-122451761D01*
X74150023Y-122404142D01*
X74197642Y-122308904D01*
X74197642Y-122070809D01*
X74150023Y-121975571D01*
X74102404Y-121927952D01*
X74007166Y-121880333D01*
X73816690Y-121880333D01*
X73721452Y-121927952D01*
X73673833Y-121975571D01*
X73626214Y-122070809D01*
X74578595Y-121594619D02*
X74626214Y-121547000D01*
X74721452Y-121499380D01*
X74959547Y-121499380D01*
X75054785Y-121547000D01*
X75102404Y-121594619D01*
X75150023Y-121689857D01*
X75150023Y-121785095D01*
X75102404Y-121927952D01*
X74530976Y-122499380D01*
X75150023Y-122499380D01*
X153894404Y-117292380D02*
X153322976Y-117292380D01*
X153608690Y-117292380D02*
X153608690Y-116292380D01*
X153513452Y-116435238D01*
X153418214Y-116530476D01*
X153322976Y-116578095D01*
X88620000Y-128478023D02*
X88620000Y-127478023D01*
X89987380Y-128239928D02*
X88987380Y-128239928D01*
X88987380Y-128001833D01*
X89035000Y-127858976D01*
X89130238Y-127763738D01*
X89225476Y-127716119D01*
X89415952Y-127668500D01*
X89558809Y-127668500D01*
X89749285Y-127716119D01*
X89844523Y-127763738D01*
X89939761Y-127858976D01*
X89987380Y-128001833D01*
X89987380Y-128239928D01*
X88620000Y-127478023D02*
X88620000Y-126620880D01*
X89701666Y-127287547D02*
X89701666Y-126811357D01*
X89987380Y-127382785D02*
X88987380Y-127049452D01*
X89987380Y-126716119D01*
X88620000Y-126620880D02*
X88620000Y-125620880D01*
X89892142Y-125811357D02*
X89939761Y-125858976D01*
X89987380Y-126001833D01*
X89987380Y-126097071D01*
X89939761Y-126239928D01*
X89844523Y-126335166D01*
X89749285Y-126382785D01*
X89558809Y-126430404D01*
X89415952Y-126430404D01*
X89225476Y-126382785D01*
X89130238Y-126335166D01*
X89035000Y-126239928D01*
X88987380Y-126097071D01*
X88987380Y-126001833D01*
X89035000Y-125858976D01*
X89082619Y-125811357D01*
X88620000Y-125620880D02*
X88620000Y-124620880D01*
X89987380Y-125382785D02*
X88987380Y-125382785D01*
X89987380Y-124811357D02*
X89415952Y-125239928D01*
X88987380Y-124811357D02*
X89558809Y-125382785D01*
X88620000Y-124620880D02*
X88620000Y-123668500D01*
X89082619Y-124430404D02*
X89035000Y-124382785D01*
X88987380Y-124287547D01*
X88987380Y-124049452D01*
X89035000Y-123954214D01*
X89082619Y-123906595D01*
X89177857Y-123858976D01*
X89273095Y-123858976D01*
X89415952Y-123906595D01*
X89987380Y-124478023D01*
X89987380Y-123858976D01*
X81986428Y-126478023D02*
X81986428Y-125716119D01*
X82367380Y-126097071D02*
X81605476Y-126097071D01*
X81367380Y-124763738D02*
X81367380Y-125239928D01*
X81843571Y-125287547D01*
X81795952Y-125239928D01*
X81748333Y-125144690D01*
X81748333Y-124906595D01*
X81795952Y-124811357D01*
X81843571Y-124763738D01*
X81938809Y-124716119D01*
X82176904Y-124716119D01*
X82272142Y-124763738D01*
X82319761Y-124811357D01*
X82367380Y-124906595D01*
X82367380Y-125144690D01*
X82319761Y-125239928D01*
X82272142Y-125287547D01*
X81367380Y-124430404D02*
X82367380Y-124097071D01*
X81367380Y-123763738D01*
X92527380Y-126906595D02*
X91527380Y-126906595D01*
X92527380Y-125858976D02*
X92051190Y-126192309D01*
X92527380Y-126430404D02*
X91527380Y-126430404D01*
X91527380Y-126049452D01*
X91575000Y-125954214D01*
X91622619Y-125906595D01*
X91717857Y-125858976D01*
X91860714Y-125858976D01*
X91955952Y-125906595D01*
X92003571Y-125954214D01*
X92051190Y-126049452D01*
X92051190Y-126430404D01*
X92622619Y-124763738D02*
X92575000Y-124858976D01*
X92479761Y-124954214D01*
X92336904Y-125097071D01*
X92289285Y-125192309D01*
X92289285Y-125287547D01*
X92527380Y-125239928D02*
X92479761Y-125335166D01*
X92384523Y-125430404D01*
X92194047Y-125478023D01*
X91860714Y-125478023D01*
X91670238Y-125430404D01*
X91575000Y-125335166D01*
X91527380Y-125239928D01*
X91527380Y-125049452D01*
X91575000Y-124954214D01*
X91670238Y-124858976D01*
X91860714Y-124811357D01*
X92194047Y-124811357D01*
X92384523Y-124858976D01*
X92479761Y-124954214D01*
X92527380Y-125049452D01*
X92527380Y-125239928D01*
X91527380Y-124478023D02*
X91527380Y-123858976D01*
X91908333Y-124192309D01*
X91908333Y-124049452D01*
X91955952Y-123954214D01*
X92003571Y-123906595D01*
X92098809Y-123858976D01*
X92336904Y-123858976D01*
X92432142Y-123906595D01*
X92479761Y-123954214D01*
X92527380Y-124049452D01*
X92527380Y-124335166D01*
X92479761Y-124430404D01*
X92432142Y-124478023D01*
X95067380Y-126906595D02*
X94067380Y-126906595D01*
X95067380Y-125858976D02*
X94591190Y-126192309D01*
X95067380Y-126430404D02*
X94067380Y-126430404D01*
X94067380Y-126049452D01*
X94115000Y-125954214D01*
X94162619Y-125906595D01*
X94257857Y-125858976D01*
X94400714Y-125858976D01*
X94495952Y-125906595D01*
X94543571Y-125954214D01*
X94591190Y-126049452D01*
X94591190Y-126430404D01*
X95162619Y-124763738D02*
X95115000Y-124858976D01*
X95019761Y-124954214D01*
X94876904Y-125097071D01*
X94829285Y-125192309D01*
X94829285Y-125287547D01*
X95067380Y-125239928D02*
X95019761Y-125335166D01*
X94924523Y-125430404D01*
X94734047Y-125478023D01*
X94400714Y-125478023D01*
X94210238Y-125430404D01*
X94115000Y-125335166D01*
X94067380Y-125239928D01*
X94067380Y-125049452D01*
X94115000Y-124954214D01*
X94210238Y-124858976D01*
X94400714Y-124811357D01*
X94734047Y-124811357D01*
X94924523Y-124858976D01*
X95019761Y-124954214D01*
X95067380Y-125049452D01*
X95067380Y-125239928D01*
X94400714Y-123954214D02*
X95067380Y-123954214D01*
X94019761Y-124192309D02*
X94734047Y-124430404D01*
X94734047Y-123811357D01*
X97607380Y-126906595D02*
X96607380Y-126906595D01*
X97607380Y-125858976D02*
X97131190Y-126192309D01*
X97607380Y-126430404D02*
X96607380Y-126430404D01*
X96607380Y-126049452D01*
X96655000Y-125954214D01*
X96702619Y-125906595D01*
X96797857Y-125858976D01*
X96940714Y-125858976D01*
X97035952Y-125906595D01*
X97083571Y-125954214D01*
X97131190Y-126049452D01*
X97131190Y-126430404D01*
X97702619Y-124763738D02*
X97655000Y-124858976D01*
X97559761Y-124954214D01*
X97416904Y-125097071D01*
X97369285Y-125192309D01*
X97369285Y-125287547D01*
X97607380Y-125239928D02*
X97559761Y-125335166D01*
X97464523Y-125430404D01*
X97274047Y-125478023D01*
X96940714Y-125478023D01*
X96750238Y-125430404D01*
X96655000Y-125335166D01*
X96607380Y-125239928D01*
X96607380Y-125049452D01*
X96655000Y-124954214D01*
X96750238Y-124858976D01*
X96940714Y-124811357D01*
X97274047Y-124811357D01*
X97464523Y-124858976D01*
X97559761Y-124954214D01*
X97607380Y-125049452D01*
X97607380Y-125239928D01*
X96607380Y-123906595D02*
X96607380Y-124382785D01*
X97083571Y-124430404D01*
X97035952Y-124382785D01*
X96988333Y-124287547D01*
X96988333Y-124049452D01*
X97035952Y-123954214D01*
X97083571Y-123906595D01*
X97178809Y-123858976D01*
X97416904Y-123858976D01*
X97512142Y-123906595D01*
X97559761Y-123954214D01*
X97607380Y-124049452D01*
X97607380Y-124287547D01*
X97559761Y-124382785D01*
X97512142Y-124430404D01*
X100147380Y-126906595D02*
X99147380Y-126906595D01*
X100147380Y-125858976D02*
X99671190Y-126192309D01*
X100147380Y-126430404D02*
X99147380Y-126430404D01*
X99147380Y-126049452D01*
X99195000Y-125954214D01*
X99242619Y-125906595D01*
X99337857Y-125858976D01*
X99480714Y-125858976D01*
X99575952Y-125906595D01*
X99623571Y-125954214D01*
X99671190Y-126049452D01*
X99671190Y-126430404D01*
X100242619Y-124763738D02*
X100195000Y-124858976D01*
X100099761Y-124954214D01*
X99956904Y-125097071D01*
X99909285Y-125192309D01*
X99909285Y-125287547D01*
X100147380Y-125239928D02*
X100099761Y-125335166D01*
X100004523Y-125430404D01*
X99814047Y-125478023D01*
X99480714Y-125478023D01*
X99290238Y-125430404D01*
X99195000Y-125335166D01*
X99147380Y-125239928D01*
X99147380Y-125049452D01*
X99195000Y-124954214D01*
X99290238Y-124858976D01*
X99480714Y-124811357D01*
X99814047Y-124811357D01*
X100004523Y-124858976D01*
X100099761Y-124954214D01*
X100147380Y-125049452D01*
X100147380Y-125239928D01*
X99147380Y-123954214D02*
X99147380Y-124144690D01*
X99195000Y-124239928D01*
X99242619Y-124287547D01*
X99385476Y-124382785D01*
X99575952Y-124430404D01*
X99956904Y-124430404D01*
X100052142Y-124382785D01*
X100099761Y-124335166D01*
X100147380Y-124239928D01*
X100147380Y-124049452D01*
X100099761Y-123954214D01*
X100052142Y-123906595D01*
X99956904Y-123858976D01*
X99718809Y-123858976D01*
X99623571Y-123906595D01*
X99575952Y-123954214D01*
X99528333Y-124049452D01*
X99528333Y-124239928D01*
X99575952Y-124335166D01*
X99623571Y-124382785D01*
X99718809Y-124430404D01*
X102687380Y-126906595D02*
X101687380Y-126906595D01*
X102687380Y-125858976D02*
X102211190Y-126192309D01*
X102687380Y-126430404D02*
X101687380Y-126430404D01*
X101687380Y-126049452D01*
X101735000Y-125954214D01*
X101782619Y-125906595D01*
X101877857Y-125858976D01*
X102020714Y-125858976D01*
X102115952Y-125906595D01*
X102163571Y-125954214D01*
X102211190Y-126049452D01*
X102211190Y-126430404D01*
X102782619Y-124763738D02*
X102735000Y-124858976D01*
X102639761Y-124954214D01*
X102496904Y-125097071D01*
X102449285Y-125192309D01*
X102449285Y-125287547D01*
X102687380Y-125239928D02*
X102639761Y-125335166D01*
X102544523Y-125430404D01*
X102354047Y-125478023D01*
X102020714Y-125478023D01*
X101830238Y-125430404D01*
X101735000Y-125335166D01*
X101687380Y-125239928D01*
X101687380Y-125049452D01*
X101735000Y-124954214D01*
X101830238Y-124858976D01*
X102020714Y-124811357D01*
X102354047Y-124811357D01*
X102544523Y-124858976D01*
X102639761Y-124954214D01*
X102687380Y-125049452D01*
X102687380Y-125239928D01*
X101687380Y-124478023D02*
X101687380Y-123811357D01*
X102687380Y-124239928D01*
X105132142Y-125668500D02*
X105179761Y-125716119D01*
X105227380Y-125858976D01*
X105227380Y-125954214D01*
X105179761Y-126097071D01*
X105084523Y-126192309D01*
X104989285Y-126239928D01*
X104798809Y-126287547D01*
X104655952Y-126287547D01*
X104465476Y-126239928D01*
X104370238Y-126192309D01*
X104275000Y-126097071D01*
X104227380Y-125954214D01*
X104227380Y-125858976D01*
X104275000Y-125716119D01*
X104322619Y-125668500D01*
X105227380Y-124763738D02*
X105227380Y-125239928D01*
X104227380Y-125239928D01*
X105227380Y-124430404D02*
X104227380Y-124430404D01*
X105227380Y-123858976D02*
X104655952Y-124287547D01*
X104227380Y-123858976D02*
X104798809Y-124430404D01*
X106400000Y-128478023D02*
X106400000Y-127478023D01*
X107767380Y-128239928D02*
X106767380Y-128239928D01*
X106767380Y-128001833D01*
X106815000Y-127858976D01*
X106910238Y-127763738D01*
X107005476Y-127716119D01*
X107195952Y-127668500D01*
X107338809Y-127668500D01*
X107529285Y-127716119D01*
X107624523Y-127763738D01*
X107719761Y-127858976D01*
X107767380Y-128001833D01*
X107767380Y-128239928D01*
X106400000Y-127478023D02*
X106400000Y-126620880D01*
X107481666Y-127287547D02*
X107481666Y-126811357D01*
X107767380Y-127382785D02*
X106767380Y-127049452D01*
X107767380Y-126716119D01*
X106400000Y-126620880D02*
X106400000Y-125620880D01*
X107672142Y-125811357D02*
X107719761Y-125858976D01*
X107767380Y-126001833D01*
X107767380Y-126097071D01*
X107719761Y-126239928D01*
X107624523Y-126335166D01*
X107529285Y-126382785D01*
X107338809Y-126430404D01*
X107195952Y-126430404D01*
X107005476Y-126382785D01*
X106910238Y-126335166D01*
X106815000Y-126239928D01*
X106767380Y-126097071D01*
X106767380Y-126001833D01*
X106815000Y-125858976D01*
X106862619Y-125811357D01*
X106400000Y-125620880D02*
X106400000Y-124620880D01*
X107767380Y-125382785D02*
X106767380Y-125382785D01*
X107767380Y-124811357D02*
X107195952Y-125239928D01*
X106767380Y-124811357D02*
X107338809Y-125382785D01*
X106400000Y-124620880D02*
X106400000Y-123668500D01*
X106767380Y-124192309D02*
X106767380Y-124097071D01*
X106815000Y-124001833D01*
X106862619Y-123954214D01*
X106957857Y-123906595D01*
X107148333Y-123858976D01*
X107386428Y-123858976D01*
X107576904Y-123906595D01*
X107672142Y-123954214D01*
X107719761Y-124001833D01*
X107767380Y-124097071D01*
X107767380Y-124192309D01*
X107719761Y-124287547D01*
X107672142Y-124335166D01*
X107576904Y-124382785D01*
X107386428Y-124430404D01*
X107148333Y-124430404D01*
X106957857Y-124382785D01*
X106862619Y-124335166D01*
X106815000Y-124287547D01*
X106767380Y-124192309D01*
X110307380Y-127430404D02*
X109307380Y-127430404D01*
X109307380Y-127192309D01*
X109355000Y-127049452D01*
X109450238Y-126954214D01*
X109545476Y-126906595D01*
X109735952Y-126858976D01*
X109878809Y-126858976D01*
X110069285Y-126906595D01*
X110164523Y-126954214D01*
X110259761Y-127049452D01*
X110307380Y-127192309D01*
X110307380Y-127430404D01*
X110307380Y-125858976D02*
X109831190Y-126192309D01*
X110307380Y-126430404D02*
X109307380Y-126430404D01*
X109307380Y-126049452D01*
X109355000Y-125954214D01*
X109402619Y-125906595D01*
X109497857Y-125858976D01*
X109640714Y-125858976D01*
X109735952Y-125906595D01*
X109783571Y-125954214D01*
X109831190Y-126049452D01*
X109831190Y-126430404D01*
X110402619Y-124763738D02*
X110355000Y-124858976D01*
X110259761Y-124954214D01*
X110116904Y-125097071D01*
X110069285Y-125192309D01*
X110069285Y-125287547D01*
X110307380Y-125239928D02*
X110259761Y-125335166D01*
X110164523Y-125430404D01*
X109974047Y-125478023D01*
X109640714Y-125478023D01*
X109450238Y-125430404D01*
X109355000Y-125335166D01*
X109307380Y-125239928D01*
X109307380Y-125049452D01*
X109355000Y-124954214D01*
X109450238Y-124858976D01*
X109640714Y-124811357D01*
X109974047Y-124811357D01*
X110164523Y-124858976D01*
X110259761Y-124954214D01*
X110307380Y-125049452D01*
X110307380Y-125239928D01*
X110307380Y-123858976D02*
X110307380Y-124430404D01*
X110307380Y-124144690D02*
X109307380Y-124144690D01*
X109450238Y-124239928D01*
X109545476Y-124335166D01*
X109593095Y-124430404D01*
X111480000Y-128478023D02*
X111480000Y-127478023D01*
X112847380Y-128239928D02*
X111847380Y-128239928D01*
X111847380Y-128001833D01*
X111895000Y-127858976D01*
X111990238Y-127763738D01*
X112085476Y-127716119D01*
X112275952Y-127668500D01*
X112418809Y-127668500D01*
X112609285Y-127716119D01*
X112704523Y-127763738D01*
X112799761Y-127858976D01*
X112847380Y-128001833D01*
X112847380Y-128239928D01*
X111480000Y-127478023D02*
X111480000Y-126620880D01*
X112561666Y-127287547D02*
X112561666Y-126811357D01*
X112847380Y-127382785D02*
X111847380Y-127049452D01*
X112847380Y-126716119D01*
X111480000Y-126620880D02*
X111480000Y-125620880D01*
X112752142Y-125811357D02*
X112799761Y-125858976D01*
X112847380Y-126001833D01*
X112847380Y-126097071D01*
X112799761Y-126239928D01*
X112704523Y-126335166D01*
X112609285Y-126382785D01*
X112418809Y-126430404D01*
X112275952Y-126430404D01*
X112085476Y-126382785D01*
X111990238Y-126335166D01*
X111895000Y-126239928D01*
X111847380Y-126097071D01*
X111847380Y-126001833D01*
X111895000Y-125858976D01*
X111942619Y-125811357D01*
X111480000Y-125620880D02*
X111480000Y-124620880D01*
X112847380Y-125382785D02*
X111847380Y-125382785D01*
X112847380Y-124811357D02*
X112275952Y-125239928D01*
X111847380Y-124811357D02*
X112418809Y-125382785D01*
X111480000Y-124620880D02*
X111480000Y-123668500D01*
X112847380Y-123858976D02*
X112847380Y-124430404D01*
X112847380Y-124144690D02*
X111847380Y-124144690D01*
X111990238Y-124239928D01*
X112085476Y-124335166D01*
X112133095Y-124430404D01*
X115387380Y-127430404D02*
X114387380Y-127430404D01*
X114387380Y-127192309D01*
X114435000Y-127049452D01*
X114530238Y-126954214D01*
X114625476Y-126906595D01*
X114815952Y-126858976D01*
X114958809Y-126858976D01*
X115149285Y-126906595D01*
X115244523Y-126954214D01*
X115339761Y-127049452D01*
X115387380Y-127192309D01*
X115387380Y-127430404D01*
X115387380Y-125858976D02*
X114911190Y-126192309D01*
X115387380Y-126430404D02*
X114387380Y-126430404D01*
X114387380Y-126049452D01*
X114435000Y-125954214D01*
X114482619Y-125906595D01*
X114577857Y-125858976D01*
X114720714Y-125858976D01*
X114815952Y-125906595D01*
X114863571Y-125954214D01*
X114911190Y-126049452D01*
X114911190Y-126430404D01*
X115482619Y-124763738D02*
X115435000Y-124858976D01*
X115339761Y-124954214D01*
X115196904Y-125097071D01*
X115149285Y-125192309D01*
X115149285Y-125287547D01*
X115387380Y-125239928D02*
X115339761Y-125335166D01*
X115244523Y-125430404D01*
X115054047Y-125478023D01*
X114720714Y-125478023D01*
X114530238Y-125430404D01*
X114435000Y-125335166D01*
X114387380Y-125239928D01*
X114387380Y-125049452D01*
X114435000Y-124954214D01*
X114530238Y-124858976D01*
X114720714Y-124811357D01*
X115054047Y-124811357D01*
X115244523Y-124858976D01*
X115339761Y-124954214D01*
X115387380Y-125049452D01*
X115387380Y-125239928D01*
X114387380Y-124478023D02*
X114387380Y-123858976D01*
X114768333Y-124192309D01*
X114768333Y-124049452D01*
X114815952Y-123954214D01*
X114863571Y-123906595D01*
X114958809Y-123858976D01*
X115196904Y-123858976D01*
X115292142Y-123906595D01*
X115339761Y-123954214D01*
X115387380Y-124049452D01*
X115387380Y-124335166D01*
X115339761Y-124430404D01*
X115292142Y-124478023D01*
X116560000Y-128478023D02*
X116560000Y-127478023D01*
X117927380Y-128239928D02*
X116927380Y-128239928D01*
X116927380Y-128001833D01*
X116975000Y-127858976D01*
X117070238Y-127763738D01*
X117165476Y-127716119D01*
X117355952Y-127668500D01*
X117498809Y-127668500D01*
X117689285Y-127716119D01*
X117784523Y-127763738D01*
X117879761Y-127858976D01*
X117927380Y-128001833D01*
X117927380Y-128239928D01*
X116560000Y-127478023D02*
X116560000Y-126620880D01*
X117641666Y-127287547D02*
X117641666Y-126811357D01*
X117927380Y-127382785D02*
X116927380Y-127049452D01*
X117927380Y-126716119D01*
X116560000Y-126620880D02*
X116560000Y-125620880D01*
X117832142Y-125811357D02*
X117879761Y-125858976D01*
X117927380Y-126001833D01*
X117927380Y-126097071D01*
X117879761Y-126239928D01*
X117784523Y-126335166D01*
X117689285Y-126382785D01*
X117498809Y-126430404D01*
X117355952Y-126430404D01*
X117165476Y-126382785D01*
X117070238Y-126335166D01*
X116975000Y-126239928D01*
X116927380Y-126097071D01*
X116927380Y-126001833D01*
X116975000Y-125858976D01*
X117022619Y-125811357D01*
X116560000Y-125620880D02*
X116560000Y-124620880D01*
X117927380Y-125382785D02*
X116927380Y-125382785D01*
X117927380Y-124811357D02*
X117355952Y-125239928D01*
X116927380Y-124811357D02*
X117498809Y-125382785D01*
X116560000Y-124620880D02*
X116560000Y-123668500D01*
X116927380Y-124478023D02*
X116927380Y-123858976D01*
X117308333Y-124192309D01*
X117308333Y-124049452D01*
X117355952Y-123954214D01*
X117403571Y-123906595D01*
X117498809Y-123858976D01*
X117736904Y-123858976D01*
X117832142Y-123906595D01*
X117879761Y-123954214D01*
X117927380Y-124049452D01*
X117927380Y-124335166D01*
X117879761Y-124430404D01*
X117832142Y-124478023D01*
X119100000Y-126192309D02*
X119100000Y-125716119D01*
X120467380Y-125954214D02*
X119467380Y-125954214D01*
X119100000Y-125716119D02*
X119100000Y-124668500D01*
X119467380Y-125287547D02*
X119467380Y-125097071D01*
X119515000Y-125001833D01*
X119610238Y-124906595D01*
X119800714Y-124858976D01*
X120134047Y-124858976D01*
X120324523Y-124906595D01*
X120419761Y-125001833D01*
X120467380Y-125097071D01*
X120467380Y-125287547D01*
X120419761Y-125382785D01*
X120324523Y-125478023D01*
X120134047Y-125525642D01*
X119800714Y-125525642D01*
X119610238Y-125478023D01*
X119515000Y-125382785D01*
X119467380Y-125287547D01*
X119100000Y-124668500D02*
X119100000Y-123668500D01*
X120467380Y-123858976D02*
X119991190Y-124192309D01*
X120467380Y-124430404D02*
X119467380Y-124430404D01*
X119467380Y-124049452D01*
X119515000Y-123954214D01*
X119562619Y-123906595D01*
X119657857Y-123858976D01*
X119800714Y-123858976D01*
X119895952Y-123906595D01*
X119943571Y-123954214D01*
X119991190Y-124049452D01*
X119991190Y-124430404D01*
X121640000Y-126335166D02*
X121640000Y-125858976D01*
X123007380Y-126097071D02*
X122007380Y-126097071D01*
X121640000Y-125858976D02*
X121640000Y-124811357D01*
X122007380Y-125430404D02*
X122007380Y-125239928D01*
X122055000Y-125144690D01*
X122150238Y-125049452D01*
X122340714Y-125001833D01*
X122674047Y-125001833D01*
X122864523Y-125049452D01*
X122959761Y-125144690D01*
X123007380Y-125239928D01*
X123007380Y-125430404D01*
X122959761Y-125525642D01*
X122864523Y-125620880D01*
X122674047Y-125668500D01*
X122340714Y-125668500D01*
X122150238Y-125620880D01*
X122055000Y-125525642D01*
X122007380Y-125430404D01*
X121640000Y-124811357D02*
X121640000Y-123668500D01*
X122007380Y-124668500D02*
X123007380Y-124430404D01*
X122293095Y-124239928D01*
X123007380Y-124049452D01*
X122007380Y-123811357D01*
X124180000Y-127858976D02*
X124180000Y-126716119D01*
X125547380Y-127620880D02*
X124547380Y-127620880D01*
X125261666Y-127287547D01*
X124547380Y-126954214D01*
X125547380Y-126954214D01*
X124180000Y-126716119D02*
X124180000Y-125811357D01*
X125023571Y-126478023D02*
X125023571Y-126144690D01*
X125547380Y-126001833D02*
X125547380Y-126478023D01*
X124547380Y-126478023D01*
X124547380Y-126001833D01*
X124180000Y-125811357D02*
X124180000Y-124668500D01*
X125547380Y-125573261D02*
X124547380Y-125573261D01*
X125261666Y-125239928D01*
X124547380Y-124906595D01*
X125547380Y-124906595D01*
X124180000Y-124668500D02*
X124180000Y-123668500D01*
X125547380Y-123858976D02*
X125071190Y-124192309D01*
X125547380Y-124430404D02*
X124547380Y-124430404D01*
X124547380Y-124049452D01*
X124595000Y-123954214D01*
X124642619Y-123906595D01*
X124737857Y-123858976D01*
X124880714Y-123858976D01*
X124975952Y-123906595D01*
X125023571Y-123954214D01*
X125071190Y-124049452D01*
X125071190Y-124430404D01*
X126720000Y-128001833D02*
X126720000Y-126858976D01*
X128087380Y-127763738D02*
X127087380Y-127763738D01*
X127801666Y-127430404D01*
X127087380Y-127097071D01*
X128087380Y-127097071D01*
X126720000Y-126858976D02*
X126720000Y-125954214D01*
X127563571Y-126620880D02*
X127563571Y-126287547D01*
X128087380Y-126144690D02*
X128087380Y-126620880D01*
X127087380Y-126620880D01*
X127087380Y-126144690D01*
X126720000Y-125954214D02*
X126720000Y-124811357D01*
X128087380Y-125716119D02*
X127087380Y-125716119D01*
X127801666Y-125382785D01*
X127087380Y-125049452D01*
X128087380Y-125049452D01*
X126720000Y-124811357D02*
X126720000Y-123668500D01*
X127087380Y-124668500D02*
X128087380Y-124430404D01*
X127373095Y-124239928D01*
X128087380Y-124049452D01*
X127087380Y-123811357D01*
X135612142Y-129382785D02*
X135659761Y-129430404D01*
X135707380Y-129573261D01*
X135707380Y-129668500D01*
X135659761Y-129811357D01*
X135564523Y-129906595D01*
X135469285Y-129954214D01*
X135278809Y-130001833D01*
X135135952Y-130001833D01*
X134945476Y-129954214D01*
X134850238Y-129906595D01*
X134755000Y-129811357D01*
X134707380Y-129668500D01*
X134707380Y-129573261D01*
X134755000Y-129430404D01*
X134802619Y-129382785D01*
X135421666Y-129001833D02*
X135421666Y-128525642D01*
X135707380Y-129097071D02*
X134707380Y-128763738D01*
X135707380Y-128430404D01*
X135707380Y-127525642D02*
X135231190Y-127858976D01*
X135707380Y-128097071D02*
X134707380Y-128097071D01*
X134707380Y-127716119D01*
X134755000Y-127620880D01*
X134802619Y-127573261D01*
X134897857Y-127525642D01*
X135040714Y-127525642D01*
X135135952Y-127573261D01*
X135183571Y-127620880D01*
X135231190Y-127716119D01*
X135231190Y-128097071D01*
X135707380Y-127097071D02*
X134707380Y-127097071D01*
X134707380Y-126858976D01*
X134755000Y-126716119D01*
X134850238Y-126620880D01*
X134945476Y-126573261D01*
X135135952Y-126525642D01*
X135278809Y-126525642D01*
X135469285Y-126573261D01*
X135564523Y-126620880D01*
X135659761Y-126716119D01*
X135707380Y-126858976D01*
X135707380Y-127097071D01*
X135659761Y-126144690D02*
X135707380Y-126001833D01*
X135707380Y-125763738D01*
X135659761Y-125668500D01*
X135612142Y-125620880D01*
X135516904Y-125573261D01*
X135421666Y-125573261D01*
X135326428Y-125620880D01*
X135278809Y-125668500D01*
X135231190Y-125763738D01*
X135183571Y-125954214D01*
X135135952Y-126049452D01*
X135088333Y-126097071D01*
X134993095Y-126144690D01*
X134897857Y-126144690D01*
X134802619Y-126097071D01*
X134755000Y-126049452D01*
X134707380Y-125954214D01*
X134707380Y-125716119D01*
X134755000Y-125573261D01*
X135183571Y-125144690D02*
X135183571Y-124811357D01*
X135707380Y-124668500D02*
X135707380Y-125144690D01*
X134707380Y-125144690D01*
X134707380Y-124668500D01*
X135707380Y-123763738D02*
X135707380Y-124239928D01*
X134707380Y-124239928D01*
X132786428Y-127430404D02*
X132786428Y-126668500D01*
X133167380Y-127049452D02*
X132405476Y-127049452D01*
X133167380Y-125668500D02*
X133167380Y-126239928D01*
X133167380Y-125954214D02*
X132167380Y-125954214D01*
X132310238Y-126049452D01*
X132405476Y-126144690D01*
X132453095Y-126239928D01*
X132262619Y-125287547D02*
X132215000Y-125239928D01*
X132167380Y-125144690D01*
X132167380Y-124906595D01*
X132215000Y-124811357D01*
X132262619Y-124763738D01*
X132357857Y-124716119D01*
X132453095Y-124716119D01*
X132595952Y-124763738D01*
X133167380Y-125335166D01*
X133167380Y-124716119D01*
X132167380Y-124430404D02*
X133167380Y-124097071D01*
X132167380Y-123763738D01*
X137866428Y-127430404D02*
X137866428Y-126668500D01*
X138247380Y-125668500D02*
X138247380Y-126239928D01*
X138247380Y-125954214D02*
X137247380Y-125954214D01*
X137390238Y-126049452D01*
X137485476Y-126144690D01*
X137533095Y-126239928D01*
X137342619Y-125287547D02*
X137295000Y-125239928D01*
X137247380Y-125144690D01*
X137247380Y-124906595D01*
X137295000Y-124811357D01*
X137342619Y-124763738D01*
X137437857Y-124716119D01*
X137533095Y-124716119D01*
X137675952Y-124763738D01*
X138247380Y-125335166D01*
X138247380Y-124716119D01*
X137247380Y-124430404D02*
X138247380Y-124097071D01*
X137247380Y-123763738D01*
X86574380Y-125335166D02*
X86574380Y-124763738D01*
X87574380Y-125049452D02*
X86574380Y-125049452D01*
X87479142Y-123858976D02*
X87526761Y-123906595D01*
X87574380Y-124049452D01*
X87574380Y-124144690D01*
X87526761Y-124287547D01*
X87431523Y-124382785D01*
X87336285Y-124430404D01*
X87145809Y-124478023D01*
X87002952Y-124478023D01*
X86812476Y-124430404D01*
X86717238Y-124382785D01*
X86622000Y-124287547D01*
X86574380Y-124144690D01*
X86574380Y-124049452D01*
X86622000Y-123906595D01*
X86669619Y-123858976D01*
X84621666Y-126049452D02*
X84621666Y-125573261D01*
X84907380Y-126144690D02*
X83907380Y-125811357D01*
X84907380Y-125478023D01*
X84907380Y-124668500D02*
X84907380Y-125144690D01*
X83907380Y-125144690D01*
X84383571Y-124335166D02*
X84383571Y-124001833D01*
X84907380Y-123858976D02*
X84907380Y-124335166D01*
X83907380Y-124335166D01*
X83907380Y-123858976D01*
X78827380Y-126239928D02*
X78827380Y-126049452D01*
X78875000Y-125954214D01*
X78970238Y-125858976D01*
X79160714Y-125811357D01*
X79494047Y-125811357D01*
X79684523Y-125858976D01*
X79779761Y-125954214D01*
X79827380Y-126049452D01*
X79827380Y-126239928D01*
X79779761Y-126335166D01*
X79684523Y-126430404D01*
X79494047Y-126478023D01*
X79160714Y-126478023D01*
X78970238Y-126430404D01*
X78875000Y-126335166D01*
X78827380Y-126239928D01*
X79779761Y-125430404D02*
X79827380Y-125287547D01*
X79827380Y-125049452D01*
X79779761Y-124954214D01*
X79732142Y-124906595D01*
X79636904Y-124858976D01*
X79541666Y-124858976D01*
X79446428Y-124906595D01*
X79398809Y-124954214D01*
X79351190Y-125049452D01*
X79303571Y-125239928D01*
X79255952Y-125335166D01*
X79208333Y-125382785D01*
X79113095Y-125430404D01*
X79017857Y-125430404D01*
X78922619Y-125382785D01*
X78875000Y-125335166D01*
X78827380Y-125239928D01*
X78827380Y-125001833D01*
X78875000Y-124858976D01*
X79732142Y-123858976D02*
X79779761Y-123906595D01*
X79827380Y-124049452D01*
X79827380Y-124144690D01*
X79779761Y-124287547D01*
X79684523Y-124382785D01*
X79589285Y-124430404D01*
X79398809Y-124478023D01*
X79255952Y-124478023D01*
X79065476Y-124430404D01*
X78970238Y-124382785D01*
X78875000Y-124287547D01*
X78827380Y-124144690D01*
X78827380Y-124049452D01*
X78875000Y-123906595D01*
X78922619Y-123858976D01*
X76335000Y-125954214D02*
X76287380Y-126049452D01*
X76287380Y-126192309D01*
X76335000Y-126335166D01*
X76430238Y-126430404D01*
X76525476Y-126478023D01*
X76715952Y-126525642D01*
X76858809Y-126525642D01*
X77049285Y-126478023D01*
X77144523Y-126430404D01*
X77239761Y-126335166D01*
X77287380Y-126192309D01*
X77287380Y-126097071D01*
X77239761Y-125954214D01*
X77192142Y-125906595D01*
X76858809Y-125906595D01*
X76858809Y-126097071D01*
X77287380Y-125478023D02*
X76287380Y-125478023D01*
X77287380Y-124906595D01*
X76287380Y-124906595D01*
X77287380Y-124430404D02*
X76287380Y-124430404D01*
X76287380Y-124192309D01*
X76335000Y-124049452D01*
X76430238Y-123954214D01*
X76525476Y-123906595D01*
X76715952Y-123858976D01*
X76858809Y-123858976D01*
X77049285Y-123906595D01*
X77144523Y-123954214D01*
X77239761Y-124049452D01*
X77287380Y-124192309D01*
X77287380Y-124430404D01*
X129675000Y-125954214D02*
X129627380Y-126049452D01*
X129627380Y-126192309D01*
X129675000Y-126335166D01*
X129770238Y-126430404D01*
X129865476Y-126478023D01*
X130055952Y-126525642D01*
X130198809Y-126525642D01*
X130389285Y-126478023D01*
X130484523Y-126430404D01*
X130579761Y-126335166D01*
X130627380Y-126192309D01*
X130627380Y-126097071D01*
X130579761Y-125954214D01*
X130532142Y-125906595D01*
X130198809Y-125906595D01*
X130198809Y-126097071D01*
X130627380Y-125478023D02*
X129627380Y-125478023D01*
X130627380Y-124906595D01*
X129627380Y-124906595D01*
X130627380Y-124430404D02*
X129627380Y-124430404D01*
X129627380Y-124192309D01*
X129675000Y-124049452D01*
X129770238Y-123954214D01*
X129865476Y-123906595D01*
X130055952Y-123858976D01*
X130198809Y-123858976D01*
X130389285Y-123906595D01*
X130484523Y-123954214D01*
X130579761Y-124049452D01*
X130627380Y-124192309D01*
X130627380Y-124430404D01*
X140787380Y-127430404D02*
X139787380Y-127430404D01*
X139787380Y-127192309D01*
X139835000Y-127049452D01*
X139930238Y-126954214D01*
X140025476Y-126906595D01*
X140215952Y-126858976D01*
X140358809Y-126858976D01*
X140549285Y-126906595D01*
X140644523Y-126954214D01*
X140739761Y-127049452D01*
X140787380Y-127192309D01*
X140787380Y-127430404D01*
X140787380Y-125858976D02*
X140311190Y-126192309D01*
X140787380Y-126430404D02*
X139787380Y-126430404D01*
X139787380Y-126049452D01*
X139835000Y-125954214D01*
X139882619Y-125906595D01*
X139977857Y-125858976D01*
X140120714Y-125858976D01*
X140215952Y-125906595D01*
X140263571Y-125954214D01*
X140311190Y-126049452D01*
X140311190Y-126430404D01*
X140882619Y-124763738D02*
X140835000Y-124858976D01*
X140739761Y-124954214D01*
X140596904Y-125097071D01*
X140549285Y-125192309D01*
X140549285Y-125287547D01*
X140787380Y-125239928D02*
X140739761Y-125335166D01*
X140644523Y-125430404D01*
X140454047Y-125478023D01*
X140120714Y-125478023D01*
X139930238Y-125430404D01*
X139835000Y-125335166D01*
X139787380Y-125239928D01*
X139787380Y-125049452D01*
X139835000Y-124954214D01*
X139930238Y-124858976D01*
X140120714Y-124811357D01*
X140454047Y-124811357D01*
X140644523Y-124858976D01*
X140739761Y-124954214D01*
X140787380Y-125049452D01*
X140787380Y-125239928D01*
X139882619Y-124430404D02*
X139835000Y-124382785D01*
X139787380Y-124287547D01*
X139787380Y-124049452D01*
X139835000Y-123954214D01*
X139882619Y-123906595D01*
X139977857Y-123858976D01*
X140073095Y-123858976D01*
X140215952Y-123906595D01*
X140787380Y-124478023D01*
X140787380Y-123858976D01*
X145867380Y-126906595D02*
X144867380Y-126906595D01*
X145867380Y-125858976D02*
X145391190Y-126192309D01*
X145867380Y-126430404D02*
X144867380Y-126430404D01*
X144867380Y-126049452D01*
X144915000Y-125954214D01*
X144962619Y-125906595D01*
X145057857Y-125858976D01*
X145200714Y-125858976D01*
X145295952Y-125906595D01*
X145343571Y-125954214D01*
X145391190Y-126049452D01*
X145391190Y-126430404D01*
X145962619Y-124763738D02*
X145915000Y-124858976D01*
X145819761Y-124954214D01*
X145676904Y-125097071D01*
X145629285Y-125192309D01*
X145629285Y-125287547D01*
X145867380Y-125239928D02*
X145819761Y-125335166D01*
X145724523Y-125430404D01*
X145534047Y-125478023D01*
X145200714Y-125478023D01*
X145010238Y-125430404D01*
X144915000Y-125335166D01*
X144867380Y-125239928D01*
X144867380Y-125049452D01*
X144915000Y-124954214D01*
X145010238Y-124858976D01*
X145200714Y-124811357D01*
X145534047Y-124811357D01*
X145724523Y-124858976D01*
X145819761Y-124954214D01*
X145867380Y-125049452D01*
X145867380Y-125239928D01*
X144962619Y-124430404D02*
X144915000Y-124382785D01*
X144867380Y-124287547D01*
X144867380Y-124049452D01*
X144915000Y-123954214D01*
X144962619Y-123906595D01*
X145057857Y-123858976D01*
X145153095Y-123858976D01*
X145295952Y-123906595D01*
X145867380Y-124478023D01*
X145867380Y-123858976D01*
X142946428Y-126478023D02*
X142946428Y-125716119D01*
X142327380Y-124763738D02*
X142327380Y-125239928D01*
X142803571Y-125287547D01*
X142755952Y-125239928D01*
X142708333Y-125144690D01*
X142708333Y-124906595D01*
X142755952Y-124811357D01*
X142803571Y-124763738D01*
X142898809Y-124716119D01*
X143136904Y-124716119D01*
X143232142Y-124763738D01*
X143279761Y-124811357D01*
X143327380Y-124906595D01*
X143327380Y-125144690D01*
X143279761Y-125239928D01*
X143232142Y-125287547D01*
X142327380Y-124430404D02*
X143327380Y-124097071D01*
X142327380Y-123763738D01*
X148026428Y-126478023D02*
X148026428Y-125716119D01*
X148407380Y-126097071D02*
X147645476Y-126097071D01*
X147407380Y-124763738D02*
X147407380Y-125239928D01*
X147883571Y-125287547D01*
X147835952Y-125239928D01*
X147788333Y-125144690D01*
X147788333Y-124906595D01*
X147835952Y-124811357D01*
X147883571Y-124763738D01*
X147978809Y-124716119D01*
X148216904Y-124716119D01*
X148312142Y-124763738D01*
X148359761Y-124811357D01*
X148407380Y-124906595D01*
X148407380Y-125144690D01*
X148359761Y-125239928D01*
X148312142Y-125287547D01*
X147407380Y-124430404D02*
X148407380Y-124097071D01*
X147407380Y-123763738D01*
X150947380Y-126954214D02*
X150471190Y-127287547D01*
X150947380Y-127525642D02*
X149947380Y-127525642D01*
X149947380Y-127144690D01*
X149995000Y-127049452D01*
X150042619Y-127001833D01*
X150137857Y-126954214D01*
X150280714Y-126954214D01*
X150375952Y-127001833D01*
X150423571Y-127049452D01*
X150471190Y-127144690D01*
X150471190Y-127525642D01*
X150899761Y-126144690D02*
X150947380Y-126239928D01*
X150947380Y-126430404D01*
X150899761Y-126525642D01*
X150804523Y-126573261D01*
X150423571Y-126573261D01*
X150328333Y-126525642D01*
X150280714Y-126430404D01*
X150280714Y-126239928D01*
X150328333Y-126144690D01*
X150423571Y-126097071D01*
X150518809Y-126097071D01*
X150614047Y-126573261D01*
X150899761Y-125716119D02*
X150947380Y-125620880D01*
X150947380Y-125430404D01*
X150899761Y-125335166D01*
X150804523Y-125287547D01*
X150756904Y-125287547D01*
X150661666Y-125335166D01*
X150614047Y-125430404D01*
X150614047Y-125573261D01*
X150566428Y-125668500D01*
X150471190Y-125716119D01*
X150423571Y-125716119D01*
X150328333Y-125668500D01*
X150280714Y-125573261D01*
X150280714Y-125430404D01*
X150328333Y-125335166D01*
X150899761Y-124478023D02*
X150947380Y-124573261D01*
X150947380Y-124763738D01*
X150899761Y-124858976D01*
X150804523Y-124906595D01*
X150423571Y-124906595D01*
X150328333Y-124858976D01*
X150280714Y-124763738D01*
X150280714Y-124573261D01*
X150328333Y-124478023D01*
X150423571Y-124430404D01*
X150518809Y-124430404D01*
X150614047Y-124906595D01*
X150280714Y-124144690D02*
X150280714Y-123763738D01*
X149947380Y-124001833D02*
X150804523Y-124001833D01*
X150899761Y-123954214D01*
X150947380Y-123858976D01*
X150947380Y-123763738D01*
X152535000Y-125954214D02*
X152487380Y-126049452D01*
X152487380Y-126192309D01*
X152535000Y-126335166D01*
X152630238Y-126430404D01*
X152725476Y-126478023D01*
X152915952Y-126525642D01*
X153058809Y-126525642D01*
X153249285Y-126478023D01*
X153344523Y-126430404D01*
X153439761Y-126335166D01*
X153487380Y-126192309D01*
X153487380Y-126097071D01*
X153439761Y-125954214D01*
X153392142Y-125906595D01*
X153058809Y-125906595D01*
X153058809Y-126097071D01*
X153487380Y-125478023D02*
X152487380Y-125478023D01*
X153487380Y-124906595D01*
X152487380Y-124906595D01*
X153487380Y-124430404D02*
X152487380Y-124430404D01*
X152487380Y-124192309D01*
X152535000Y-124049452D01*
X152630238Y-123954214D01*
X152725476Y-123906595D01*
X152915952Y-123858976D01*
X153058809Y-123858976D01*
X153249285Y-123906595D01*
X153344523Y-123954214D01*
X153439761Y-124049452D01*
X153487380Y-124192309D01*
X153487380Y-124430404D01*
D14*
X82490000Y-69790000D02*
X83820000Y-69790000D01*
X82490000Y-71120000D02*
X82490000Y-69790000D01*
X82490000Y-72390000D02*
X85150000Y-72390000D01*
X85150000Y-72390000D02*
X85150000Y-77530000D01*
X82490000Y-72390000D02*
X82490000Y-77530000D01*
X82490000Y-77530000D02*
X85150000Y-77530000D01*
X86300000Y-69790000D02*
X87630000Y-69790000D01*
X86300000Y-71120000D02*
X86300000Y-69790000D01*
X86300000Y-72390000D02*
X88960000Y-72390000D01*
X88960000Y-72390000D02*
X88960000Y-74990000D01*
X86300000Y-72390000D02*
X86300000Y-74990000D01*
X86300000Y-74990000D02*
X88960000Y-74990000D01*
X143570000Y-95360000D02*
X143570000Y-93710000D01*
X123130000Y-95360000D02*
X143570000Y-95360000D01*
X123130000Y-90060000D02*
X123130000Y-95360000D01*
X143570000Y-90060000D02*
X123130000Y-90060000D01*
X143570000Y-91710000D02*
X143570000Y-90060000D01*
X143570000Y-93710000D02*
G75*
G02X143570000Y-91710000I0J1000000D01*
G01*
X110275000Y-98095000D02*
X110340000Y-98095000D01*
X108100000Y-98095000D02*
X108165000Y-98095000D01*
X110275000Y-101335000D02*
X110340000Y-101335000D01*
X108100000Y-101335000D02*
X108165000Y-101335000D01*
X110340000Y-101335000D02*
X110340000Y-98095000D01*
X108100000Y-101335000D02*
X108100000Y-98095000D01*
X150060199Y-112270000D02*
X150060199Y-112670000D01*
X149860199Y-112470000D02*
X150260199Y-112470000D01*
X154211000Y-113295000D02*
X154211000Y-114035000D01*
X154171000Y-113128000D02*
X154171000Y-114202000D01*
X154131000Y-113001000D02*
X154131000Y-114329000D01*
X154091000Y-112897000D02*
X154091000Y-114433000D01*
X154051000Y-112806000D02*
X154051000Y-114524000D01*
X154011000Y-112725000D02*
X154011000Y-114605000D01*
X153971000Y-112652000D02*
X153971000Y-114678000D01*
X153931000Y-114505000D02*
X153931000Y-114745000D01*
X153931000Y-112585000D02*
X153931000Y-112825000D01*
X153891000Y-114505000D02*
X153891000Y-114807000D01*
X153891000Y-112523000D02*
X153891000Y-112825000D01*
X153851000Y-114505000D02*
X153851000Y-114865000D01*
X153851000Y-112465000D02*
X153851000Y-112825000D01*
X153811000Y-114505000D02*
X153811000Y-114919000D01*
X153811000Y-112411000D02*
X153811000Y-112825000D01*
X153771000Y-114505000D02*
X153771000Y-114969000D01*
X153771000Y-112361000D02*
X153771000Y-112825000D01*
X153731000Y-114505000D02*
X153731000Y-115016000D01*
X153731000Y-112314000D02*
X153731000Y-112825000D01*
X153691000Y-114505000D02*
X153691000Y-115061000D01*
X153691000Y-112269000D02*
X153691000Y-112825000D01*
X153651000Y-114505000D02*
X153651000Y-115103000D01*
X153651000Y-112227000D02*
X153651000Y-112825000D01*
X153611000Y-114505000D02*
X153611000Y-115143000D01*
X153611000Y-112187000D02*
X153611000Y-112825000D01*
X153571000Y-114505000D02*
X153571000Y-115181000D01*
X153571000Y-112149000D02*
X153571000Y-112825000D01*
X153531000Y-114505000D02*
X153531000Y-115217000D01*
X153531000Y-112113000D02*
X153531000Y-112825000D01*
X153491000Y-114505000D02*
X153491000Y-115252000D01*
X153491000Y-112078000D02*
X153491000Y-112825000D01*
X153451000Y-114505000D02*
X153451000Y-115284000D01*
X153451000Y-112046000D02*
X153451000Y-112825000D01*
X153411000Y-114505000D02*
X153411000Y-115315000D01*
X153411000Y-112015000D02*
X153411000Y-112825000D01*
X153371000Y-114505000D02*
X153371000Y-115345000D01*
X153371000Y-111985000D02*
X153371000Y-112825000D01*
X153331000Y-114505000D02*
X153331000Y-115373000D01*
X153331000Y-111957000D02*
X153331000Y-112825000D01*
X153291000Y-114505000D02*
X153291000Y-115400000D01*
X153291000Y-111930000D02*
X153291000Y-112825000D01*
X153251000Y-114505000D02*
X153251000Y-115425000D01*
X153251000Y-111905000D02*
X153251000Y-112825000D01*
X153211000Y-114505000D02*
X153211000Y-115450000D01*
X153211000Y-111880000D02*
X153211000Y-112825000D01*
X153171000Y-114505000D02*
X153171000Y-115473000D01*
X153171000Y-111857000D02*
X153171000Y-112825000D01*
X153131000Y-114505000D02*
X153131000Y-115495000D01*
X153131000Y-111835000D02*
X153131000Y-112825000D01*
X153091000Y-114505000D02*
X153091000Y-115516000D01*
X153091000Y-111814000D02*
X153091000Y-112825000D01*
X153051000Y-114505000D02*
X153051000Y-115535000D01*
X153051000Y-111795000D02*
X153051000Y-112825000D01*
X153011000Y-114505000D02*
X153011000Y-115554000D01*
X153011000Y-111776000D02*
X153011000Y-112825000D01*
X152971000Y-114505000D02*
X152971000Y-115572000D01*
X152971000Y-111758000D02*
X152971000Y-112825000D01*
X152931000Y-114505000D02*
X152931000Y-115589000D01*
X152931000Y-111741000D02*
X152931000Y-112825000D01*
X152891000Y-114505000D02*
X152891000Y-115605000D01*
X152891000Y-111725000D02*
X152891000Y-112825000D01*
X152851000Y-114505000D02*
X152851000Y-115619000D01*
X152851000Y-111711000D02*
X152851000Y-112825000D01*
X152810000Y-114505000D02*
X152810000Y-115633000D01*
X152810000Y-111697000D02*
X152810000Y-112825000D01*
X152770000Y-114505000D02*
X152770000Y-115647000D01*
X152770000Y-111683000D02*
X152770000Y-112825000D01*
X152730000Y-114505000D02*
X152730000Y-115659000D01*
X152730000Y-111671000D02*
X152730000Y-112825000D01*
X152690000Y-114505000D02*
X152690000Y-115670000D01*
X152690000Y-111660000D02*
X152690000Y-112825000D01*
X152650000Y-114505000D02*
X152650000Y-115681000D01*
X152650000Y-111649000D02*
X152650000Y-112825000D01*
X152610000Y-114505000D02*
X152610000Y-115690000D01*
X152610000Y-111640000D02*
X152610000Y-112825000D01*
X152570000Y-114505000D02*
X152570000Y-115699000D01*
X152570000Y-111631000D02*
X152570000Y-112825000D01*
X152530000Y-114505000D02*
X152530000Y-115707000D01*
X152530000Y-111623000D02*
X152530000Y-112825000D01*
X152490000Y-114505000D02*
X152490000Y-115715000D01*
X152490000Y-111615000D02*
X152490000Y-112825000D01*
X152450000Y-114505000D02*
X152450000Y-115721000D01*
X152450000Y-111609000D02*
X152450000Y-112825000D01*
X152410000Y-114505000D02*
X152410000Y-115727000D01*
X152410000Y-111603000D02*
X152410000Y-112825000D01*
X152370000Y-114505000D02*
X152370000Y-115732000D01*
X152370000Y-111598000D02*
X152370000Y-112825000D01*
X152330000Y-114505000D02*
X152330000Y-115736000D01*
X152330000Y-111594000D02*
X152330000Y-112825000D01*
X152290000Y-111591000D02*
X152290000Y-115739000D01*
X152250000Y-111588000D02*
X152250000Y-115742000D01*
X152210000Y-111586000D02*
X152210000Y-115744000D01*
X152170000Y-111585000D02*
X152170000Y-115745000D01*
X152130000Y-111585000D02*
X152130000Y-115745000D01*
X154250000Y-113665000D02*
G75*
G03X154250000Y-113665000I-2120000J0D01*
G01*
X71405000Y-74945000D02*
X71405000Y-71105000D01*
X69565000Y-74945000D02*
X69565000Y-71105000D01*
X65060000Y-72580000D02*
X65060000Y-72424000D01*
X65060000Y-74896000D02*
X65060000Y-74740000D01*
X62458870Y-72580163D02*
G75*
G02X64540961Y-72580000I1041130J-1079837D01*
G01*
X62458870Y-74739837D02*
G75*
G03X64540961Y-74740000I1041130J1079837D01*
G01*
X61827665Y-72581392D02*
G75*
G02X65060000Y-72424484I1672335J-1078608D01*
G01*
X61827665Y-74738608D02*
G75*
G03X65060000Y-74895516I1672335J1078608D01*
G01*
X125603000Y-78317333D02*
X124333000Y-78317333D01*
X124403000Y-76964000D02*
X124403000Y-78317333D01*
X124523000Y-76964000D02*
X124523000Y-78317333D01*
X124643000Y-76964000D02*
X124643000Y-78317333D01*
X124763000Y-76964000D02*
X124763000Y-78317333D01*
X124883000Y-76964000D02*
X124883000Y-78317333D01*
X125003000Y-76964000D02*
X125003000Y-78317333D01*
X125123000Y-76964000D02*
X125123000Y-78317333D01*
X125243000Y-76964000D02*
X125243000Y-78317333D01*
X125363000Y-76964000D02*
X125363000Y-78317333D01*
X125483000Y-76964000D02*
X125483000Y-78317333D01*
X125603000Y-81024000D02*
X125603000Y-76964000D01*
X124333000Y-81024000D02*
X125603000Y-81024000D01*
X124333000Y-76964000D02*
X124333000Y-81024000D01*
X125603000Y-76964000D02*
X124333000Y-76964000D01*
X128143000Y-78317333D02*
X126873000Y-78317333D01*
X126943000Y-76964000D02*
X126943000Y-78317333D01*
X127063000Y-76964000D02*
X127063000Y-78317333D01*
X127183000Y-76964000D02*
X127183000Y-78317333D01*
X127303000Y-76964000D02*
X127303000Y-78317333D01*
X127423000Y-76964000D02*
X127423000Y-78317333D01*
X127543000Y-76964000D02*
X127543000Y-78317333D01*
X127663000Y-76964000D02*
X127663000Y-78317333D01*
X127783000Y-76964000D02*
X127783000Y-78317333D01*
X127903000Y-76964000D02*
X127903000Y-78317333D01*
X128023000Y-76964000D02*
X128023000Y-78317333D01*
X128143000Y-81024000D02*
X128143000Y-76964000D01*
X126873000Y-81024000D02*
X128143000Y-81024000D01*
X126873000Y-76964000D02*
X126873000Y-81024000D01*
X128143000Y-76964000D02*
X126873000Y-76964000D01*
X130683000Y-78317333D02*
X129413000Y-78317333D01*
X129483000Y-76964000D02*
X129483000Y-78317333D01*
X129603000Y-76964000D02*
X129603000Y-78317333D01*
X129723000Y-76964000D02*
X129723000Y-78317333D01*
X129843000Y-76964000D02*
X129843000Y-78317333D01*
X129963000Y-76964000D02*
X129963000Y-78317333D01*
X130083000Y-76964000D02*
X130083000Y-78317333D01*
X130203000Y-76964000D02*
X130203000Y-78317333D01*
X130323000Y-76964000D02*
X130323000Y-78317333D01*
X130443000Y-76964000D02*
X130443000Y-78317333D01*
X130563000Y-76964000D02*
X130563000Y-78317333D01*
X130683000Y-81024000D02*
X130683000Y-76964000D01*
X129413000Y-81024000D02*
X130683000Y-81024000D01*
X129413000Y-76964000D02*
X129413000Y-81024000D01*
X130683000Y-76964000D02*
X129413000Y-76964000D01*
X133223000Y-78317333D02*
X131953000Y-78317333D01*
X132023000Y-76964000D02*
X132023000Y-78317333D01*
X132143000Y-76964000D02*
X132143000Y-78317333D01*
X132263000Y-76964000D02*
X132263000Y-78317333D01*
X132383000Y-76964000D02*
X132383000Y-78317333D01*
X132503000Y-76964000D02*
X132503000Y-78317333D01*
X132623000Y-76964000D02*
X132623000Y-78317333D01*
X132743000Y-76964000D02*
X132743000Y-78317333D01*
X132863000Y-76964000D02*
X132863000Y-78317333D01*
X132983000Y-76964000D02*
X132983000Y-78317333D01*
X133103000Y-76964000D02*
X133103000Y-78317333D01*
X133223000Y-81024000D02*
X133223000Y-76964000D01*
X131953000Y-81024000D02*
X133223000Y-81024000D01*
X131953000Y-76964000D02*
X131953000Y-81024000D01*
X133223000Y-76964000D02*
X131953000Y-76964000D01*
X135763000Y-78317333D02*
X134493000Y-78317333D01*
X134563000Y-76964000D02*
X134563000Y-78317333D01*
X134683000Y-76964000D02*
X134683000Y-78317333D01*
X134803000Y-76964000D02*
X134803000Y-78317333D01*
X134923000Y-76964000D02*
X134923000Y-78317333D01*
X135043000Y-76964000D02*
X135043000Y-78317333D01*
X135163000Y-76964000D02*
X135163000Y-78317333D01*
X135283000Y-76964000D02*
X135283000Y-78317333D01*
X135403000Y-76964000D02*
X135403000Y-78317333D01*
X135523000Y-76964000D02*
X135523000Y-78317333D01*
X135643000Y-76964000D02*
X135643000Y-78317333D01*
X135763000Y-81024000D02*
X135763000Y-76964000D01*
X134493000Y-81024000D02*
X135763000Y-81024000D01*
X134493000Y-76964000D02*
X134493000Y-81024000D01*
X135763000Y-76964000D02*
X134493000Y-76964000D01*
X138303000Y-78317333D02*
X137033000Y-78317333D01*
X137103000Y-76964000D02*
X137103000Y-78317333D01*
X137223000Y-76964000D02*
X137223000Y-78317333D01*
X137343000Y-76964000D02*
X137343000Y-78317333D01*
X137463000Y-76964000D02*
X137463000Y-78317333D01*
X137583000Y-76964000D02*
X137583000Y-78317333D01*
X137703000Y-76964000D02*
X137703000Y-78317333D01*
X137823000Y-76964000D02*
X137823000Y-78317333D01*
X137943000Y-76964000D02*
X137943000Y-78317333D01*
X138063000Y-76964000D02*
X138063000Y-78317333D01*
X138183000Y-76964000D02*
X138183000Y-78317333D01*
X138303000Y-81024000D02*
X138303000Y-76964000D01*
X137033000Y-81024000D02*
X138303000Y-81024000D01*
X137033000Y-76964000D02*
X137033000Y-81024000D01*
X138303000Y-76964000D02*
X137033000Y-76964000D01*
X140843000Y-78317333D02*
X139573000Y-78317333D01*
X139643000Y-76964000D02*
X139643000Y-78317333D01*
X139763000Y-76964000D02*
X139763000Y-78317333D01*
X139883000Y-76964000D02*
X139883000Y-78317333D01*
X140003000Y-76964000D02*
X140003000Y-78317333D01*
X140123000Y-76964000D02*
X140123000Y-78317333D01*
X140243000Y-76964000D02*
X140243000Y-78317333D01*
X140363000Y-76964000D02*
X140363000Y-78317333D01*
X140483000Y-76964000D02*
X140483000Y-78317333D01*
X140603000Y-76964000D02*
X140603000Y-78317333D01*
X140723000Y-76964000D02*
X140723000Y-78317333D01*
X140843000Y-81024000D02*
X140843000Y-76964000D01*
X139573000Y-81024000D02*
X140843000Y-81024000D01*
X139573000Y-76964000D02*
X139573000Y-81024000D01*
X140843000Y-76964000D02*
X139573000Y-76964000D01*
X143383000Y-78317333D02*
X142113000Y-78317333D01*
X142183000Y-76964000D02*
X142183000Y-78317333D01*
X142303000Y-76964000D02*
X142303000Y-78317333D01*
X142423000Y-76964000D02*
X142423000Y-78317333D01*
X142543000Y-76964000D02*
X142543000Y-78317333D01*
X142663000Y-76964000D02*
X142663000Y-78317333D01*
X142783000Y-76964000D02*
X142783000Y-78317333D01*
X142903000Y-76964000D02*
X142903000Y-78317333D01*
X143023000Y-76964000D02*
X143023000Y-78317333D01*
X143143000Y-76964000D02*
X143143000Y-78317333D01*
X143263000Y-76964000D02*
X143263000Y-78317333D01*
X143383000Y-81024000D02*
X143383000Y-76964000D01*
X142113000Y-81024000D02*
X143383000Y-81024000D01*
X142113000Y-76964000D02*
X142113000Y-81024000D01*
X143383000Y-76964000D02*
X142113000Y-76964000D01*
X145408000Y-73804000D02*
X144025000Y-73804000D01*
X145408000Y-73804000D02*
X145408000Y-75188000D01*
X145168000Y-83944000D02*
X122547000Y-83944000D01*
X145168000Y-74044000D02*
X122547000Y-74044000D01*
X122547000Y-74044000D02*
X122547000Y-83944000D01*
X145168000Y-74044000D02*
X145168000Y-83944000D01*
X86166000Y-86216000D02*
X86166000Y-84566000D01*
X68266000Y-86216000D02*
X86166000Y-86216000D01*
X68266000Y-80916000D02*
X68266000Y-86216000D01*
X86166000Y-80916000D02*
X68266000Y-80916000D01*
X86166000Y-82566000D02*
X86166000Y-80916000D01*
X86166000Y-84566000D02*
G75*
G02X86166000Y-82566000I0J1000000D01*
G01*
X111566000Y-86216000D02*
X111566000Y-84566000D01*
X93666000Y-86216000D02*
X111566000Y-86216000D01*
X93666000Y-80916000D02*
X93666000Y-86216000D01*
X111566000Y-80916000D02*
X93666000Y-80916000D01*
X111566000Y-82566000D02*
X111566000Y-80916000D01*
X111566000Y-84566000D02*
G75*
G02X111566000Y-82566000I0J1000000D01*
G01*
X147634000Y-110092000D02*
X147634000Y-108442000D01*
X122114000Y-110092000D02*
X147634000Y-110092000D01*
X122114000Y-104792000D02*
X122114000Y-110092000D01*
X147634000Y-104792000D02*
X122114000Y-104792000D01*
X147634000Y-106442000D02*
X147634000Y-104792000D01*
X147634000Y-108442000D02*
G75*
G02X147634000Y-106442000I0J1000000D01*
G01*
X105978000Y-110600000D02*
X105978000Y-105140000D01*
X65218000Y-110600000D02*
X105978000Y-110600000D01*
X65218000Y-97680000D02*
X65218000Y-110600000D01*
X105978000Y-97680000D02*
X65218000Y-97680000D01*
X105978000Y-103140000D02*
X105978000Y-97680000D01*
X105978000Y-105140000D02*
G75*
G02X105978000Y-103140000I0J1000000D01*
G01*
X125095000Y-68704000D02*
X125095000Y-71504000D01*
X145585000Y-68704000D02*
X122385000Y-68704000D01*
X145585000Y-71504000D02*
X145585000Y-68704000D01*
X122385000Y-71504000D02*
X145585000Y-71504000D01*
X122385000Y-68704000D02*
X122385000Y-71504000D01*
X72105000Y-71105000D02*
X72105000Y-74945000D01*
X73945000Y-71105000D02*
X73945000Y-74945000D01*
X81340000Y-74990000D02*
X80010000Y-74990000D01*
X81340000Y-73660000D02*
X81340000Y-74990000D01*
X81340000Y-72390000D02*
X78680000Y-72390000D01*
X78680000Y-72390000D02*
X78680000Y-69790000D01*
X81340000Y-72390000D02*
X81340000Y-69790000D01*
X81340000Y-69790000D02*
X78680000Y-69790000D01*
X61795199Y-117350000D02*
X61795199Y-117750000D01*
X61595199Y-117550000D02*
X61995199Y-117550000D01*
X65946000Y-118375000D02*
X65946000Y-119115000D01*
X65906000Y-118208000D02*
X65906000Y-119282000D01*
X65866000Y-118081000D02*
X65866000Y-119409000D01*
X65826000Y-117977000D02*
X65826000Y-119513000D01*
X65786000Y-117886000D02*
X65786000Y-119604000D01*
X65746000Y-117805000D02*
X65746000Y-119685000D01*
X65706000Y-117732000D02*
X65706000Y-119758000D01*
X65666000Y-119585000D02*
X65666000Y-119825000D01*
X65666000Y-117665000D02*
X65666000Y-117905000D01*
X65626000Y-119585000D02*
X65626000Y-119887000D01*
X65626000Y-117603000D02*
X65626000Y-117905000D01*
X65586000Y-119585000D02*
X65586000Y-119945000D01*
X65586000Y-117545000D02*
X65586000Y-117905000D01*
X65546000Y-119585000D02*
X65546000Y-119999000D01*
X65546000Y-117491000D02*
X65546000Y-117905000D01*
X65506000Y-119585000D02*
X65506000Y-120049000D01*
X65506000Y-117441000D02*
X65506000Y-117905000D01*
X65466000Y-119585000D02*
X65466000Y-120096000D01*
X65466000Y-117394000D02*
X65466000Y-117905000D01*
X65426000Y-119585000D02*
X65426000Y-120141000D01*
X65426000Y-117349000D02*
X65426000Y-117905000D01*
X65386000Y-119585000D02*
X65386000Y-120183000D01*
X65386000Y-117307000D02*
X65386000Y-117905000D01*
X65346000Y-119585000D02*
X65346000Y-120223000D01*
X65346000Y-117267000D02*
X65346000Y-117905000D01*
X65306000Y-119585000D02*
X65306000Y-120261000D01*
X65306000Y-117229000D02*
X65306000Y-117905000D01*
X65266000Y-119585000D02*
X65266000Y-120297000D01*
X65266000Y-117193000D02*
X65266000Y-117905000D01*
X65226000Y-119585000D02*
X65226000Y-120332000D01*
X65226000Y-117158000D02*
X65226000Y-117905000D01*
X65186000Y-119585000D02*
X65186000Y-120364000D01*
X65186000Y-117126000D02*
X65186000Y-117905000D01*
X65146000Y-119585000D02*
X65146000Y-120395000D01*
X65146000Y-117095000D02*
X65146000Y-117905000D01*
X65106000Y-119585000D02*
X65106000Y-120425000D01*
X65106000Y-117065000D02*
X65106000Y-117905000D01*
X65066000Y-119585000D02*
X65066000Y-120453000D01*
X65066000Y-117037000D02*
X65066000Y-117905000D01*
X65026000Y-119585000D02*
X65026000Y-120480000D01*
X65026000Y-117010000D02*
X65026000Y-117905000D01*
X64986000Y-119585000D02*
X64986000Y-120505000D01*
X64986000Y-116985000D02*
X64986000Y-117905000D01*
X64946000Y-119585000D02*
X64946000Y-120530000D01*
X64946000Y-116960000D02*
X64946000Y-117905000D01*
X64906000Y-119585000D02*
X64906000Y-120553000D01*
X64906000Y-116937000D02*
X64906000Y-117905000D01*
X64866000Y-119585000D02*
X64866000Y-120575000D01*
X64866000Y-116915000D02*
X64866000Y-117905000D01*
X64826000Y-119585000D02*
X64826000Y-120596000D01*
X64826000Y-116894000D02*
X64826000Y-117905000D01*
X64786000Y-119585000D02*
X64786000Y-120615000D01*
X64786000Y-116875000D02*
X64786000Y-117905000D01*
X64746000Y-119585000D02*
X64746000Y-120634000D01*
X64746000Y-116856000D02*
X64746000Y-117905000D01*
X64706000Y-119585000D02*
X64706000Y-120652000D01*
X64706000Y-116838000D02*
X64706000Y-117905000D01*
X64666000Y-119585000D02*
X64666000Y-120669000D01*
X64666000Y-116821000D02*
X64666000Y-117905000D01*
X64626000Y-119585000D02*
X64626000Y-120685000D01*
X64626000Y-116805000D02*
X64626000Y-117905000D01*
X64586000Y-119585000D02*
X64586000Y-120699000D01*
X64586000Y-116791000D02*
X64586000Y-117905000D01*
X64545000Y-119585000D02*
X64545000Y-120713000D01*
X64545000Y-116777000D02*
X64545000Y-117905000D01*
X64505000Y-119585000D02*
X64505000Y-120727000D01*
X64505000Y-116763000D02*
X64505000Y-117905000D01*
X64465000Y-119585000D02*
X64465000Y-120739000D01*
X64465000Y-116751000D02*
X64465000Y-117905000D01*
X64425000Y-119585000D02*
X64425000Y-120750000D01*
X64425000Y-116740000D02*
X64425000Y-117905000D01*
X64385000Y-119585000D02*
X64385000Y-120761000D01*
X64385000Y-116729000D02*
X64385000Y-117905000D01*
X64345000Y-119585000D02*
X64345000Y-120770000D01*
X64345000Y-116720000D02*
X64345000Y-117905000D01*
X64305000Y-119585000D02*
X64305000Y-120779000D01*
X64305000Y-116711000D02*
X64305000Y-117905000D01*
X64265000Y-119585000D02*
X64265000Y-120787000D01*
X64265000Y-116703000D02*
X64265000Y-117905000D01*
X64225000Y-119585000D02*
X64225000Y-120795000D01*
X64225000Y-116695000D02*
X64225000Y-117905000D01*
X64185000Y-119585000D02*
X64185000Y-120801000D01*
X64185000Y-116689000D02*
X64185000Y-117905000D01*
X64145000Y-119585000D02*
X64145000Y-120807000D01*
X64145000Y-116683000D02*
X64145000Y-117905000D01*
X64105000Y-119585000D02*
X64105000Y-120812000D01*
X64105000Y-116678000D02*
X64105000Y-117905000D01*
X64065000Y-119585000D02*
X64065000Y-120816000D01*
X64065000Y-116674000D02*
X64065000Y-117905000D01*
X64025000Y-116671000D02*
X64025000Y-120819000D01*
X63985000Y-116668000D02*
X63985000Y-120822000D01*
X63945000Y-116666000D02*
X63945000Y-120824000D01*
X63905000Y-116665000D02*
X63905000Y-120825000D01*
X63865000Y-116665000D02*
X63865000Y-120825000D01*
X65985000Y-118745000D02*
G75*
G03X65985000Y-118745000I-2120000J0D01*
G01*
X92495000Y-81585000D02*
X92560000Y-81585000D01*
X90320000Y-81585000D02*
X90385000Y-81585000D01*
X92495000Y-84825000D02*
X92560000Y-84825000D01*
X90320000Y-84825000D02*
X90385000Y-84825000D01*
X92560000Y-84825000D02*
X92560000Y-81585000D01*
X90320000Y-84825000D02*
X90320000Y-81585000D01*
X150280000Y-105675000D02*
X150345000Y-105675000D01*
X148105000Y-105675000D02*
X148170000Y-105675000D01*
X150280000Y-108915000D02*
X150345000Y-108915000D01*
X148105000Y-108915000D02*
X148170000Y-108915000D01*
X150345000Y-108915000D02*
X150345000Y-105675000D01*
X148105000Y-108915000D02*
X148105000Y-105675000D01*
X65825000Y-81966000D02*
X65890000Y-81966000D01*
X63650000Y-81966000D02*
X63715000Y-81966000D01*
X65825000Y-85206000D02*
X65890000Y-85206000D01*
X63650000Y-85206000D02*
X63715000Y-85206000D01*
X65890000Y-85206000D02*
X65890000Y-81966000D01*
X63650000Y-85206000D02*
X63650000Y-81966000D01*
X146470000Y-91110000D02*
X146535000Y-91110000D01*
X144295000Y-91110000D02*
X144360000Y-91110000D01*
X146470000Y-94350000D02*
X146535000Y-94350000D01*
X144295000Y-94350000D02*
X144360000Y-94350000D01*
X146535000Y-94350000D02*
X146535000Y-91110000D01*
X144295000Y-94350000D02*
X144295000Y-91110000D01*
X154365000Y-118177000D02*
X154365000Y-119507000D01*
X153035000Y-118177000D02*
X154365000Y-118177000D01*
X154365000Y-120777000D02*
X154365000Y-123377000D01*
X151765000Y-120777000D02*
X154365000Y-120777000D01*
X151765000Y-118177000D02*
X151765000Y-120777000D01*
X154365000Y-123377000D02*
X75505000Y-123377000D01*
X151765000Y-118177000D02*
X75505000Y-118177000D01*
X75505000Y-118177000D02*
X75505000Y-123377000D01*
D10*
X83272380Y-68778333D02*
X83986666Y-68778333D01*
X84129523Y-68825952D01*
X84224761Y-68921190D01*
X84272380Y-69064047D01*
X84272380Y-69159285D01*
X84272380Y-68302142D02*
X83272380Y-68302142D01*
X83272380Y-67921190D01*
X83320000Y-67825952D01*
X83367619Y-67778333D01*
X83462857Y-67730714D01*
X83605714Y-67730714D01*
X83700952Y-67778333D01*
X83748571Y-67825952D01*
X83796190Y-67921190D01*
X83796190Y-68302142D01*
X83367619Y-67349761D02*
X83320000Y-67302142D01*
X83272380Y-67206904D01*
X83272380Y-66968809D01*
X83320000Y-66873571D01*
X83367619Y-66825952D01*
X83462857Y-66778333D01*
X83558095Y-66778333D01*
X83700952Y-66825952D01*
X84272380Y-67397380D01*
X84272380Y-66778333D01*
X87082380Y-68778333D02*
X87796666Y-68778333D01*
X87939523Y-68825952D01*
X88034761Y-68921190D01*
X88082380Y-69064047D01*
X88082380Y-69159285D01*
X88082380Y-68302142D02*
X87082380Y-68302142D01*
X87082380Y-67921190D01*
X87130000Y-67825952D01*
X87177619Y-67778333D01*
X87272857Y-67730714D01*
X87415714Y-67730714D01*
X87510952Y-67778333D01*
X87558571Y-67825952D01*
X87606190Y-67921190D01*
X87606190Y-68302142D01*
X87082380Y-67397380D02*
X87082380Y-66778333D01*
X87463333Y-67111666D01*
X87463333Y-66968809D01*
X87510952Y-66873571D01*
X87558571Y-66825952D01*
X87653809Y-66778333D01*
X87891904Y-66778333D01*
X87987142Y-66825952D01*
X88034761Y-66873571D01*
X88082380Y-66968809D01*
X88082380Y-67254523D01*
X88034761Y-67349761D01*
X87987142Y-67397380D01*
X142113095Y-97877380D02*
X142113095Y-98686904D01*
X142160714Y-98782142D01*
X142208333Y-98829761D01*
X142303571Y-98877380D01*
X142494047Y-98877380D01*
X142589285Y-98829761D01*
X142636904Y-98782142D01*
X142684523Y-98686904D01*
X142684523Y-97877380D01*
X143113095Y-97972619D02*
X143160714Y-97925000D01*
X143255952Y-97877380D01*
X143494047Y-97877380D01*
X143589285Y-97925000D01*
X143636904Y-97972619D01*
X143684523Y-98067857D01*
X143684523Y-98163095D01*
X143636904Y-98305952D01*
X143065476Y-98877380D01*
X143684523Y-98877380D01*
D15*
X127111904Y-91614761D02*
X128445238Y-91614761D01*
X127588095Y-93614761D01*
X130064285Y-92281428D02*
X130064285Y-93614761D01*
X129588095Y-91519523D02*
X129111904Y-92948095D01*
X130350000Y-92948095D01*
X132064285Y-93614761D02*
X131111904Y-93614761D01*
X131111904Y-91614761D01*
X132635714Y-93519523D02*
X132921428Y-93614761D01*
X133397619Y-93614761D01*
X133588095Y-93519523D01*
X133683333Y-93424285D01*
X133778571Y-93233809D01*
X133778571Y-93043333D01*
X133683333Y-92852857D01*
X133588095Y-92757619D01*
X133397619Y-92662380D01*
X133016666Y-92567142D01*
X132826190Y-92471904D01*
X132730952Y-92376666D01*
X132635714Y-92186190D01*
X132635714Y-91995714D01*
X132730952Y-91805238D01*
X132826190Y-91710000D01*
X133016666Y-91614761D01*
X133492857Y-91614761D01*
X133778571Y-91710000D01*
X135683333Y-93614761D02*
X134540476Y-93614761D01*
X135111904Y-93614761D02*
X135111904Y-91614761D01*
X134921428Y-91900476D01*
X134730952Y-92090952D01*
X134540476Y-92186190D01*
X137492857Y-91614761D02*
X136540476Y-91614761D01*
X136445238Y-92567142D01*
X136540476Y-92471904D01*
X136730952Y-92376666D01*
X137207142Y-92376666D01*
X137397619Y-92471904D01*
X137492857Y-92567142D01*
X137588095Y-92757619D01*
X137588095Y-93233809D01*
X137492857Y-93424285D01*
X137397619Y-93519523D01*
X137207142Y-93614761D01*
X136730952Y-93614761D01*
X136540476Y-93519523D01*
X136445238Y-93424285D01*
X139492857Y-93614761D02*
X138350000Y-93614761D01*
X138921428Y-93614761D02*
X138921428Y-91614761D01*
X138730952Y-91900476D01*
X138540476Y-92090952D01*
X138350000Y-92186190D01*
D10*
X107327142Y-99881666D02*
X107374761Y-99929285D01*
X107422380Y-100072142D01*
X107422380Y-100167380D01*
X107374761Y-100310238D01*
X107279523Y-100405476D01*
X107184285Y-100453095D01*
X106993809Y-100500714D01*
X106850952Y-100500714D01*
X106660476Y-100453095D01*
X106565238Y-100405476D01*
X106470000Y-100310238D01*
X106422380Y-100167380D01*
X106422380Y-100072142D01*
X106470000Y-99929285D01*
X106517619Y-99881666D01*
X106422380Y-99548333D02*
X106422380Y-98929285D01*
X106803333Y-99262619D01*
X106803333Y-99119761D01*
X106850952Y-99024523D01*
X106898571Y-98976904D01*
X106993809Y-98929285D01*
X107231904Y-98929285D01*
X107327142Y-98976904D01*
X107374761Y-99024523D01*
X107422380Y-99119761D01*
X107422380Y-99405476D01*
X107374761Y-99500714D01*
X107327142Y-99548333D01*
X110922380Y-101429285D02*
X110922380Y-101334047D01*
X110970000Y-101238809D01*
X111017619Y-101191190D01*
X111112857Y-101143571D01*
X111303333Y-101095952D01*
X111541428Y-101095952D01*
X111731904Y-101143571D01*
X111827142Y-101191190D01*
X111874761Y-101238809D01*
X111922380Y-101334047D01*
X111922380Y-101429285D01*
X111874761Y-101524523D01*
X111827142Y-101572142D01*
X111731904Y-101619761D01*
X111541428Y-101667380D01*
X111303333Y-101667380D01*
X111112857Y-101619761D01*
X111017619Y-101572142D01*
X110970000Y-101524523D01*
X110922380Y-101429285D01*
X111827142Y-100667380D02*
X111874761Y-100619761D01*
X111922380Y-100667380D01*
X111874761Y-100715000D01*
X111827142Y-100667380D01*
X111922380Y-100667380D01*
X111922380Y-99667380D02*
X111922380Y-100238809D01*
X111922380Y-99953095D02*
X110922380Y-99953095D01*
X111065238Y-100048333D01*
X111160476Y-100143571D01*
X111208095Y-100238809D01*
X110922380Y-99238809D02*
X111731904Y-99238809D01*
X111827142Y-99191190D01*
X111874761Y-99143571D01*
X111922380Y-99048333D01*
X111922380Y-98857857D01*
X111874761Y-98762619D01*
X111827142Y-98715000D01*
X111731904Y-98667380D01*
X110922380Y-98667380D01*
X111398571Y-97857857D02*
X111398571Y-98191190D01*
X111922380Y-98191190D02*
X110922380Y-98191190D01*
X110922380Y-97715000D01*
X151963333Y-110772142D02*
X151915714Y-110819761D01*
X151772857Y-110867380D01*
X151677619Y-110867380D01*
X151534761Y-110819761D01*
X151439523Y-110724523D01*
X151391904Y-110629285D01*
X151344285Y-110438809D01*
X151344285Y-110295952D01*
X151391904Y-110105476D01*
X151439523Y-110010238D01*
X151534761Y-109915000D01*
X151677619Y-109867380D01*
X151772857Y-109867380D01*
X151915714Y-109915000D01*
X151963333Y-109962619D01*
X152296666Y-109867380D02*
X152963333Y-109867380D01*
X152534761Y-110867380D01*
X148621904Y-116625714D02*
X148621904Y-117292380D01*
X148383809Y-116244761D02*
X148145714Y-116959047D01*
X148764761Y-116959047D01*
X149050476Y-116292380D02*
X149717142Y-116292380D01*
X149288571Y-117292380D01*
X150098095Y-116292380D02*
X150098095Y-117101904D01*
X150145714Y-117197142D01*
X150193333Y-117244761D01*
X150288571Y-117292380D01*
X150479047Y-117292380D01*
X150574285Y-117244761D01*
X150621904Y-117197142D01*
X150669523Y-117101904D01*
X150669523Y-116292380D01*
X151479047Y-116768571D02*
X151145714Y-116768571D01*
X151145714Y-117292380D02*
X151145714Y-116292380D01*
X151621904Y-116292380D01*
X70937380Y-68111666D02*
X70461190Y-68445000D01*
X70937380Y-68683095D02*
X69937380Y-68683095D01*
X69937380Y-68302142D01*
X69985000Y-68206904D01*
X70032619Y-68159285D01*
X70127857Y-68111666D01*
X70270714Y-68111666D01*
X70365952Y-68159285D01*
X70413571Y-68206904D01*
X70461190Y-68302142D01*
X70461190Y-68683095D01*
X70937380Y-67159285D02*
X70937380Y-67730714D01*
X70937380Y-67445000D02*
X69937380Y-67445000D01*
X70080238Y-67540238D01*
X70175476Y-67635476D01*
X70223095Y-67730714D01*
X70270714Y-73786904D02*
X70937380Y-73786904D01*
X69889761Y-74025000D02*
X70604047Y-74263095D01*
X70604047Y-73644047D01*
X69937380Y-72834523D02*
X69937380Y-73025000D01*
X69985000Y-73120238D01*
X70032619Y-73167857D01*
X70175476Y-73263095D01*
X70365952Y-73310714D01*
X70746904Y-73310714D01*
X70842142Y-73263095D01*
X70889761Y-73215476D01*
X70937380Y-73120238D01*
X70937380Y-72929761D01*
X70889761Y-72834523D01*
X70842142Y-72786904D01*
X70746904Y-72739285D01*
X70508809Y-72739285D01*
X70413571Y-72786904D01*
X70365952Y-72834523D01*
X70318333Y-72929761D01*
X70318333Y-73120238D01*
X70365952Y-73215476D01*
X70413571Y-73263095D01*
X70508809Y-73310714D01*
X69937380Y-72120238D02*
X69937380Y-72025000D01*
X69985000Y-71929761D01*
X70032619Y-71882142D01*
X70127857Y-71834523D01*
X70318333Y-71786904D01*
X70556428Y-71786904D01*
X70746904Y-71834523D01*
X70842142Y-71882142D01*
X70889761Y-71929761D01*
X70937380Y-72025000D01*
X70937380Y-72120238D01*
X70889761Y-72215476D01*
X70842142Y-72263095D01*
X70746904Y-72310714D01*
X70556428Y-72358333D01*
X70318333Y-72358333D01*
X70127857Y-72310714D01*
X70032619Y-72263095D01*
X69985000Y-72215476D01*
X69937380Y-72120238D01*
X62444761Y-77922380D02*
X62111428Y-77446190D01*
X61873333Y-77922380D02*
X61873333Y-76922380D01*
X62254285Y-76922380D01*
X62349523Y-76970000D01*
X62397142Y-77017619D01*
X62444761Y-77112857D01*
X62444761Y-77255714D01*
X62397142Y-77350952D01*
X62349523Y-77398571D01*
X62254285Y-77446190D01*
X61873333Y-77446190D01*
X62825714Y-77636666D02*
X63301904Y-77636666D01*
X62730476Y-77922380D02*
X63063809Y-76922380D01*
X63397142Y-77922380D01*
X63730476Y-77922380D02*
X63730476Y-76922380D01*
X64063809Y-77636666D01*
X64397142Y-76922380D01*
X64397142Y-77922380D01*
X65587619Y-77636666D02*
X66063809Y-77636666D01*
X65492380Y-77922380D02*
X65825714Y-76922380D01*
X66159047Y-77922380D01*
X66920952Y-77874761D02*
X66825714Y-77922380D01*
X66635238Y-77922380D01*
X66540000Y-77874761D01*
X66492380Y-77827142D01*
X66444761Y-77731904D01*
X66444761Y-77446190D01*
X66492380Y-77350952D01*
X66540000Y-77303333D01*
X66635238Y-77255714D01*
X66825714Y-77255714D01*
X66920952Y-77303333D01*
X67778095Y-77874761D02*
X67682857Y-77922380D01*
X67492380Y-77922380D01*
X67397142Y-77874761D01*
X67349523Y-77827142D01*
X67301904Y-77731904D01*
X67301904Y-77446190D01*
X67349523Y-77350952D01*
X67397142Y-77303333D01*
X67492380Y-77255714D01*
X67682857Y-77255714D01*
X67778095Y-77303333D01*
X68587619Y-77874761D02*
X68492380Y-77922380D01*
X68301904Y-77922380D01*
X68206666Y-77874761D01*
X68159047Y-77779523D01*
X68159047Y-77398571D01*
X68206666Y-77303333D01*
X68301904Y-77255714D01*
X68492380Y-77255714D01*
X68587619Y-77303333D01*
X68635238Y-77398571D01*
X68635238Y-77493809D01*
X68159047Y-77589047D01*
X69016190Y-77874761D02*
X69111428Y-77922380D01*
X69301904Y-77922380D01*
X69397142Y-77874761D01*
X69444761Y-77779523D01*
X69444761Y-77731904D01*
X69397142Y-77636666D01*
X69301904Y-77589047D01*
X69159047Y-77589047D01*
X69063809Y-77541428D01*
X69016190Y-77446190D01*
X69016190Y-77398571D01*
X69063809Y-77303333D01*
X69159047Y-77255714D01*
X69301904Y-77255714D01*
X69397142Y-77303333D01*
X69825714Y-77874761D02*
X69920952Y-77922380D01*
X70111428Y-77922380D01*
X70206666Y-77874761D01*
X70254285Y-77779523D01*
X70254285Y-77731904D01*
X70206666Y-77636666D01*
X70111428Y-77589047D01*
X69968571Y-77589047D01*
X69873333Y-77541428D01*
X69825714Y-77446190D01*
X69825714Y-77398571D01*
X69873333Y-77303333D01*
X69968571Y-77255714D01*
X70111428Y-77255714D01*
X70206666Y-77303333D01*
X145986666Y-83589761D02*
X146129523Y-83637380D01*
X146367619Y-83637380D01*
X146462857Y-83589761D01*
X146510476Y-83542142D01*
X146558095Y-83446904D01*
X146558095Y-83351666D01*
X146510476Y-83256428D01*
X146462857Y-83208809D01*
X146367619Y-83161190D01*
X146177142Y-83113571D01*
X146081904Y-83065952D01*
X146034285Y-83018333D01*
X145986666Y-82923095D01*
X145986666Y-82827857D01*
X146034285Y-82732619D01*
X146081904Y-82685000D01*
X146177142Y-82637380D01*
X146415238Y-82637380D01*
X146558095Y-82685000D01*
X146891428Y-82637380D02*
X147129523Y-83637380D01*
X147320000Y-82923095D01*
X147510476Y-83637380D01*
X147748571Y-82637380D01*
X148653333Y-83637380D02*
X148081904Y-83637380D01*
X148367619Y-83637380D02*
X148367619Y-82637380D01*
X148272380Y-82780238D01*
X148177142Y-82875476D01*
X148081904Y-82923095D01*
X83693095Y-88987380D02*
X83693095Y-89796904D01*
X83740714Y-89892142D01*
X83788333Y-89939761D01*
X83883571Y-89987380D01*
X84074047Y-89987380D01*
X84169285Y-89939761D01*
X84216904Y-89892142D01*
X84264523Y-89796904D01*
X84264523Y-88987380D01*
X85216904Y-88987380D02*
X84740714Y-88987380D01*
X84693095Y-89463571D01*
X84740714Y-89415952D01*
X84835952Y-89368333D01*
X85074047Y-89368333D01*
X85169285Y-89415952D01*
X85216904Y-89463571D01*
X85264523Y-89558809D01*
X85264523Y-89796904D01*
X85216904Y-89892142D01*
X85169285Y-89939761D01*
X85074047Y-89987380D01*
X84835952Y-89987380D01*
X84740714Y-89939761D01*
X84693095Y-89892142D01*
D15*
X71549285Y-82724761D02*
X72882619Y-82724761D01*
X72025476Y-84724761D01*
X74501666Y-83391428D02*
X74501666Y-84724761D01*
X74025476Y-82629523D02*
X73549285Y-84058095D01*
X74787380Y-84058095D01*
X76501666Y-84724761D02*
X75549285Y-84724761D01*
X75549285Y-82724761D01*
X77073095Y-84629523D02*
X77358809Y-84724761D01*
X77835000Y-84724761D01*
X78025476Y-84629523D01*
X78120714Y-84534285D01*
X78215952Y-84343809D01*
X78215952Y-84153333D01*
X78120714Y-83962857D01*
X78025476Y-83867619D01*
X77835000Y-83772380D01*
X77454047Y-83677142D01*
X77263571Y-83581904D01*
X77168333Y-83486666D01*
X77073095Y-83296190D01*
X77073095Y-83105714D01*
X77168333Y-82915238D01*
X77263571Y-82820000D01*
X77454047Y-82724761D01*
X77930238Y-82724761D01*
X78215952Y-82820000D01*
X79454047Y-82724761D02*
X79644523Y-82724761D01*
X79835000Y-82820000D01*
X79930238Y-82915238D01*
X80025476Y-83105714D01*
X80120714Y-83486666D01*
X80120714Y-83962857D01*
X80025476Y-84343809D01*
X79930238Y-84534285D01*
X79835000Y-84629523D01*
X79644523Y-84724761D01*
X79454047Y-84724761D01*
X79263571Y-84629523D01*
X79168333Y-84534285D01*
X79073095Y-84343809D01*
X78977857Y-83962857D01*
X78977857Y-83486666D01*
X79073095Y-83105714D01*
X79168333Y-82915238D01*
X79263571Y-82820000D01*
X79454047Y-82724761D01*
X81358809Y-82724761D02*
X81549285Y-82724761D01*
X81739761Y-82820000D01*
X81835000Y-82915238D01*
X81930238Y-83105714D01*
X82025476Y-83486666D01*
X82025476Y-83962857D01*
X81930238Y-84343809D01*
X81835000Y-84534285D01*
X81739761Y-84629523D01*
X81549285Y-84724761D01*
X81358809Y-84724761D01*
X81168333Y-84629523D01*
X81073095Y-84534285D01*
X80977857Y-84343809D01*
X80882619Y-83962857D01*
X80882619Y-83486666D01*
X80977857Y-83105714D01*
X81073095Y-82915238D01*
X81168333Y-82820000D01*
X81358809Y-82724761D01*
D10*
X109728095Y-88987380D02*
X109728095Y-89796904D01*
X109775714Y-89892142D01*
X109823333Y-89939761D01*
X109918571Y-89987380D01*
X110109047Y-89987380D01*
X110204285Y-89939761D01*
X110251904Y-89892142D01*
X110299523Y-89796904D01*
X110299523Y-88987380D01*
X111204285Y-89320714D02*
X111204285Y-89987380D01*
X110966190Y-88939761D02*
X110728095Y-89654047D01*
X111347142Y-89654047D01*
D15*
X96949285Y-82724761D02*
X98282619Y-82724761D01*
X97425476Y-84724761D01*
X99901666Y-83391428D02*
X99901666Y-84724761D01*
X99425476Y-82629523D02*
X98949285Y-84058095D01*
X100187380Y-84058095D01*
X101901666Y-84724761D02*
X100949285Y-84724761D01*
X100949285Y-82724761D01*
X102473095Y-84629523D02*
X102758809Y-84724761D01*
X103235000Y-84724761D01*
X103425476Y-84629523D01*
X103520714Y-84534285D01*
X103615952Y-84343809D01*
X103615952Y-84153333D01*
X103520714Y-83962857D01*
X103425476Y-83867619D01*
X103235000Y-83772380D01*
X102854047Y-83677142D01*
X102663571Y-83581904D01*
X102568333Y-83486666D01*
X102473095Y-83296190D01*
X102473095Y-83105714D01*
X102568333Y-82915238D01*
X102663571Y-82820000D01*
X102854047Y-82724761D01*
X103330238Y-82724761D01*
X103615952Y-82820000D01*
X104854047Y-82724761D02*
X105044523Y-82724761D01*
X105235000Y-82820000D01*
X105330238Y-82915238D01*
X105425476Y-83105714D01*
X105520714Y-83486666D01*
X105520714Y-83962857D01*
X105425476Y-84343809D01*
X105330238Y-84534285D01*
X105235000Y-84629523D01*
X105044523Y-84724761D01*
X104854047Y-84724761D01*
X104663571Y-84629523D01*
X104568333Y-84534285D01*
X104473095Y-84343809D01*
X104377857Y-83962857D01*
X104377857Y-83486666D01*
X104473095Y-83105714D01*
X104568333Y-82915238D01*
X104663571Y-82820000D01*
X104854047Y-82724761D01*
X106282619Y-82915238D02*
X106377857Y-82820000D01*
X106568333Y-82724761D01*
X107044523Y-82724761D01*
X107235000Y-82820000D01*
X107330238Y-82915238D01*
X107425476Y-83105714D01*
X107425476Y-83296190D01*
X107330238Y-83581904D01*
X106187380Y-84724761D01*
X107425476Y-84724761D01*
D10*
X145923095Y-113117380D02*
X145923095Y-113926904D01*
X145970714Y-114022142D01*
X146018333Y-114069761D01*
X146113571Y-114117380D01*
X146304047Y-114117380D01*
X146399285Y-114069761D01*
X146446904Y-114022142D01*
X146494523Y-113926904D01*
X146494523Y-113117380D01*
X146875476Y-113117380D02*
X147494523Y-113117380D01*
X147161190Y-113498333D01*
X147304047Y-113498333D01*
X147399285Y-113545952D01*
X147446904Y-113593571D01*
X147494523Y-113688809D01*
X147494523Y-113926904D01*
X147446904Y-114022142D01*
X147399285Y-114069761D01*
X147304047Y-114117380D01*
X147018333Y-114117380D01*
X146923095Y-114069761D01*
X146875476Y-114022142D01*
D15*
X128381904Y-106854761D02*
X129715238Y-106854761D01*
X128858095Y-108854761D01*
X131334285Y-107521428D02*
X131334285Y-108854761D01*
X130858095Y-106759523D02*
X130381904Y-108188095D01*
X131620000Y-108188095D01*
X133334285Y-108854761D02*
X132381904Y-108854761D01*
X132381904Y-106854761D01*
X133905714Y-108759523D02*
X134191428Y-108854761D01*
X134667619Y-108854761D01*
X134858095Y-108759523D01*
X134953333Y-108664285D01*
X135048571Y-108473809D01*
X135048571Y-108283333D01*
X134953333Y-108092857D01*
X134858095Y-107997619D01*
X134667619Y-107902380D01*
X134286666Y-107807142D01*
X134096190Y-107711904D01*
X134000952Y-107616666D01*
X133905714Y-107426190D01*
X133905714Y-107235714D01*
X134000952Y-107045238D01*
X134096190Y-106950000D01*
X134286666Y-106854761D01*
X134762857Y-106854761D01*
X135048571Y-106950000D01*
X135810476Y-107045238D02*
X135905714Y-106950000D01*
X136096190Y-106854761D01*
X136572380Y-106854761D01*
X136762857Y-106950000D01*
X136858095Y-107045238D01*
X136953333Y-107235714D01*
X136953333Y-107426190D01*
X136858095Y-107711904D01*
X135715238Y-108854761D01*
X136953333Y-108854761D01*
X138667619Y-107521428D02*
X138667619Y-108854761D01*
X138191428Y-106759523D02*
X137715238Y-108188095D01*
X138953333Y-108188095D01*
X140667619Y-106854761D02*
X139715238Y-106854761D01*
X139620000Y-107807142D01*
X139715238Y-107711904D01*
X139905714Y-107616666D01*
X140381904Y-107616666D01*
X140572380Y-107711904D01*
X140667619Y-107807142D01*
X140762857Y-107997619D01*
X140762857Y-108473809D01*
X140667619Y-108664285D01*
X140572380Y-108759523D01*
X140381904Y-108854761D01*
X139905714Y-108854761D01*
X139715238Y-108759523D01*
X139620000Y-108664285D01*
D10*
X104013095Y-113752380D02*
X104013095Y-114561904D01*
X104060714Y-114657142D01*
X104108333Y-114704761D01*
X104203571Y-114752380D01*
X104394047Y-114752380D01*
X104489285Y-114704761D01*
X104536904Y-114657142D01*
X104584523Y-114561904D01*
X104584523Y-113752380D01*
X105584523Y-114752380D02*
X105013095Y-114752380D01*
X105298809Y-114752380D02*
X105298809Y-113752380D01*
X105203571Y-113895238D01*
X105108333Y-113990476D01*
X105013095Y-114038095D01*
D15*
X71709047Y-104473333D02*
X72661428Y-104473333D01*
X71518571Y-105044761D02*
X72185238Y-103044761D01*
X72851904Y-105044761D01*
X73423333Y-104949523D02*
X73709047Y-105044761D01*
X74185238Y-105044761D01*
X74375714Y-104949523D01*
X74470952Y-104854285D01*
X74566190Y-104663809D01*
X74566190Y-104473333D01*
X74470952Y-104282857D01*
X74375714Y-104187619D01*
X74185238Y-104092380D01*
X73804285Y-103997142D01*
X73613809Y-103901904D01*
X73518571Y-103806666D01*
X73423333Y-103616190D01*
X73423333Y-103425714D01*
X73518571Y-103235238D01*
X73613809Y-103140000D01*
X73804285Y-103044761D01*
X74280476Y-103044761D01*
X74566190Y-103140000D01*
X76280476Y-103044761D02*
X75899523Y-103044761D01*
X75709047Y-103140000D01*
X75613809Y-103235238D01*
X75423333Y-103520952D01*
X75328095Y-103901904D01*
X75328095Y-104663809D01*
X75423333Y-104854285D01*
X75518571Y-104949523D01*
X75709047Y-105044761D01*
X76090000Y-105044761D01*
X76280476Y-104949523D01*
X76375714Y-104854285D01*
X76470952Y-104663809D01*
X76470952Y-104187619D01*
X76375714Y-103997142D01*
X76280476Y-103901904D01*
X76090000Y-103806666D01*
X75709047Y-103806666D01*
X75518571Y-103901904D01*
X75423333Y-103997142D01*
X75328095Y-104187619D01*
X78470952Y-104854285D02*
X78375714Y-104949523D01*
X78090000Y-105044761D01*
X77899523Y-105044761D01*
X77613809Y-104949523D01*
X77423333Y-104759047D01*
X77328095Y-104568571D01*
X77232857Y-104187619D01*
X77232857Y-103901904D01*
X77328095Y-103520952D01*
X77423333Y-103330476D01*
X77613809Y-103140000D01*
X77899523Y-103044761D01*
X78090000Y-103044761D01*
X78375714Y-103140000D01*
X78470952Y-103235238D01*
X80185238Y-103711428D02*
X80185238Y-105044761D01*
X79709047Y-102949523D02*
X79232857Y-104378095D01*
X80470952Y-104378095D01*
X81613809Y-103044761D02*
X81804285Y-103044761D01*
X81994761Y-103140000D01*
X82090000Y-103235238D01*
X82185238Y-103425714D01*
X82280476Y-103806666D01*
X82280476Y-104282857D01*
X82185238Y-104663809D01*
X82090000Y-104854285D01*
X81994761Y-104949523D01*
X81804285Y-105044761D01*
X81613809Y-105044761D01*
X81423333Y-104949523D01*
X81328095Y-104854285D01*
X81232857Y-104663809D01*
X81137619Y-104282857D01*
X81137619Y-103806666D01*
X81232857Y-103425714D01*
X81328095Y-103235238D01*
X81423333Y-103140000D01*
X81613809Y-103044761D01*
X83518571Y-103044761D02*
X83709047Y-103044761D01*
X83899523Y-103140000D01*
X83994761Y-103235238D01*
X84090000Y-103425714D01*
X84185238Y-103806666D01*
X84185238Y-104282857D01*
X84090000Y-104663809D01*
X83994761Y-104854285D01*
X83899523Y-104949523D01*
X83709047Y-105044761D01*
X83518571Y-105044761D01*
X83328095Y-104949523D01*
X83232857Y-104854285D01*
X83137619Y-104663809D01*
X83042380Y-104282857D01*
X83042380Y-103806666D01*
X83137619Y-103425714D01*
X83232857Y-103235238D01*
X83328095Y-103140000D01*
X83518571Y-103044761D01*
X85328095Y-103901904D02*
X85137619Y-103806666D01*
X85042380Y-103711428D01*
X84947142Y-103520952D01*
X84947142Y-103425714D01*
X85042380Y-103235238D01*
X85137619Y-103140000D01*
X85328095Y-103044761D01*
X85709047Y-103044761D01*
X85899523Y-103140000D01*
X85994761Y-103235238D01*
X86090000Y-103425714D01*
X86090000Y-103520952D01*
X85994761Y-103711428D01*
X85899523Y-103806666D01*
X85709047Y-103901904D01*
X85328095Y-103901904D01*
X85137619Y-103997142D01*
X85042380Y-104092380D01*
X84947142Y-104282857D01*
X84947142Y-104663809D01*
X85042380Y-104854285D01*
X85137619Y-104949523D01*
X85328095Y-105044761D01*
X85709047Y-105044761D01*
X85899523Y-104949523D01*
X85994761Y-104854285D01*
X86090000Y-104663809D01*
X86090000Y-104282857D01*
X85994761Y-104092380D01*
X85899523Y-103997142D01*
X85709047Y-103901904D01*
X86947142Y-104282857D02*
X88470952Y-104282857D01*
X90375714Y-103044761D02*
X89423333Y-103044761D01*
X89328095Y-103997142D01*
X89423333Y-103901904D01*
X89613809Y-103806666D01*
X90090000Y-103806666D01*
X90280476Y-103901904D01*
X90375714Y-103997142D01*
X90470952Y-104187619D01*
X90470952Y-104663809D01*
X90375714Y-104854285D01*
X90280476Y-104949523D01*
X90090000Y-105044761D01*
X89613809Y-105044761D01*
X89423333Y-104949523D01*
X89328095Y-104854285D01*
X92280476Y-103044761D02*
X91328095Y-103044761D01*
X91232857Y-103997142D01*
X91328095Y-103901904D01*
X91518571Y-103806666D01*
X91994761Y-103806666D01*
X92185238Y-103901904D01*
X92280476Y-103997142D01*
X92375714Y-104187619D01*
X92375714Y-104663809D01*
X92280476Y-104854285D01*
X92185238Y-104949523D01*
X91994761Y-105044761D01*
X91518571Y-105044761D01*
X91328095Y-104949523D01*
X91232857Y-104854285D01*
X93232857Y-105044761D02*
X93232857Y-103044761D01*
X93994761Y-103044761D01*
X94185238Y-103140000D01*
X94280476Y-103235238D01*
X94375714Y-103425714D01*
X94375714Y-103711428D01*
X94280476Y-103901904D01*
X94185238Y-103997142D01*
X93994761Y-104092380D01*
X93232857Y-104092380D01*
X96375714Y-104854285D02*
X96280476Y-104949523D01*
X95994761Y-105044761D01*
X95804285Y-105044761D01*
X95518571Y-104949523D01*
X95328095Y-104759047D01*
X95232857Y-104568571D01*
X95137619Y-104187619D01*
X95137619Y-103901904D01*
X95232857Y-103520952D01*
X95328095Y-103330476D01*
X95518571Y-103140000D01*
X95804285Y-103044761D01*
X95994761Y-103044761D01*
X96280476Y-103140000D01*
X96375714Y-103235238D01*
X97232857Y-105044761D02*
X97232857Y-103044761D01*
X98375714Y-105044761D01*
X98375714Y-103044761D01*
D10*
X123515523Y-67762380D02*
X123182190Y-67286190D01*
X122944095Y-67762380D02*
X122944095Y-66762380D01*
X123325047Y-66762380D01*
X123420285Y-66810000D01*
X123467904Y-66857619D01*
X123515523Y-66952857D01*
X123515523Y-67095714D01*
X123467904Y-67190952D01*
X123420285Y-67238571D01*
X123325047Y-67286190D01*
X122944095Y-67286190D01*
X123944095Y-67762380D02*
X123944095Y-66762380D01*
X124515523Y-67762380D01*
X124515523Y-66762380D01*
X125515523Y-67762380D02*
X124944095Y-67762380D01*
X125229809Y-67762380D02*
X125229809Y-66762380D01*
X125134571Y-66905238D01*
X125039333Y-67000476D01*
X124944095Y-67048095D01*
X140192619Y-67762380D02*
X139859285Y-67286190D01*
X139621190Y-67762380D02*
X139621190Y-66762380D01*
X140002142Y-66762380D01*
X140097380Y-66810000D01*
X140145000Y-66857619D01*
X140192619Y-66952857D01*
X140192619Y-67095714D01*
X140145000Y-67190952D01*
X140097380Y-67238571D01*
X140002142Y-67286190D01*
X139621190Y-67286190D01*
X140383095Y-67857619D02*
X141145000Y-67857619D01*
X141383095Y-67762380D02*
X141383095Y-66762380D01*
X141954523Y-67762380D01*
X141954523Y-66762380D01*
X142811666Y-67714761D02*
X142716428Y-67762380D01*
X142525952Y-67762380D01*
X142430714Y-67714761D01*
X142383095Y-67619523D01*
X142383095Y-67238571D01*
X142430714Y-67143333D01*
X142525952Y-67095714D01*
X142716428Y-67095714D01*
X142811666Y-67143333D01*
X142859285Y-67238571D01*
X142859285Y-67333809D01*
X142383095Y-67429047D01*
X143145000Y-67095714D02*
X143525952Y-67095714D01*
X143287857Y-66762380D02*
X143287857Y-67619523D01*
X143335476Y-67714761D01*
X143430714Y-67762380D01*
X143525952Y-67762380D01*
X143764047Y-67095714D02*
X143954523Y-67762380D01*
X144144999Y-67286190D01*
X144335476Y-67762380D01*
X144525952Y-67095714D01*
X145049761Y-67762380D02*
X144954523Y-67714761D01*
X144906904Y-67667142D01*
X144859285Y-67571904D01*
X144859285Y-67286190D01*
X144906904Y-67190952D01*
X144954523Y-67143333D01*
X145049761Y-67095714D01*
X145192619Y-67095714D01*
X145287857Y-67143333D01*
X145335476Y-67190952D01*
X145383095Y-67286190D01*
X145383095Y-67571904D01*
X145335476Y-67667142D01*
X145287857Y-67714761D01*
X145192619Y-67762380D01*
X145049761Y-67762380D01*
X145811666Y-67762380D02*
X145811666Y-67095714D01*
X145811666Y-67286190D02*
X145859285Y-67190952D01*
X145906904Y-67143333D01*
X146002142Y-67095714D01*
X146097380Y-67095714D01*
X146430714Y-67762380D02*
X146430714Y-66762380D01*
X146525952Y-67381428D02*
X146811666Y-67762380D01*
X146811666Y-67095714D02*
X146430714Y-67476666D01*
X147430714Y-66762380D02*
X147525952Y-66762380D01*
X147621190Y-66810000D01*
X147668809Y-66857619D01*
X147716428Y-66952857D01*
X147764047Y-67143333D01*
X147764047Y-67381428D01*
X147716428Y-67571904D01*
X147668809Y-67667142D01*
X147621190Y-67714761D01*
X147525952Y-67762380D01*
X147430714Y-67762380D01*
X147335476Y-67714761D01*
X147287857Y-67667142D01*
X147240238Y-67571904D01*
X147192619Y-67381428D01*
X147192619Y-67143333D01*
X147240238Y-66952857D01*
X147287857Y-66857619D01*
X147335476Y-66810000D01*
X147430714Y-66762380D01*
X148335476Y-67190952D02*
X148240238Y-67143333D01*
X148192619Y-67095714D01*
X148145000Y-67000476D01*
X148145000Y-66952857D01*
X148192619Y-66857619D01*
X148240238Y-66810000D01*
X148335476Y-66762380D01*
X148525952Y-66762380D01*
X148621190Y-66810000D01*
X148668809Y-66857619D01*
X148716428Y-66952857D01*
X148716428Y-67000476D01*
X148668809Y-67095714D01*
X148621190Y-67143333D01*
X148525952Y-67190952D01*
X148335476Y-67190952D01*
X148240238Y-67238571D01*
X148192619Y-67286190D01*
X148145000Y-67381428D01*
X148145000Y-67571904D01*
X148192619Y-67667142D01*
X148240238Y-67714761D01*
X148335476Y-67762380D01*
X148525952Y-67762380D01*
X148621190Y-67714761D01*
X148668809Y-67667142D01*
X148716428Y-67571904D01*
X148716428Y-67381428D01*
X148668809Y-67286190D01*
X148621190Y-67238571D01*
X148525952Y-67190952D01*
X73477380Y-68111666D02*
X73001190Y-68445000D01*
X73477380Y-68683095D02*
X72477380Y-68683095D01*
X72477380Y-68302142D01*
X72525000Y-68206904D01*
X72572619Y-68159285D01*
X72667857Y-68111666D01*
X72810714Y-68111666D01*
X72905952Y-68159285D01*
X72953571Y-68206904D01*
X73001190Y-68302142D01*
X73001190Y-68683095D01*
X72572619Y-67730714D02*
X72525000Y-67683095D01*
X72477380Y-67587857D01*
X72477380Y-67349761D01*
X72525000Y-67254523D01*
X72572619Y-67206904D01*
X72667857Y-67159285D01*
X72763095Y-67159285D01*
X72905952Y-67206904D01*
X73477380Y-67778333D01*
X73477380Y-67159285D01*
X73477380Y-73620238D02*
X73477380Y-74191666D01*
X73477380Y-73905952D02*
X72477380Y-73905952D01*
X72620238Y-74001190D01*
X72715476Y-74096428D01*
X72763095Y-74191666D01*
X72477380Y-73001190D02*
X72477380Y-72905952D01*
X72525000Y-72810714D01*
X72572619Y-72763095D01*
X72667857Y-72715476D01*
X72858333Y-72667857D01*
X73096428Y-72667857D01*
X73286904Y-72715476D01*
X73382142Y-72763095D01*
X73429761Y-72810714D01*
X73477380Y-72905952D01*
X73477380Y-73001190D01*
X73429761Y-73096428D01*
X73382142Y-73144047D01*
X73286904Y-73191666D01*
X73096428Y-73239285D01*
X72858333Y-73239285D01*
X72667857Y-73191666D01*
X72572619Y-73144047D01*
X72525000Y-73096428D01*
X72477380Y-73001190D01*
X73477380Y-72239285D02*
X72477380Y-72239285D01*
X73096428Y-72144047D02*
X73477380Y-71858333D01*
X72810714Y-71858333D02*
X73191666Y-72239285D01*
X79462380Y-68778333D02*
X80176666Y-68778333D01*
X80319523Y-68825952D01*
X80414761Y-68921190D01*
X80462380Y-69064047D01*
X80462380Y-69159285D01*
X80462380Y-68302142D02*
X79462380Y-68302142D01*
X79462380Y-67921190D01*
X79510000Y-67825952D01*
X79557619Y-67778333D01*
X79652857Y-67730714D01*
X79795714Y-67730714D01*
X79890952Y-67778333D01*
X79938571Y-67825952D01*
X79986190Y-67921190D01*
X79986190Y-68302142D01*
X80462380Y-66778333D02*
X80462380Y-67349761D01*
X80462380Y-67064047D02*
X79462380Y-67064047D01*
X79605238Y-67159285D01*
X79700476Y-67254523D01*
X79748095Y-67349761D01*
X65238333Y-115927142D02*
X65190714Y-115974761D01*
X65047857Y-116022380D01*
X64952619Y-116022380D01*
X64809761Y-115974761D01*
X64714523Y-115879523D01*
X64666904Y-115784285D01*
X64619285Y-115593809D01*
X64619285Y-115450952D01*
X64666904Y-115260476D01*
X64714523Y-115165238D01*
X64809761Y-115070000D01*
X64952619Y-115022380D01*
X65047857Y-115022380D01*
X65190714Y-115070000D01*
X65238333Y-115117619D01*
X66095476Y-115022380D02*
X65905000Y-115022380D01*
X65809761Y-115070000D01*
X65762142Y-115117619D01*
X65666904Y-115260476D01*
X65619285Y-115450952D01*
X65619285Y-115831904D01*
X65666904Y-115927142D01*
X65714523Y-115974761D01*
X65809761Y-116022380D01*
X66000238Y-116022380D01*
X66095476Y-115974761D01*
X66143095Y-115927142D01*
X66190714Y-115831904D01*
X66190714Y-115593809D01*
X66143095Y-115498571D01*
X66095476Y-115450952D01*
X66000238Y-115403333D01*
X65809761Y-115403333D01*
X65714523Y-115450952D01*
X65666904Y-115498571D01*
X65619285Y-115593809D01*
X67341904Y-118530714D02*
X67341904Y-119197380D01*
X67103809Y-118149761D02*
X66865714Y-118864047D01*
X67484761Y-118864047D01*
X67770476Y-118197380D02*
X68437142Y-118197380D01*
X68008571Y-119197380D01*
X68818095Y-118197380D02*
X68818095Y-119006904D01*
X68865714Y-119102142D01*
X68913333Y-119149761D01*
X69008571Y-119197380D01*
X69199047Y-119197380D01*
X69294285Y-119149761D01*
X69341904Y-119102142D01*
X69389523Y-119006904D01*
X69389523Y-118197380D01*
X70199047Y-118673571D02*
X69865714Y-118673571D01*
X69865714Y-119197380D02*
X69865714Y-118197380D01*
X70341904Y-118197380D01*
X89547142Y-83371666D02*
X89594761Y-83419285D01*
X89642380Y-83562142D01*
X89642380Y-83657380D01*
X89594761Y-83800238D01*
X89499523Y-83895476D01*
X89404285Y-83943095D01*
X89213809Y-83990714D01*
X89070952Y-83990714D01*
X88880476Y-83943095D01*
X88785238Y-83895476D01*
X88690000Y-83800238D01*
X88642380Y-83657380D01*
X88642380Y-83562142D01*
X88690000Y-83419285D01*
X88737619Y-83371666D01*
X88642380Y-82466904D02*
X88642380Y-82943095D01*
X89118571Y-82990714D01*
X89070952Y-82943095D01*
X89023333Y-82847857D01*
X89023333Y-82609761D01*
X89070952Y-82514523D01*
X89118571Y-82466904D01*
X89213809Y-82419285D01*
X89451904Y-82419285D01*
X89547142Y-82466904D01*
X89594761Y-82514523D01*
X89642380Y-82609761D01*
X89642380Y-82847857D01*
X89594761Y-82943095D01*
X89547142Y-82990714D01*
X93142380Y-84919285D02*
X93142380Y-84824047D01*
X93190000Y-84728809D01*
X93237619Y-84681190D01*
X93332857Y-84633571D01*
X93523333Y-84585952D01*
X93761428Y-84585952D01*
X93951904Y-84633571D01*
X94047142Y-84681190D01*
X94094761Y-84728809D01*
X94142380Y-84824047D01*
X94142380Y-84919285D01*
X94094761Y-85014523D01*
X94047142Y-85062142D01*
X93951904Y-85109761D01*
X93761428Y-85157380D01*
X93523333Y-85157380D01*
X93332857Y-85109761D01*
X93237619Y-85062142D01*
X93190000Y-85014523D01*
X93142380Y-84919285D01*
X94047142Y-84157380D02*
X94094761Y-84109761D01*
X94142380Y-84157380D01*
X94094761Y-84205000D01*
X94047142Y-84157380D01*
X94142380Y-84157380D01*
X94142380Y-83157380D02*
X94142380Y-83728809D01*
X94142380Y-83443095D02*
X93142380Y-83443095D01*
X93285238Y-83538333D01*
X93380476Y-83633571D01*
X93428095Y-83728809D01*
X93142380Y-82728809D02*
X93951904Y-82728809D01*
X94047142Y-82681190D01*
X94094761Y-82633571D01*
X94142380Y-82538333D01*
X94142380Y-82347857D01*
X94094761Y-82252619D01*
X94047142Y-82205000D01*
X93951904Y-82157380D01*
X93142380Y-82157380D01*
X93618571Y-81347857D02*
X93618571Y-81681190D01*
X94142380Y-81681190D02*
X93142380Y-81681190D01*
X93142380Y-81205000D01*
X152122142Y-107481666D02*
X152169761Y-107529285D01*
X152217380Y-107672142D01*
X152217380Y-107767380D01*
X152169761Y-107910238D01*
X152074523Y-108005476D01*
X151979285Y-108053095D01*
X151788809Y-108100714D01*
X151645952Y-108100714D01*
X151455476Y-108053095D01*
X151360238Y-108005476D01*
X151265000Y-107910238D01*
X151217380Y-107767380D01*
X151217380Y-107672142D01*
X151265000Y-107529285D01*
X151312619Y-107481666D01*
X151550714Y-106624523D02*
X152217380Y-106624523D01*
X151169761Y-106862619D02*
X151884047Y-107100714D01*
X151884047Y-106481666D01*
X153122380Y-109009285D02*
X153122380Y-108914047D01*
X153170000Y-108818809D01*
X153217619Y-108771190D01*
X153312857Y-108723571D01*
X153503333Y-108675952D01*
X153741428Y-108675952D01*
X153931904Y-108723571D01*
X154027142Y-108771190D01*
X154074761Y-108818809D01*
X154122380Y-108914047D01*
X154122380Y-109009285D01*
X154074761Y-109104523D01*
X154027142Y-109152142D01*
X153931904Y-109199761D01*
X153741428Y-109247380D01*
X153503333Y-109247380D01*
X153312857Y-109199761D01*
X153217619Y-109152142D01*
X153170000Y-109104523D01*
X153122380Y-109009285D01*
X154027142Y-108247380D02*
X154074761Y-108199761D01*
X154122380Y-108247380D01*
X154074761Y-108295000D01*
X154027142Y-108247380D01*
X154122380Y-108247380D01*
X154122380Y-107247380D02*
X154122380Y-107818809D01*
X154122380Y-107533095D02*
X153122380Y-107533095D01*
X153265238Y-107628333D01*
X153360476Y-107723571D01*
X153408095Y-107818809D01*
X153122380Y-106818809D02*
X153931904Y-106818809D01*
X154027142Y-106771190D01*
X154074761Y-106723571D01*
X154122380Y-106628333D01*
X154122380Y-106437857D01*
X154074761Y-106342619D01*
X154027142Y-106295000D01*
X153931904Y-106247380D01*
X153122380Y-106247380D01*
X153598571Y-105437857D02*
X153598571Y-105771190D01*
X154122380Y-105771190D02*
X153122380Y-105771190D01*
X153122380Y-105295000D01*
X62877142Y-83752666D02*
X62924761Y-83800285D01*
X62972380Y-83943142D01*
X62972380Y-84038380D01*
X62924761Y-84181238D01*
X62829523Y-84276476D01*
X62734285Y-84324095D01*
X62543809Y-84371714D01*
X62400952Y-84371714D01*
X62210476Y-84324095D01*
X62115238Y-84276476D01*
X62020000Y-84181238D01*
X61972380Y-84038380D01*
X61972380Y-83943142D01*
X62020000Y-83800285D01*
X62067619Y-83752666D01*
X62067619Y-83371714D02*
X62020000Y-83324095D01*
X61972380Y-83228857D01*
X61972380Y-82990761D01*
X62020000Y-82895523D01*
X62067619Y-82847904D01*
X62162857Y-82800285D01*
X62258095Y-82800285D01*
X62400952Y-82847904D01*
X62972380Y-83419333D01*
X62972380Y-82800285D01*
X66472380Y-85300285D02*
X66472380Y-85205047D01*
X66520000Y-85109809D01*
X66567619Y-85062190D01*
X66662857Y-85014571D01*
X66853333Y-84966952D01*
X67091428Y-84966952D01*
X67281904Y-85014571D01*
X67377142Y-85062190D01*
X67424761Y-85109809D01*
X67472380Y-85205047D01*
X67472380Y-85300285D01*
X67424761Y-85395523D01*
X67377142Y-85443142D01*
X67281904Y-85490761D01*
X67091428Y-85538380D01*
X66853333Y-85538380D01*
X66662857Y-85490761D01*
X66567619Y-85443142D01*
X66520000Y-85395523D01*
X66472380Y-85300285D01*
X67377142Y-84538380D02*
X67424761Y-84490761D01*
X67472380Y-84538380D01*
X67424761Y-84586000D01*
X67377142Y-84538380D01*
X67472380Y-84538380D01*
X67472380Y-83538380D02*
X67472380Y-84109809D01*
X67472380Y-83824095D02*
X66472380Y-83824095D01*
X66615238Y-83919333D01*
X66710476Y-84014571D01*
X66758095Y-84109809D01*
X66472380Y-83109809D02*
X67281904Y-83109809D01*
X67377142Y-83062190D01*
X67424761Y-83014571D01*
X67472380Y-82919333D01*
X67472380Y-82728857D01*
X67424761Y-82633619D01*
X67377142Y-82586000D01*
X67281904Y-82538380D01*
X66472380Y-82538380D01*
X66948571Y-81728857D02*
X66948571Y-82062190D01*
X67472380Y-82062190D02*
X66472380Y-82062190D01*
X66472380Y-81586000D01*
X148312142Y-92876666D02*
X148359761Y-92924285D01*
X148407380Y-93067142D01*
X148407380Y-93162380D01*
X148359761Y-93305238D01*
X148264523Y-93400476D01*
X148169285Y-93448095D01*
X147978809Y-93495714D01*
X147835952Y-93495714D01*
X147645476Y-93448095D01*
X147550238Y-93400476D01*
X147455000Y-93305238D01*
X147407380Y-93162380D01*
X147407380Y-93067142D01*
X147455000Y-92924285D01*
X147502619Y-92876666D01*
X148407380Y-91924285D02*
X148407380Y-92495714D01*
X148407380Y-92210000D02*
X147407380Y-92210000D01*
X147550238Y-92305238D01*
X147645476Y-92400476D01*
X147693095Y-92495714D01*
X149312380Y-94424285D02*
X149312380Y-94329047D01*
X149360000Y-94233809D01*
X149407619Y-94186190D01*
X149502857Y-94138571D01*
X149693333Y-94090952D01*
X149931428Y-94090952D01*
X150121904Y-94138571D01*
X150217142Y-94186190D01*
X150264761Y-94233809D01*
X150312380Y-94329047D01*
X150312380Y-94424285D01*
X150264761Y-94519523D01*
X150217142Y-94567142D01*
X150121904Y-94614761D01*
X149931428Y-94662380D01*
X149693333Y-94662380D01*
X149502857Y-94614761D01*
X149407619Y-94567142D01*
X149360000Y-94519523D01*
X149312380Y-94424285D01*
X150217142Y-93662380D02*
X150264761Y-93614761D01*
X150312380Y-93662380D01*
X150264761Y-93710000D01*
X150217142Y-93662380D01*
X150312380Y-93662380D01*
X150312380Y-92662380D02*
X150312380Y-93233809D01*
X150312380Y-92948095D02*
X149312380Y-92948095D01*
X149455238Y-93043333D01*
X149550476Y-93138571D01*
X149598095Y-93233809D01*
X149312380Y-92233809D02*
X150121904Y-92233809D01*
X150217142Y-92186190D01*
X150264761Y-92138571D01*
X150312380Y-92043333D01*
X150312380Y-91852857D01*
X150264761Y-91757619D01*
X150217142Y-91710000D01*
X150121904Y-91662380D01*
X149312380Y-91662380D01*
X149788571Y-90852857D02*
X149788571Y-91186190D01*
X150312380Y-91186190D02*
X149312380Y-91186190D01*
X149312380Y-90710000D01*
M02*
