G04 #@! TF.GenerationSoftware,KiCad,Pcbnew,(5.1.4)-1*
G04 #@! TF.CreationDate,2019-10-26T13:29:07-07:00*
G04 #@! TF.ProjectId,XT Prototype Board,58542050-726f-4746-9f74-79706520426f,rev?*
G04 #@! TF.SameCoordinates,Original*
G04 #@! TF.FileFunction,Legend,Bot*
G04 #@! TF.FilePolarity,Positive*
%FSLAX46Y46*%
G04 Gerber Fmt 4.6, Leading zero omitted, Abs format (unit mm)*
G04 Created by KiCad (PCBNEW (5.1.4)-1) date 2019-10-26 13:29:07*
%MOMM*%
%LPD*%
G04 APERTURE LIST*
%ADD10C,0.150000*%
%ADD11C,0.300000*%
%ADD12C,0.600000*%
G04 APERTURE END LIST*
D10*
X144253928Y-113896190D02*
X144253928Y-114372380D01*
X144587261Y-113372380D02*
X144253928Y-113896190D01*
X143920595Y-113372380D01*
X143444404Y-114372380D02*
X143539642Y-114324761D01*
X143587261Y-114277142D01*
X143634880Y-114181904D01*
X143634880Y-113896190D01*
X143587261Y-113800952D01*
X143539642Y-113753333D01*
X143444404Y-113705714D01*
X143301547Y-113705714D01*
X143206309Y-113753333D01*
X143158690Y-113800952D01*
X143111071Y-113896190D01*
X143111071Y-114181904D01*
X143158690Y-114277142D01*
X143206309Y-114324761D01*
X143301547Y-114372380D01*
X143444404Y-114372380D01*
X142253928Y-113705714D02*
X142253928Y-114372380D01*
X142682500Y-113705714D02*
X142682500Y-114229523D01*
X142634880Y-114324761D01*
X142539642Y-114372380D01*
X142396785Y-114372380D01*
X142301547Y-114324761D01*
X142253928Y-114277142D01*
X140587261Y-114324761D02*
X140682500Y-114372380D01*
X140872976Y-114372380D01*
X140968214Y-114324761D01*
X141015833Y-114277142D01*
X141063452Y-114181904D01*
X141063452Y-113896190D01*
X141015833Y-113800952D01*
X140968214Y-113753333D01*
X140872976Y-113705714D01*
X140682500Y-113705714D01*
X140587261Y-113753333D01*
X139730119Y-114372380D02*
X139730119Y-113848571D01*
X139777738Y-113753333D01*
X139872976Y-113705714D01*
X140063452Y-113705714D01*
X140158690Y-113753333D01*
X139730119Y-114324761D02*
X139825357Y-114372380D01*
X140063452Y-114372380D01*
X140158690Y-114324761D01*
X140206309Y-114229523D01*
X140206309Y-114134285D01*
X140158690Y-114039047D01*
X140063452Y-113991428D01*
X139825357Y-113991428D01*
X139730119Y-113943809D01*
X139253928Y-113705714D02*
X139253928Y-114372380D01*
X139253928Y-113800952D02*
X139206309Y-113753333D01*
X139111071Y-113705714D01*
X138968214Y-113705714D01*
X138872976Y-113753333D01*
X138825357Y-113848571D01*
X138825357Y-114372380D01*
X137444404Y-114372380D02*
X137539642Y-114324761D01*
X137587261Y-114277142D01*
X137634880Y-114181904D01*
X137634880Y-113896190D01*
X137587261Y-113800952D01*
X137539642Y-113753333D01*
X137444404Y-113705714D01*
X137301547Y-113705714D01*
X137206309Y-113753333D01*
X137158690Y-113800952D01*
X137111071Y-113896190D01*
X137111071Y-114181904D01*
X137158690Y-114277142D01*
X137206309Y-114324761D01*
X137301547Y-114372380D01*
X137444404Y-114372380D01*
X136682500Y-114372380D02*
X136682500Y-113705714D01*
X136682500Y-113800952D02*
X136634880Y-113753333D01*
X136539642Y-113705714D01*
X136396785Y-113705714D01*
X136301547Y-113753333D01*
X136253928Y-113848571D01*
X136253928Y-114372380D01*
X136253928Y-113848571D02*
X136206309Y-113753333D01*
X136111071Y-113705714D01*
X135968214Y-113705714D01*
X135872976Y-113753333D01*
X135825357Y-113848571D01*
X135825357Y-114372380D01*
X135349166Y-114372380D02*
X135349166Y-113705714D01*
X135349166Y-113372380D02*
X135396785Y-113420000D01*
X135349166Y-113467619D01*
X135301547Y-113420000D01*
X135349166Y-113372380D01*
X135349166Y-113467619D01*
X135015833Y-113705714D02*
X134634880Y-113705714D01*
X134872976Y-113372380D02*
X134872976Y-114229523D01*
X134825357Y-114324761D01*
X134730119Y-114372380D01*
X134634880Y-114372380D01*
X133539642Y-114372380D02*
X133539642Y-113372380D01*
X133301547Y-113372380D01*
X133158690Y-113420000D01*
X133063452Y-113515238D01*
X133015833Y-113610476D01*
X132968214Y-113800952D01*
X132968214Y-113943809D01*
X133015833Y-114134285D01*
X133063452Y-114229523D01*
X133158690Y-114324761D01*
X133301547Y-114372380D01*
X133539642Y-114372380D01*
X132015833Y-114372380D02*
X132587261Y-114372380D01*
X132301547Y-114372380D02*
X132301547Y-113372380D01*
X132396785Y-113515238D01*
X132492023Y-113610476D01*
X132587261Y-113658095D01*
X131539642Y-114324761D02*
X131539642Y-114372380D01*
X131587261Y-114467619D01*
X131634880Y-114515238D01*
X129777738Y-114372380D02*
X130111071Y-113896190D01*
X130349166Y-114372380D02*
X130349166Y-113372380D01*
X129968214Y-113372380D01*
X129872976Y-113420000D01*
X129825357Y-113467619D01*
X129777738Y-113562857D01*
X129777738Y-113705714D01*
X129825357Y-113800952D01*
X129872976Y-113848571D01*
X129968214Y-113896190D01*
X130349166Y-113896190D01*
X128825357Y-114372380D02*
X129396785Y-114372380D01*
X129111071Y-114372380D02*
X129111071Y-113372380D01*
X129206309Y-113515238D01*
X129301547Y-113610476D01*
X129396785Y-113658095D01*
X128349166Y-114324761D02*
X128349166Y-114372380D01*
X128396785Y-114467619D01*
X128444404Y-114515238D01*
X126872976Y-113372380D02*
X126872976Y-114086666D01*
X126920595Y-114229523D01*
X127015833Y-114324761D01*
X127158690Y-114372380D01*
X127253928Y-114372380D01*
X126396785Y-114372380D02*
X126396785Y-113372380D01*
X126015833Y-113372380D01*
X125920595Y-113420000D01*
X125872976Y-113467619D01*
X125825357Y-113562857D01*
X125825357Y-113705714D01*
X125872976Y-113800952D01*
X125920595Y-113848571D01*
X126015833Y-113896190D01*
X126396785Y-113896190D01*
X125444404Y-113467619D02*
X125396785Y-113420000D01*
X125301547Y-113372380D01*
X125063452Y-113372380D01*
X124968214Y-113420000D01*
X124920595Y-113467619D01*
X124872976Y-113562857D01*
X124872976Y-113658095D01*
X124920595Y-113800952D01*
X125492023Y-114372380D01*
X124872976Y-114372380D01*
X124396785Y-114324761D02*
X124396785Y-114372380D01*
X124444404Y-114467619D01*
X124492023Y-114515238D01*
X123206309Y-113372380D02*
X123206309Y-114181904D01*
X123158690Y-114277142D01*
X123111071Y-114324761D01*
X123015833Y-114372380D01*
X122825357Y-114372380D01*
X122730119Y-114324761D01*
X122682500Y-114277142D01*
X122634880Y-114181904D01*
X122634880Y-113372380D01*
X121730119Y-113705714D02*
X121730119Y-114372380D01*
X121968214Y-113324761D02*
X122206309Y-114039047D01*
X121587261Y-114039047D01*
X121158690Y-114324761D02*
X121158690Y-114372380D01*
X121206309Y-114467619D01*
X121253928Y-114515238D01*
X119968214Y-113372380D02*
X119968214Y-114181904D01*
X119920595Y-114277142D01*
X119872976Y-114324761D01*
X119777738Y-114372380D01*
X119587261Y-114372380D01*
X119492023Y-114324761D01*
X119444404Y-114277142D01*
X119396785Y-114181904D01*
X119396785Y-113372380D01*
X118444404Y-113372380D02*
X118920595Y-113372380D01*
X118968214Y-113848571D01*
X118920595Y-113800952D01*
X118825357Y-113753333D01*
X118587261Y-113753333D01*
X118492023Y-113800952D01*
X118444404Y-113848571D01*
X118396785Y-113943809D01*
X118396785Y-114181904D01*
X118444404Y-114277142D01*
X118492023Y-114324761D01*
X118587261Y-114372380D01*
X118825357Y-114372380D01*
X118920595Y-114324761D01*
X118968214Y-114277142D01*
X117920595Y-114324761D02*
X117920595Y-114372380D01*
X117968214Y-114467619D01*
X118015833Y-114515238D01*
X116158690Y-114277142D02*
X116206309Y-114324761D01*
X116349166Y-114372380D01*
X116444404Y-114372380D01*
X116587261Y-114324761D01*
X116682500Y-114229523D01*
X116730119Y-114134285D01*
X116777738Y-113943809D01*
X116777738Y-113800952D01*
X116730119Y-113610476D01*
X116682500Y-113515238D01*
X116587261Y-113420000D01*
X116444404Y-113372380D01*
X116349166Y-113372380D01*
X116206309Y-113420000D01*
X116158690Y-113467619D01*
X115777738Y-113467619D02*
X115730119Y-113420000D01*
X115634880Y-113372380D01*
X115396785Y-113372380D01*
X115301547Y-113420000D01*
X115253928Y-113467619D01*
X115206309Y-113562857D01*
X115206309Y-113658095D01*
X115253928Y-113800952D01*
X115825357Y-114372380D01*
X115206309Y-114372380D01*
X114730119Y-114324761D02*
X114730119Y-114372380D01*
X114777738Y-114467619D01*
X114825357Y-114515238D01*
X113111071Y-114372380D02*
X113111071Y-113848571D01*
X113158690Y-113753333D01*
X113253928Y-113705714D01*
X113444404Y-113705714D01*
X113539642Y-113753333D01*
X113111071Y-114324761D02*
X113206309Y-114372380D01*
X113444404Y-114372380D01*
X113539642Y-114324761D01*
X113587261Y-114229523D01*
X113587261Y-114134285D01*
X113539642Y-114039047D01*
X113444404Y-113991428D01*
X113206309Y-113991428D01*
X113111071Y-113943809D01*
X112634880Y-113705714D02*
X112634880Y-114372380D01*
X112634880Y-113800952D02*
X112587261Y-113753333D01*
X112492023Y-113705714D01*
X112349166Y-113705714D01*
X112253928Y-113753333D01*
X112206309Y-113848571D01*
X112206309Y-114372380D01*
X111301547Y-114372380D02*
X111301547Y-113372380D01*
X111301547Y-114324761D02*
X111396785Y-114372380D01*
X111587261Y-114372380D01*
X111682500Y-114324761D01*
X111730119Y-114277142D01*
X111777738Y-114181904D01*
X111777738Y-113896190D01*
X111730119Y-113800952D01*
X111682500Y-113753333D01*
X111587261Y-113705714D01*
X111396785Y-113705714D01*
X111301547Y-113753333D01*
X109492023Y-114277142D02*
X109539642Y-114324761D01*
X109682500Y-114372380D01*
X109777738Y-114372380D01*
X109920595Y-114324761D01*
X110015833Y-114229523D01*
X110063452Y-114134285D01*
X110111071Y-113943809D01*
X110111071Y-113800952D01*
X110063452Y-113610476D01*
X110015833Y-113515238D01*
X109920595Y-113420000D01*
X109777738Y-113372380D01*
X109682500Y-113372380D01*
X109539642Y-113420000D01*
X109492023Y-113467619D01*
X108587261Y-113372380D02*
X109063452Y-113372380D01*
X109111071Y-113848571D01*
X109063452Y-113800952D01*
X108968214Y-113753333D01*
X108730119Y-113753333D01*
X108634880Y-113800952D01*
X108587261Y-113848571D01*
X108539642Y-113943809D01*
X108539642Y-114181904D01*
X108587261Y-114277142D01*
X108634880Y-114324761D01*
X108730119Y-114372380D01*
X108968214Y-114372380D01*
X109063452Y-114324761D01*
X109111071Y-114277142D01*
X144444404Y-116022380D02*
X144444404Y-115355714D01*
X144444404Y-115022380D02*
X144492023Y-115070000D01*
X144444404Y-115117619D01*
X144396785Y-115070000D01*
X144444404Y-115022380D01*
X144444404Y-115117619D01*
X144111071Y-115355714D02*
X143730119Y-115355714D01*
X143968214Y-116022380D02*
X143968214Y-115165238D01*
X143920595Y-115070000D01*
X143825357Y-115022380D01*
X143730119Y-115022380D01*
X142730119Y-115355714D02*
X142492023Y-116022380D01*
X142253928Y-115355714D02*
X142492023Y-116022380D01*
X142587261Y-116260476D01*
X142634880Y-116308095D01*
X142730119Y-116355714D01*
X141730119Y-116022380D02*
X141825357Y-115974761D01*
X141872976Y-115927142D01*
X141920595Y-115831904D01*
X141920595Y-115546190D01*
X141872976Y-115450952D01*
X141825357Y-115403333D01*
X141730119Y-115355714D01*
X141587261Y-115355714D01*
X141492023Y-115403333D01*
X141444404Y-115450952D01*
X141396785Y-115546190D01*
X141396785Y-115831904D01*
X141444404Y-115927142D01*
X141492023Y-115974761D01*
X141587261Y-116022380D01*
X141730119Y-116022380D01*
X140539642Y-115355714D02*
X140539642Y-116022380D01*
X140968214Y-115355714D02*
X140968214Y-115879523D01*
X140920595Y-115974761D01*
X140825357Y-116022380D01*
X140682500Y-116022380D01*
X140587261Y-115974761D01*
X140539642Y-115927142D01*
X138872976Y-116022380D02*
X138872976Y-115022380D01*
X138872976Y-115974761D02*
X138968214Y-116022380D01*
X139158690Y-116022380D01*
X139253928Y-115974761D01*
X139301547Y-115927142D01*
X139349166Y-115831904D01*
X139349166Y-115546190D01*
X139301547Y-115450952D01*
X139253928Y-115403333D01*
X139158690Y-115355714D01*
X138968214Y-115355714D01*
X138872976Y-115403333D01*
X138253928Y-116022380D02*
X138349166Y-115974761D01*
X138396785Y-115927142D01*
X138444404Y-115831904D01*
X138444404Y-115546190D01*
X138396785Y-115450952D01*
X138349166Y-115403333D01*
X138253928Y-115355714D01*
X138111071Y-115355714D01*
X138015833Y-115403333D01*
X137968214Y-115450952D01*
X137920595Y-115546190D01*
X137920595Y-115831904D01*
X137968214Y-115927142D01*
X138015833Y-115974761D01*
X138111071Y-116022380D01*
X138253928Y-116022380D01*
X136730119Y-115355714D02*
X136730119Y-116022380D01*
X136730119Y-115450952D02*
X136682500Y-115403333D01*
X136587261Y-115355714D01*
X136444404Y-115355714D01*
X136349166Y-115403333D01*
X136301547Y-115498571D01*
X136301547Y-116022380D01*
X135682500Y-116022380D02*
X135777738Y-115974761D01*
X135825357Y-115927142D01*
X135872976Y-115831904D01*
X135872976Y-115546190D01*
X135825357Y-115450952D01*
X135777738Y-115403333D01*
X135682500Y-115355714D01*
X135539642Y-115355714D01*
X135444404Y-115403333D01*
X135396785Y-115450952D01*
X135349166Y-115546190D01*
X135349166Y-115831904D01*
X135396785Y-115927142D01*
X135444404Y-115974761D01*
X135539642Y-116022380D01*
X135682500Y-116022380D01*
X135063452Y-115355714D02*
X134682500Y-115355714D01*
X134920595Y-115022380D02*
X134920595Y-115879523D01*
X134872976Y-115974761D01*
X134777738Y-116022380D01*
X134682500Y-116022380D01*
X133587261Y-115355714D02*
X133587261Y-116022380D01*
X133587261Y-115450952D02*
X133539642Y-115403333D01*
X133444404Y-115355714D01*
X133301547Y-115355714D01*
X133206309Y-115403333D01*
X133158690Y-115498571D01*
X133158690Y-116022380D01*
X132301547Y-115974761D02*
X132396785Y-116022380D01*
X132587261Y-116022380D01*
X132682500Y-115974761D01*
X132730119Y-115879523D01*
X132730119Y-115498571D01*
X132682500Y-115403333D01*
X132587261Y-115355714D01*
X132396785Y-115355714D01*
X132301547Y-115403333D01*
X132253928Y-115498571D01*
X132253928Y-115593809D01*
X132730119Y-115689047D01*
X131444404Y-115974761D02*
X131539642Y-116022380D01*
X131730119Y-116022380D01*
X131825357Y-115974761D01*
X131872976Y-115879523D01*
X131872976Y-115498571D01*
X131825357Y-115403333D01*
X131730119Y-115355714D01*
X131539642Y-115355714D01*
X131444404Y-115403333D01*
X131396785Y-115498571D01*
X131396785Y-115593809D01*
X131872976Y-115689047D01*
X130539642Y-116022380D02*
X130539642Y-115022380D01*
X130539642Y-115974761D02*
X130634880Y-116022380D01*
X130825357Y-116022380D01*
X130920595Y-115974761D01*
X130968214Y-115927142D01*
X131015833Y-115831904D01*
X131015833Y-115546190D01*
X130968214Y-115450952D01*
X130920595Y-115403333D01*
X130825357Y-115355714D01*
X130634880Y-115355714D01*
X130539642Y-115403333D01*
X129444404Y-115355714D02*
X129063452Y-115355714D01*
X129301547Y-115022380D02*
X129301547Y-115879523D01*
X129253928Y-115974761D01*
X129158690Y-116022380D01*
X129063452Y-116022380D01*
X128587261Y-116022380D02*
X128682500Y-115974761D01*
X128730119Y-115927142D01*
X128777738Y-115831904D01*
X128777738Y-115546190D01*
X128730119Y-115450952D01*
X128682500Y-115403333D01*
X128587261Y-115355714D01*
X128444404Y-115355714D01*
X128349166Y-115403333D01*
X128301547Y-115450952D01*
X128253928Y-115546190D01*
X128253928Y-115831904D01*
X128301547Y-115927142D01*
X128349166Y-115974761D01*
X128444404Y-116022380D01*
X128587261Y-116022380D01*
X127063452Y-116022380D02*
X127063452Y-115355714D01*
X127063452Y-115546190D02*
X127015833Y-115450952D01*
X126968214Y-115403333D01*
X126872976Y-115355714D01*
X126777738Y-115355714D01*
X126063452Y-115974761D02*
X126158690Y-116022380D01*
X126349166Y-116022380D01*
X126444404Y-115974761D01*
X126492023Y-115879523D01*
X126492023Y-115498571D01*
X126444404Y-115403333D01*
X126349166Y-115355714D01*
X126158690Y-115355714D01*
X126063452Y-115403333D01*
X126015833Y-115498571D01*
X126015833Y-115593809D01*
X126492023Y-115689047D01*
X125158690Y-116022380D02*
X125158690Y-115022380D01*
X125158690Y-115974761D02*
X125253928Y-116022380D01*
X125444404Y-116022380D01*
X125539642Y-115974761D01*
X125587261Y-115927142D01*
X125634880Y-115831904D01*
X125634880Y-115546190D01*
X125587261Y-115450952D01*
X125539642Y-115403333D01*
X125444404Y-115355714D01*
X125253928Y-115355714D01*
X125158690Y-115403333D01*
X124253928Y-115355714D02*
X124253928Y-116022380D01*
X124682500Y-115355714D02*
X124682500Y-115879523D01*
X124634880Y-115974761D01*
X124539642Y-116022380D01*
X124396785Y-116022380D01*
X124301547Y-115974761D01*
X124253928Y-115927142D01*
X123349166Y-115974761D02*
X123444404Y-116022380D01*
X123634880Y-116022380D01*
X123730119Y-115974761D01*
X123777738Y-115927142D01*
X123825357Y-115831904D01*
X123825357Y-115546190D01*
X123777738Y-115450952D01*
X123730119Y-115403333D01*
X123634880Y-115355714D01*
X123444404Y-115355714D01*
X123349166Y-115403333D01*
X122539642Y-115974761D02*
X122634880Y-116022380D01*
X122825357Y-116022380D01*
X122920595Y-115974761D01*
X122968214Y-115879523D01*
X122968214Y-115498571D01*
X122920595Y-115403333D01*
X122825357Y-115355714D01*
X122634880Y-115355714D01*
X122539642Y-115403333D01*
X122492023Y-115498571D01*
X122492023Y-115593809D01*
X122968214Y-115689047D01*
X121301547Y-115022380D02*
X121301547Y-115831904D01*
X121253928Y-115927142D01*
X121206309Y-115974761D01*
X121111071Y-116022380D01*
X120920595Y-116022380D01*
X120825357Y-115974761D01*
X120777738Y-115927142D01*
X120730119Y-115831904D01*
X120730119Y-115022380D01*
X120253928Y-116022380D02*
X120253928Y-115022380D01*
X119920595Y-115736666D01*
X119587261Y-115022380D01*
X119587261Y-116022380D01*
X118777738Y-115498571D02*
X118634880Y-115546190D01*
X118587261Y-115593809D01*
X118539642Y-115689047D01*
X118539642Y-115831904D01*
X118587261Y-115927142D01*
X118634880Y-115974761D01*
X118730119Y-116022380D01*
X119111071Y-116022380D01*
X119111071Y-115022380D01*
X118777738Y-115022380D01*
X118682500Y-115070000D01*
X118634880Y-115117619D01*
X118587261Y-115212857D01*
X118587261Y-115308095D01*
X118634880Y-115403333D01*
X118682500Y-115450952D01*
X118777738Y-115498571D01*
X119111071Y-115498571D01*
X117396785Y-115974761D02*
X117301547Y-116022380D01*
X117111071Y-116022380D01*
X117015833Y-115974761D01*
X116968214Y-115879523D01*
X116968214Y-115831904D01*
X117015833Y-115736666D01*
X117111071Y-115689047D01*
X117253928Y-115689047D01*
X117349166Y-115641428D01*
X117396785Y-115546190D01*
X117396785Y-115498571D01*
X117349166Y-115403333D01*
X117253928Y-115355714D01*
X117111071Y-115355714D01*
X117015833Y-115403333D01*
X116539642Y-116022380D02*
X116539642Y-115355714D01*
X116539642Y-115022380D02*
X116587261Y-115070000D01*
X116539642Y-115117619D01*
X116492023Y-115070000D01*
X116539642Y-115022380D01*
X116539642Y-115117619D01*
X116158690Y-115355714D02*
X115634880Y-115355714D01*
X116158690Y-116022380D01*
X115634880Y-116022380D01*
X114872976Y-115974761D02*
X114968214Y-116022380D01*
X115158690Y-116022380D01*
X115253928Y-115974761D01*
X115301547Y-115879523D01*
X115301547Y-115498571D01*
X115253928Y-115403333D01*
X115158690Y-115355714D01*
X114968214Y-115355714D01*
X114872976Y-115403333D01*
X114825357Y-115498571D01*
X114825357Y-115593809D01*
X115301547Y-115689047D01*
X114396785Y-115927142D02*
X114349166Y-115974761D01*
X114396785Y-116022380D01*
X114444404Y-115974761D01*
X114396785Y-115927142D01*
X114396785Y-116022380D01*
X144253928Y-117196190D02*
X144253928Y-117672380D01*
X144587261Y-116672380D02*
X144253928Y-117196190D01*
X143920595Y-116672380D01*
X143444404Y-117672380D02*
X143539642Y-117624761D01*
X143587261Y-117577142D01*
X143634880Y-117481904D01*
X143634880Y-117196190D01*
X143587261Y-117100952D01*
X143539642Y-117053333D01*
X143444404Y-117005714D01*
X143301547Y-117005714D01*
X143206309Y-117053333D01*
X143158690Y-117100952D01*
X143111071Y-117196190D01*
X143111071Y-117481904D01*
X143158690Y-117577142D01*
X143206309Y-117624761D01*
X143301547Y-117672380D01*
X143444404Y-117672380D01*
X142253928Y-117005714D02*
X142253928Y-117672380D01*
X142682500Y-117005714D02*
X142682500Y-117529523D01*
X142634880Y-117624761D01*
X142539642Y-117672380D01*
X142396785Y-117672380D01*
X142301547Y-117624761D01*
X142253928Y-117577142D01*
X141015833Y-117672380D02*
X141015833Y-117005714D01*
X141015833Y-117100952D02*
X140968214Y-117053333D01*
X140872976Y-117005714D01*
X140730119Y-117005714D01*
X140634880Y-117053333D01*
X140587261Y-117148571D01*
X140587261Y-117672380D01*
X140587261Y-117148571D02*
X140539642Y-117053333D01*
X140444404Y-117005714D01*
X140301547Y-117005714D01*
X140206309Y-117053333D01*
X140158690Y-117148571D01*
X140158690Y-117672380D01*
X139253928Y-117005714D02*
X139253928Y-117672380D01*
X139682500Y-117005714D02*
X139682500Y-117529523D01*
X139634880Y-117624761D01*
X139539642Y-117672380D01*
X139396785Y-117672380D01*
X139301547Y-117624761D01*
X139253928Y-117577142D01*
X138825357Y-117624761D02*
X138730119Y-117672380D01*
X138539642Y-117672380D01*
X138444404Y-117624761D01*
X138396785Y-117529523D01*
X138396785Y-117481904D01*
X138444404Y-117386666D01*
X138539642Y-117339047D01*
X138682500Y-117339047D01*
X138777738Y-117291428D01*
X138825357Y-117196190D01*
X138825357Y-117148571D01*
X138777738Y-117053333D01*
X138682500Y-117005714D01*
X138539642Y-117005714D01*
X138444404Y-117053333D01*
X138111071Y-117005714D02*
X137730119Y-117005714D01*
X137968214Y-116672380D02*
X137968214Y-117529523D01*
X137920595Y-117624761D01*
X137825357Y-117672380D01*
X137730119Y-117672380D01*
X136634880Y-117005714D02*
X136634880Y-117862857D01*
X136682500Y-117958095D01*
X136777738Y-118005714D01*
X136825357Y-118005714D01*
X136634880Y-116672380D02*
X136682500Y-116720000D01*
X136634880Y-116767619D01*
X136587261Y-116720000D01*
X136634880Y-116672380D01*
X136634880Y-116767619D01*
X135730119Y-117005714D02*
X135730119Y-117672380D01*
X136158690Y-117005714D02*
X136158690Y-117529523D01*
X136111071Y-117624761D01*
X136015833Y-117672380D01*
X135872976Y-117672380D01*
X135777738Y-117624761D01*
X135730119Y-117577142D01*
X135253928Y-117672380D02*
X135253928Y-117005714D01*
X135253928Y-117100952D02*
X135206309Y-117053333D01*
X135111071Y-117005714D01*
X134968214Y-117005714D01*
X134872976Y-117053333D01*
X134825357Y-117148571D01*
X134825357Y-117672380D01*
X134825357Y-117148571D02*
X134777738Y-117053333D01*
X134682500Y-117005714D01*
X134539642Y-117005714D01*
X134444404Y-117053333D01*
X134396785Y-117148571D01*
X134396785Y-117672380D01*
X133920595Y-117005714D02*
X133920595Y-118005714D01*
X133920595Y-117053333D02*
X133825357Y-117005714D01*
X133634880Y-117005714D01*
X133539642Y-117053333D01*
X133492023Y-117100952D01*
X133444404Y-117196190D01*
X133444404Y-117481904D01*
X133492023Y-117577142D01*
X133539642Y-117624761D01*
X133634880Y-117672380D01*
X133825357Y-117672380D01*
X133920595Y-117624761D01*
X132634880Y-117624761D02*
X132730119Y-117672380D01*
X132920595Y-117672380D01*
X133015833Y-117624761D01*
X133063452Y-117529523D01*
X133063452Y-117148571D01*
X133015833Y-117053333D01*
X132920595Y-117005714D01*
X132730119Y-117005714D01*
X132634880Y-117053333D01*
X132587261Y-117148571D01*
X132587261Y-117243809D01*
X133063452Y-117339047D01*
X132158690Y-117672380D02*
X132158690Y-117005714D01*
X132158690Y-117196190D02*
X132111071Y-117100952D01*
X132063452Y-117053333D01*
X131968214Y-117005714D01*
X131872976Y-117005714D01*
X130492023Y-116672380D02*
X130492023Y-117386666D01*
X130539642Y-117529523D01*
X130634880Y-117624761D01*
X130777738Y-117672380D01*
X130872976Y-117672380D01*
X130015833Y-117672380D02*
X130015833Y-116672380D01*
X129634880Y-116672380D01*
X129539642Y-116720000D01*
X129492023Y-116767619D01*
X129444404Y-116862857D01*
X129444404Y-117005714D01*
X129492023Y-117100952D01*
X129539642Y-117148571D01*
X129634880Y-117196190D01*
X130015833Y-117196190D01*
X129111071Y-116672380D02*
X128492023Y-116672380D01*
X128825357Y-117053333D01*
X128682500Y-117053333D01*
X128587261Y-117100952D01*
X128539642Y-117148571D01*
X128492023Y-117243809D01*
X128492023Y-117481904D01*
X128539642Y-117577142D01*
X128587261Y-117624761D01*
X128682500Y-117672380D01*
X128968214Y-117672380D01*
X129063452Y-117624761D01*
X129111071Y-117577142D01*
X127396785Y-117005714D02*
X127206309Y-117672380D01*
X127015833Y-117196190D01*
X126825357Y-117672380D01*
X126634880Y-117005714D01*
X126253928Y-117672380D02*
X126253928Y-116672380D01*
X125825357Y-117672380D02*
X125825357Y-117148571D01*
X125872976Y-117053333D01*
X125968214Y-117005714D01*
X126111071Y-117005714D01*
X126206309Y-117053333D01*
X126253928Y-117100952D01*
X124968214Y-117624761D02*
X125063452Y-117672380D01*
X125253928Y-117672380D01*
X125349166Y-117624761D01*
X125396785Y-117529523D01*
X125396785Y-117148571D01*
X125349166Y-117053333D01*
X125253928Y-117005714D01*
X125063452Y-117005714D01*
X124968214Y-117053333D01*
X124920595Y-117148571D01*
X124920595Y-117243809D01*
X125396785Y-117339047D01*
X124492023Y-117005714D02*
X124492023Y-117672380D01*
X124492023Y-117100952D02*
X124444404Y-117053333D01*
X124349166Y-117005714D01*
X124206309Y-117005714D01*
X124111071Y-117053333D01*
X124063452Y-117148571D01*
X124063452Y-117672380D01*
X122396785Y-117672380D02*
X122396785Y-116672380D01*
X122396785Y-117624761D02*
X122492023Y-117672380D01*
X122682500Y-117672380D01*
X122777738Y-117624761D01*
X122825357Y-117577142D01*
X122872976Y-117481904D01*
X122872976Y-117196190D01*
X122825357Y-117100952D01*
X122777738Y-117053333D01*
X122682500Y-117005714D01*
X122492023Y-117005714D01*
X122396785Y-117053333D01*
X121777738Y-117672380D02*
X121872976Y-117624761D01*
X121920595Y-117577142D01*
X121968214Y-117481904D01*
X121968214Y-117196190D01*
X121920595Y-117100952D01*
X121872976Y-117053333D01*
X121777738Y-117005714D01*
X121634880Y-117005714D01*
X121539642Y-117053333D01*
X121492023Y-117100952D01*
X121444404Y-117196190D01*
X121444404Y-117481904D01*
X121492023Y-117577142D01*
X121539642Y-117624761D01*
X121634880Y-117672380D01*
X121777738Y-117672380D01*
X121015833Y-117672380D02*
X121015833Y-117005714D01*
X121015833Y-116672380D02*
X121063452Y-116720000D01*
X121015833Y-116767619D01*
X120968214Y-116720000D01*
X121015833Y-116672380D01*
X121015833Y-116767619D01*
X120539642Y-117005714D02*
X120539642Y-117672380D01*
X120539642Y-117100952D02*
X120492023Y-117053333D01*
X120396785Y-117005714D01*
X120253928Y-117005714D01*
X120158690Y-117053333D01*
X120111071Y-117148571D01*
X120111071Y-117672380D01*
X119206309Y-117005714D02*
X119206309Y-117815238D01*
X119253928Y-117910476D01*
X119301547Y-117958095D01*
X119396785Y-118005714D01*
X119539642Y-118005714D01*
X119634880Y-117958095D01*
X119206309Y-117624761D02*
X119301547Y-117672380D01*
X119492023Y-117672380D01*
X119587261Y-117624761D01*
X119634880Y-117577142D01*
X119682500Y-117481904D01*
X119682500Y-117196190D01*
X119634880Y-117100952D01*
X119587261Y-117053333D01*
X119492023Y-117005714D01*
X119301547Y-117005714D01*
X119206309Y-117053333D01*
X118111071Y-117005714D02*
X117730119Y-117005714D01*
X117968214Y-116672380D02*
X117968214Y-117529523D01*
X117920595Y-117624761D01*
X117825357Y-117672380D01*
X117730119Y-117672380D01*
X117396785Y-117672380D02*
X117396785Y-116672380D01*
X116968214Y-117672380D02*
X116968214Y-117148571D01*
X117015833Y-117053333D01*
X117111071Y-117005714D01*
X117253928Y-117005714D01*
X117349166Y-117053333D01*
X117396785Y-117100952D01*
X116492023Y-117672380D02*
X116492023Y-117005714D01*
X116492023Y-116672380D02*
X116539642Y-116720000D01*
X116492023Y-116767619D01*
X116444404Y-116720000D01*
X116492023Y-116672380D01*
X116492023Y-116767619D01*
X116063452Y-117624761D02*
X115968214Y-117672380D01*
X115777738Y-117672380D01*
X115682500Y-117624761D01*
X115634880Y-117529523D01*
X115634880Y-117481904D01*
X115682500Y-117386666D01*
X115777738Y-117339047D01*
X115920595Y-117339047D01*
X116015833Y-117291428D01*
X116063452Y-117196190D01*
X116063452Y-117148571D01*
X116015833Y-117053333D01*
X115920595Y-117005714D01*
X115777738Y-117005714D01*
X115682500Y-117053333D01*
X115206309Y-117577142D02*
X115158690Y-117624761D01*
X115206309Y-117672380D01*
X115253928Y-117624761D01*
X115206309Y-117577142D01*
X115206309Y-117672380D01*
X115206309Y-117291428D02*
X115253928Y-116720000D01*
X115206309Y-116672380D01*
X115158690Y-116720000D01*
X115206309Y-117291428D01*
X115206309Y-116672380D01*
X105074404Y-108037380D02*
X105074404Y-108846904D01*
X105026785Y-108942142D01*
X104979166Y-108989761D01*
X104883928Y-109037380D01*
X104693452Y-109037380D01*
X104598214Y-108989761D01*
X104550595Y-108942142D01*
X104502976Y-108846904D01*
X104502976Y-108037380D01*
X104074404Y-108989761D02*
X103979166Y-109037380D01*
X103788690Y-109037380D01*
X103693452Y-108989761D01*
X103645833Y-108894523D01*
X103645833Y-108846904D01*
X103693452Y-108751666D01*
X103788690Y-108704047D01*
X103931547Y-108704047D01*
X104026785Y-108656428D01*
X104074404Y-108561190D01*
X104074404Y-108513571D01*
X104026785Y-108418333D01*
X103931547Y-108370714D01*
X103788690Y-108370714D01*
X103693452Y-108418333D01*
X102836309Y-108989761D02*
X102931547Y-109037380D01*
X103122023Y-109037380D01*
X103217261Y-108989761D01*
X103264880Y-108894523D01*
X103264880Y-108513571D01*
X103217261Y-108418333D01*
X103122023Y-108370714D01*
X102931547Y-108370714D01*
X102836309Y-108418333D01*
X102788690Y-108513571D01*
X102788690Y-108608809D01*
X103264880Y-108704047D01*
X101169642Y-108370714D02*
X101169642Y-109037380D01*
X101407738Y-107989761D02*
X101645833Y-108704047D01*
X101026785Y-108704047D01*
X100645833Y-108942142D02*
X100598214Y-108989761D01*
X100645833Y-109037380D01*
X100693452Y-108989761D01*
X100645833Y-108942142D01*
X100645833Y-109037380D01*
X100264880Y-108037380D02*
X99598214Y-108037380D01*
X100026785Y-109037380D01*
X99217261Y-109037380D02*
X99217261Y-108037380D01*
X99122023Y-108656428D02*
X98836309Y-109037380D01*
X98836309Y-108370714D02*
X99217261Y-108751666D01*
X97645833Y-109037380D02*
X97645833Y-108370714D01*
X97645833Y-108561190D02*
X97598214Y-108465952D01*
X97550595Y-108418333D01*
X97455357Y-108370714D01*
X97360119Y-108370714D01*
X96645833Y-108989761D02*
X96741071Y-109037380D01*
X96931547Y-109037380D01*
X97026785Y-108989761D01*
X97074404Y-108894523D01*
X97074404Y-108513571D01*
X97026785Y-108418333D01*
X96931547Y-108370714D01*
X96741071Y-108370714D01*
X96645833Y-108418333D01*
X96598214Y-108513571D01*
X96598214Y-108608809D01*
X97074404Y-108704047D01*
X96217261Y-108989761D02*
X96122023Y-109037380D01*
X95931547Y-109037380D01*
X95836309Y-108989761D01*
X95788690Y-108894523D01*
X95788690Y-108846904D01*
X95836309Y-108751666D01*
X95931547Y-108704047D01*
X96074404Y-108704047D01*
X96169642Y-108656428D01*
X96217261Y-108561190D01*
X96217261Y-108513571D01*
X96169642Y-108418333D01*
X96074404Y-108370714D01*
X95931547Y-108370714D01*
X95836309Y-108418333D01*
X95360119Y-109037380D02*
X95360119Y-108370714D01*
X95360119Y-108037380D02*
X95407738Y-108085000D01*
X95360119Y-108132619D01*
X95312500Y-108085000D01*
X95360119Y-108037380D01*
X95360119Y-108132619D01*
X94931547Y-108989761D02*
X94836309Y-109037380D01*
X94645833Y-109037380D01*
X94550595Y-108989761D01*
X94502976Y-108894523D01*
X94502976Y-108846904D01*
X94550595Y-108751666D01*
X94645833Y-108704047D01*
X94788690Y-108704047D01*
X94883928Y-108656428D01*
X94931547Y-108561190D01*
X94931547Y-108513571D01*
X94883928Y-108418333D01*
X94788690Y-108370714D01*
X94645833Y-108370714D01*
X94550595Y-108418333D01*
X94217261Y-108370714D02*
X93836309Y-108370714D01*
X94074404Y-108037380D02*
X94074404Y-108894523D01*
X94026785Y-108989761D01*
X93931547Y-109037380D01*
X93836309Y-109037380D01*
X93360119Y-109037380D02*
X93455357Y-108989761D01*
X93502976Y-108942142D01*
X93550595Y-108846904D01*
X93550595Y-108561190D01*
X93502976Y-108465952D01*
X93455357Y-108418333D01*
X93360119Y-108370714D01*
X93217261Y-108370714D01*
X93122023Y-108418333D01*
X93074404Y-108465952D01*
X93026785Y-108561190D01*
X93026785Y-108846904D01*
X93074404Y-108942142D01*
X93122023Y-108989761D01*
X93217261Y-109037380D01*
X93360119Y-109037380D01*
X92598214Y-109037380D02*
X92598214Y-108370714D01*
X92598214Y-108561190D02*
X92550595Y-108465952D01*
X92502976Y-108418333D01*
X92407738Y-108370714D01*
X92312500Y-108370714D01*
X92026785Y-108989761D02*
X91931547Y-109037380D01*
X91741071Y-109037380D01*
X91645833Y-108989761D01*
X91598214Y-108894523D01*
X91598214Y-108846904D01*
X91645833Y-108751666D01*
X91741071Y-108704047D01*
X91883928Y-108704047D01*
X91979166Y-108656428D01*
X92026785Y-108561190D01*
X92026785Y-108513571D01*
X91979166Y-108418333D01*
X91883928Y-108370714D01*
X91741071Y-108370714D01*
X91645833Y-108418333D01*
X90550595Y-108370714D02*
X90169642Y-108370714D01*
X90407738Y-109037380D02*
X90407738Y-108180238D01*
X90360119Y-108085000D01*
X90264880Y-108037380D01*
X90169642Y-108037380D01*
X89693452Y-109037380D02*
X89788690Y-108989761D01*
X89836309Y-108942142D01*
X89883928Y-108846904D01*
X89883928Y-108561190D01*
X89836309Y-108465952D01*
X89788690Y-108418333D01*
X89693452Y-108370714D01*
X89550595Y-108370714D01*
X89455357Y-108418333D01*
X89407738Y-108465952D01*
X89360119Y-108561190D01*
X89360119Y-108846904D01*
X89407738Y-108942142D01*
X89455357Y-108989761D01*
X89550595Y-109037380D01*
X89693452Y-109037380D01*
X88931547Y-109037380D02*
X88931547Y-108370714D01*
X88931547Y-108561190D02*
X88883928Y-108465952D01*
X88836309Y-108418333D01*
X88741071Y-108370714D01*
X88645833Y-108370714D01*
X86979166Y-109037380D02*
X87312500Y-108561190D01*
X87550595Y-109037380D02*
X87550595Y-108037380D01*
X87169642Y-108037380D01*
X87074404Y-108085000D01*
X87026785Y-108132619D01*
X86979166Y-108227857D01*
X86979166Y-108370714D01*
X87026785Y-108465952D01*
X87074404Y-108513571D01*
X87169642Y-108561190D01*
X87550595Y-108561190D01*
X86598214Y-108132619D02*
X86550595Y-108085000D01*
X86455357Y-108037380D01*
X86217261Y-108037380D01*
X86122023Y-108085000D01*
X86074404Y-108132619D01*
X86026785Y-108227857D01*
X86026785Y-108323095D01*
X86074404Y-108465952D01*
X86645833Y-109037380D01*
X86026785Y-109037380D01*
X84836309Y-109037380D02*
X84836309Y-108370714D01*
X84836309Y-108037380D02*
X84883928Y-108085000D01*
X84836309Y-108132619D01*
X84788690Y-108085000D01*
X84836309Y-108037380D01*
X84836309Y-108132619D01*
X84502976Y-108370714D02*
X84122023Y-108370714D01*
X84360119Y-109037380D02*
X84360119Y-108180238D01*
X84312500Y-108085000D01*
X84217261Y-108037380D01*
X84122023Y-108037380D01*
X82598214Y-108370714D02*
X82598214Y-109037380D01*
X83026785Y-108370714D02*
X83026785Y-108894523D01*
X82979166Y-108989761D01*
X82883928Y-109037380D01*
X82741071Y-109037380D01*
X82645833Y-108989761D01*
X82598214Y-108942142D01*
X82169642Y-108989761D02*
X82074404Y-109037380D01*
X81883928Y-109037380D01*
X81788690Y-108989761D01*
X81741071Y-108894523D01*
X81741071Y-108846904D01*
X81788690Y-108751666D01*
X81883928Y-108704047D01*
X82026785Y-108704047D01*
X82122023Y-108656428D01*
X82169642Y-108561190D01*
X82169642Y-108513571D01*
X82122023Y-108418333D01*
X82026785Y-108370714D01*
X81883928Y-108370714D01*
X81788690Y-108418333D01*
X81312500Y-109037380D02*
X81312500Y-108370714D01*
X81312500Y-108037380D02*
X81360119Y-108085000D01*
X81312500Y-108132619D01*
X81264880Y-108085000D01*
X81312500Y-108037380D01*
X81312500Y-108132619D01*
X80836309Y-108370714D02*
X80836309Y-109037380D01*
X80836309Y-108465952D02*
X80788690Y-108418333D01*
X80693452Y-108370714D01*
X80550595Y-108370714D01*
X80455357Y-108418333D01*
X80407738Y-108513571D01*
X80407738Y-109037380D01*
X79502976Y-108370714D02*
X79502976Y-109180238D01*
X79550595Y-109275476D01*
X79598214Y-109323095D01*
X79693452Y-109370714D01*
X79836309Y-109370714D01*
X79931547Y-109323095D01*
X79502976Y-108989761D02*
X79598214Y-109037380D01*
X79788690Y-109037380D01*
X79883928Y-108989761D01*
X79931547Y-108942142D01*
X79979166Y-108846904D01*
X79979166Y-108561190D01*
X79931547Y-108465952D01*
X79883928Y-108418333D01*
X79788690Y-108370714D01*
X79598214Y-108370714D01*
X79502976Y-108418333D01*
X78360119Y-108037380D02*
X77693452Y-108037380D01*
X78122023Y-109037380D01*
X76883928Y-108370714D02*
X76883928Y-109037380D01*
X77122023Y-107989761D02*
X77360119Y-108704047D01*
X76741071Y-108704047D01*
X75883928Y-109037380D02*
X76360119Y-109037380D01*
X76360119Y-108037380D01*
X75598214Y-108989761D02*
X75455357Y-109037380D01*
X75217261Y-109037380D01*
X75122023Y-108989761D01*
X75074404Y-108942142D01*
X75026785Y-108846904D01*
X75026785Y-108751666D01*
X75074404Y-108656428D01*
X75122023Y-108608809D01*
X75217261Y-108561190D01*
X75407738Y-108513571D01*
X75502976Y-108465952D01*
X75550595Y-108418333D01*
X75598214Y-108323095D01*
X75598214Y-108227857D01*
X75550595Y-108132619D01*
X75502976Y-108085000D01*
X75407738Y-108037380D01*
X75169642Y-108037380D01*
X75026785Y-108085000D01*
X73693452Y-109037380D02*
X73788690Y-108989761D01*
X73836309Y-108894523D01*
X73836309Y-108037380D01*
X73169642Y-109037380D02*
X73264880Y-108989761D01*
X73312500Y-108942142D01*
X73360119Y-108846904D01*
X73360119Y-108561190D01*
X73312500Y-108465952D01*
X73264880Y-108418333D01*
X73169642Y-108370714D01*
X73026785Y-108370714D01*
X72931547Y-108418333D01*
X72883928Y-108465952D01*
X72836309Y-108561190D01*
X72836309Y-108846904D01*
X72883928Y-108942142D01*
X72931547Y-108989761D01*
X73026785Y-109037380D01*
X73169642Y-109037380D01*
X71979166Y-108370714D02*
X71979166Y-109180238D01*
X72026785Y-109275476D01*
X72074404Y-109323095D01*
X72169642Y-109370714D01*
X72312500Y-109370714D01*
X72407738Y-109323095D01*
X71979166Y-108989761D02*
X72074404Y-109037380D01*
X72264880Y-109037380D01*
X72360119Y-108989761D01*
X72407738Y-108942142D01*
X72455357Y-108846904D01*
X72455357Y-108561190D01*
X72407738Y-108465952D01*
X72360119Y-108418333D01*
X72264880Y-108370714D01*
X72074404Y-108370714D01*
X71979166Y-108418333D01*
X71502976Y-109037380D02*
X71502976Y-108370714D01*
X71502976Y-108037380D02*
X71550595Y-108085000D01*
X71502976Y-108132619D01*
X71455357Y-108085000D01*
X71502976Y-108037380D01*
X71502976Y-108132619D01*
X70598214Y-108989761D02*
X70693452Y-109037380D01*
X70883928Y-109037380D01*
X70979166Y-108989761D01*
X71026785Y-108942142D01*
X71074404Y-108846904D01*
X71074404Y-108561190D01*
X71026785Y-108465952D01*
X70979166Y-108418333D01*
X70883928Y-108370714D01*
X70693452Y-108370714D01*
X70598214Y-108418333D01*
D11*
X120875714Y-69018571D02*
X120518571Y-70518571D01*
X120232857Y-69447142D01*
X119947142Y-70518571D01*
X119590000Y-69018571D01*
X119090000Y-70090000D02*
X118375714Y-70090000D01*
X119232857Y-70518571D02*
X118732857Y-69018571D01*
X118232857Y-70518571D01*
X116875714Y-70518571D02*
X117375714Y-69804285D01*
X117732857Y-70518571D02*
X117732857Y-69018571D01*
X117161428Y-69018571D01*
X117018571Y-69090000D01*
X116947142Y-69161428D01*
X116875714Y-69304285D01*
X116875714Y-69518571D01*
X116947142Y-69661428D01*
X117018571Y-69732857D01*
X117161428Y-69804285D01*
X117732857Y-69804285D01*
X116232857Y-70518571D02*
X116232857Y-69018571D01*
X115375714Y-70518571D01*
X115375714Y-69018571D01*
X114661428Y-70518571D02*
X114661428Y-69018571D01*
X113947142Y-70518571D02*
X113947142Y-69018571D01*
X113090000Y-70518571D01*
X113090000Y-69018571D01*
X111590000Y-69090000D02*
X111732857Y-69018571D01*
X111947142Y-69018571D01*
X112161428Y-69090000D01*
X112304285Y-69232857D01*
X112375714Y-69375714D01*
X112447142Y-69661428D01*
X112447142Y-69875714D01*
X112375714Y-70161428D01*
X112304285Y-70304285D01*
X112161428Y-70447142D01*
X111947142Y-70518571D01*
X111804285Y-70518571D01*
X111590000Y-70447142D01*
X111518571Y-70375714D01*
X111518571Y-69875714D01*
X111804285Y-69875714D01*
X110875714Y-70375714D02*
X110804285Y-70447142D01*
X110875714Y-70518571D01*
X110947142Y-70447142D01*
X110875714Y-70375714D01*
X110875714Y-70518571D01*
X110875714Y-69947142D02*
X110947142Y-69090000D01*
X110875714Y-69018571D01*
X110804285Y-69090000D01*
X110875714Y-69947142D01*
X110875714Y-69018571D01*
X109018571Y-70518571D02*
X109018571Y-69018571D01*
X108161428Y-70518571D01*
X108161428Y-69018571D01*
X107161428Y-69018571D02*
X106875714Y-69018571D01*
X106732857Y-69090000D01*
X106590000Y-69232857D01*
X106518571Y-69518571D01*
X106518571Y-70018571D01*
X106590000Y-70304285D01*
X106732857Y-70447142D01*
X106875714Y-70518571D01*
X107161428Y-70518571D01*
X107304285Y-70447142D01*
X107447142Y-70304285D01*
X107518571Y-70018571D01*
X107518571Y-69518571D01*
X107447142Y-69232857D01*
X107304285Y-69090000D01*
X107161428Y-69018571D01*
X106090000Y-69018571D02*
X105232857Y-69018571D01*
X105661428Y-70518571D02*
X105661428Y-69018571D01*
X104732857Y-70518571D02*
X104732857Y-69018571D01*
X103161428Y-70375714D02*
X103232857Y-70447142D01*
X103447142Y-70518571D01*
X103590000Y-70518571D01*
X103804285Y-70447142D01*
X103947142Y-70304285D01*
X104018571Y-70161428D01*
X104090000Y-69875714D01*
X104090000Y-69661428D01*
X104018571Y-69375714D01*
X103947142Y-69232857D01*
X103804285Y-69090000D01*
X103590000Y-69018571D01*
X103447142Y-69018571D01*
X103232857Y-69090000D01*
X103161428Y-69161428D01*
X102518571Y-69732857D02*
X102018571Y-69732857D01*
X101804285Y-70518571D02*
X102518571Y-70518571D01*
X102518571Y-69018571D01*
X101804285Y-69018571D01*
X101161428Y-70375714D02*
X101090000Y-70447142D01*
X101161428Y-70518571D01*
X101232857Y-70447142D01*
X101161428Y-70375714D01*
X101161428Y-70518571D01*
X101161428Y-69947142D02*
X101232857Y-69090000D01*
X101161428Y-69018571D01*
X101090000Y-69090000D01*
X101161428Y-69947142D01*
X101161428Y-69018571D01*
X120304285Y-71568571D02*
X120304285Y-72640000D01*
X120375714Y-72854285D01*
X120518571Y-72997142D01*
X120732857Y-73068571D01*
X120875714Y-73068571D01*
X118947142Y-72068571D02*
X118947142Y-73068571D01*
X119590000Y-72068571D02*
X119590000Y-72854285D01*
X119518571Y-72997142D01*
X119375714Y-73068571D01*
X119161428Y-73068571D01*
X119018571Y-72997142D01*
X118947142Y-72925714D01*
X118232857Y-73068571D02*
X118232857Y-72068571D01*
X118232857Y-72211428D02*
X118161428Y-72140000D01*
X118018571Y-72068571D01*
X117804285Y-72068571D01*
X117661428Y-72140000D01*
X117590000Y-72282857D01*
X117590000Y-73068571D01*
X117590000Y-72282857D02*
X117518571Y-72140000D01*
X117375714Y-72068571D01*
X117161428Y-72068571D01*
X117018571Y-72140000D01*
X116947142Y-72282857D01*
X116947142Y-73068571D01*
X116232857Y-72068571D02*
X116232857Y-73568571D01*
X116232857Y-72140000D02*
X116090000Y-72068571D01*
X115804285Y-72068571D01*
X115661428Y-72140000D01*
X115590000Y-72211428D01*
X115518571Y-72354285D01*
X115518571Y-72782857D01*
X115590000Y-72925714D01*
X115661428Y-72997142D01*
X115804285Y-73068571D01*
X116090000Y-73068571D01*
X116232857Y-72997142D01*
X114304285Y-72997142D02*
X114447142Y-73068571D01*
X114732857Y-73068571D01*
X114875714Y-72997142D01*
X114947142Y-72854285D01*
X114947142Y-72282857D01*
X114875714Y-72140000D01*
X114732857Y-72068571D01*
X114447142Y-72068571D01*
X114304285Y-72140000D01*
X114232857Y-72282857D01*
X114232857Y-72425714D01*
X114947142Y-72568571D01*
X113590000Y-73068571D02*
X113590000Y-72068571D01*
X113590000Y-72354285D02*
X113518571Y-72211428D01*
X113447142Y-72140000D01*
X113304285Y-72068571D01*
X113161428Y-72068571D01*
X111090000Y-71568571D02*
X111090000Y-72640000D01*
X111161428Y-72854285D01*
X111304285Y-72997142D01*
X111518571Y-73068571D01*
X111661428Y-73068571D01*
X110375714Y-73068571D02*
X110375714Y-71568571D01*
X109804285Y-71568571D01*
X109661428Y-71640000D01*
X109590000Y-71711428D01*
X109518571Y-71854285D01*
X109518571Y-72068571D01*
X109590000Y-72211428D01*
X109661428Y-72282857D01*
X109804285Y-72354285D01*
X110375714Y-72354285D01*
X109018571Y-71568571D02*
X108090000Y-71568571D01*
X108590000Y-72140000D01*
X108375714Y-72140000D01*
X108232857Y-72211428D01*
X108161428Y-72282857D01*
X108090000Y-72425714D01*
X108090000Y-72782857D01*
X108161428Y-72925714D01*
X108232857Y-72997142D01*
X108375714Y-73068571D01*
X108804285Y-73068571D01*
X108947142Y-72997142D01*
X109018571Y-72925714D01*
X106447142Y-72068571D02*
X106161428Y-73068571D01*
X105875714Y-72354285D01*
X105590000Y-73068571D01*
X105304285Y-72068571D01*
X104732857Y-73068571D02*
X104732857Y-71568571D01*
X104090000Y-73068571D02*
X104090000Y-72282857D01*
X104161428Y-72140000D01*
X104304285Y-72068571D01*
X104518571Y-72068571D01*
X104661428Y-72140000D01*
X104732857Y-72211428D01*
X102804285Y-72997142D02*
X102947142Y-73068571D01*
X103232857Y-73068571D01*
X103375714Y-72997142D01*
X103447142Y-72854285D01*
X103447142Y-72282857D01*
X103375714Y-72140000D01*
X103232857Y-72068571D01*
X102947142Y-72068571D01*
X102804285Y-72140000D01*
X102732857Y-72282857D01*
X102732857Y-72425714D01*
X103447142Y-72568571D01*
X102090000Y-72068571D02*
X102090000Y-73068571D01*
X102090000Y-72211428D02*
X102018571Y-72140000D01*
X101875714Y-72068571D01*
X101661428Y-72068571D01*
X101518571Y-72140000D01*
X101447142Y-72282857D01*
X101447142Y-73068571D01*
X99661428Y-71497142D02*
X100947142Y-73425714D01*
X98947142Y-73068571D02*
X99090000Y-72997142D01*
X99161428Y-72925714D01*
X99232857Y-72782857D01*
X99232857Y-72354285D01*
X99161428Y-72211428D01*
X99090000Y-72140000D01*
X98947142Y-72068571D01*
X98732857Y-72068571D01*
X98590000Y-72140000D01*
X98518571Y-72211428D01*
X98447142Y-72354285D01*
X98447142Y-72782857D01*
X98518571Y-72925714D01*
X98590000Y-72997142D01*
X98732857Y-73068571D01*
X98947142Y-73068571D01*
X97804285Y-72068571D02*
X97804285Y-73068571D01*
X97804285Y-72211428D02*
X97732857Y-72140000D01*
X97590000Y-72068571D01*
X97375714Y-72068571D01*
X97232857Y-72140000D01*
X97161428Y-72282857D01*
X97161428Y-73068571D01*
X96232857Y-73068571D02*
X96375714Y-72997142D01*
X96447142Y-72854285D01*
X96447142Y-71568571D01*
X95804285Y-72068571D02*
X95447142Y-73068571D01*
X95090000Y-72068571D02*
X95447142Y-73068571D01*
X95590000Y-73425714D01*
X95661428Y-73497142D01*
X95804285Y-73568571D01*
X93375714Y-73068571D02*
X93375714Y-72068571D01*
X93375714Y-71568571D02*
X93447142Y-71640000D01*
X93375714Y-71711428D01*
X93304285Y-71640000D01*
X93375714Y-71568571D01*
X93375714Y-71711428D01*
X92875714Y-72068571D02*
X92304285Y-72068571D01*
X92661428Y-73068571D02*
X92661428Y-71782857D01*
X92590000Y-71640000D01*
X92447142Y-71568571D01*
X92304285Y-71568571D01*
X120732857Y-74118571D02*
X120732857Y-75332857D01*
X120661428Y-75475714D01*
X120590000Y-75547142D01*
X120447142Y-75618571D01*
X120161428Y-75618571D01*
X120018571Y-75547142D01*
X119947142Y-75475714D01*
X119875714Y-75332857D01*
X119875714Y-74118571D01*
X118518571Y-74618571D02*
X118518571Y-75618571D01*
X118875714Y-74047142D02*
X119232857Y-75118571D01*
X118304285Y-75118571D01*
X115375714Y-75618571D02*
X115447142Y-75618571D01*
X115590000Y-75547142D01*
X115804285Y-75332857D01*
X116161428Y-74904285D01*
X116304285Y-74690000D01*
X116375714Y-74475714D01*
X116375714Y-74332857D01*
X116304285Y-74190000D01*
X116161428Y-74118571D01*
X116090000Y-74118571D01*
X115947142Y-74190000D01*
X115875714Y-74332857D01*
X115875714Y-74404285D01*
X115947142Y-74547142D01*
X116018571Y-74618571D01*
X116447142Y-74904285D01*
X116518571Y-74975714D01*
X116590000Y-75118571D01*
X116590000Y-75332857D01*
X116518571Y-75475714D01*
X116447142Y-75547142D01*
X116304285Y-75618571D01*
X116090000Y-75618571D01*
X115947142Y-75547142D01*
X115875714Y-75475714D01*
X115661428Y-75190000D01*
X115590000Y-74975714D01*
X115590000Y-74832857D01*
X113590000Y-74118571D02*
X113590000Y-75332857D01*
X113518571Y-75475714D01*
X113447142Y-75547142D01*
X113304285Y-75618571D01*
X113018571Y-75618571D01*
X112875714Y-75547142D01*
X112804285Y-75475714D01*
X112732857Y-75332857D01*
X112732857Y-74118571D01*
X111304285Y-74118571D02*
X112018571Y-74118571D01*
X112090000Y-74832857D01*
X112018571Y-74761428D01*
X111875714Y-74690000D01*
X111518571Y-74690000D01*
X111375714Y-74761428D01*
X111304285Y-74832857D01*
X111232857Y-74975714D01*
X111232857Y-75332857D01*
X111304285Y-75475714D01*
X111375714Y-75547142D01*
X111518571Y-75618571D01*
X111875714Y-75618571D01*
X112018571Y-75547142D01*
X112090000Y-75475714D01*
X108804285Y-75618571D02*
X108804285Y-74832857D01*
X108875714Y-74690000D01*
X109018571Y-74618571D01*
X109304285Y-74618571D01*
X109447142Y-74690000D01*
X108804285Y-75547142D02*
X108947142Y-75618571D01*
X109304285Y-75618571D01*
X109447142Y-75547142D01*
X109518571Y-75404285D01*
X109518571Y-75261428D01*
X109447142Y-75118571D01*
X109304285Y-75047142D01*
X108947142Y-75047142D01*
X108804285Y-74975714D01*
X108090000Y-75618571D02*
X108090000Y-74618571D01*
X108090000Y-74904285D02*
X108018571Y-74761428D01*
X107947142Y-74690000D01*
X107804285Y-74618571D01*
X107661428Y-74618571D01*
X106590000Y-75547142D02*
X106732857Y-75618571D01*
X107018571Y-75618571D01*
X107161428Y-75547142D01*
X107232857Y-75404285D01*
X107232857Y-74832857D01*
X107161428Y-74690000D01*
X107018571Y-74618571D01*
X106732857Y-74618571D01*
X106590000Y-74690000D01*
X106518571Y-74832857D01*
X106518571Y-74975714D01*
X107232857Y-75118571D01*
X104732857Y-75618571D02*
X104732857Y-74118571D01*
X103875714Y-75618571D01*
X103875714Y-74118571D01*
X102875714Y-74118571D02*
X102590000Y-74118571D01*
X102447142Y-74190000D01*
X102304285Y-74332857D01*
X102232857Y-74618571D01*
X102232857Y-75118571D01*
X102304285Y-75404285D01*
X102447142Y-75547142D01*
X102590000Y-75618571D01*
X102875714Y-75618571D01*
X103018571Y-75547142D01*
X103161428Y-75404285D01*
X103232857Y-75118571D01*
X103232857Y-74618571D01*
X103161428Y-74332857D01*
X103018571Y-74190000D01*
X102875714Y-74118571D01*
X101804285Y-74118571D02*
X100947142Y-74118571D01*
X101375714Y-75618571D02*
X101375714Y-74118571D01*
X99304285Y-75618571D02*
X99304285Y-74618571D01*
X99304285Y-74118571D02*
X99375714Y-74190000D01*
X99304285Y-74261428D01*
X99232857Y-74190000D01*
X99304285Y-74118571D01*
X99304285Y-74261428D01*
X98590000Y-74618571D02*
X98590000Y-75618571D01*
X98590000Y-74761428D02*
X98518571Y-74690000D01*
X98375714Y-74618571D01*
X98161428Y-74618571D01*
X98018571Y-74690000D01*
X97947142Y-74832857D01*
X97947142Y-75618571D01*
X97304285Y-75547142D02*
X97161428Y-75618571D01*
X96875714Y-75618571D01*
X96732857Y-75547142D01*
X96661428Y-75404285D01*
X96661428Y-75332857D01*
X96732857Y-75190000D01*
X96875714Y-75118571D01*
X97090000Y-75118571D01*
X97232857Y-75047142D01*
X97304285Y-74904285D01*
X97304285Y-74832857D01*
X97232857Y-74690000D01*
X97090000Y-74618571D01*
X96875714Y-74618571D01*
X96732857Y-74690000D01*
X96232857Y-74618571D02*
X95661428Y-74618571D01*
X96018571Y-74118571D02*
X96018571Y-75404285D01*
X95947142Y-75547142D01*
X95804285Y-75618571D01*
X95661428Y-75618571D01*
X94518571Y-75618571D02*
X94518571Y-74832857D01*
X94590000Y-74690000D01*
X94732857Y-74618571D01*
X95018571Y-74618571D01*
X95161428Y-74690000D01*
X94518571Y-75547142D02*
X94661428Y-75618571D01*
X95018571Y-75618571D01*
X95161428Y-75547142D01*
X95232857Y-75404285D01*
X95232857Y-75261428D01*
X95161428Y-75118571D01*
X95018571Y-75047142D01*
X94661428Y-75047142D01*
X94518571Y-74975714D01*
X93590000Y-75618571D02*
X93732857Y-75547142D01*
X93804285Y-75404285D01*
X93804285Y-74118571D01*
X92804285Y-75618571D02*
X92947142Y-75547142D01*
X93018571Y-75404285D01*
X93018571Y-74118571D01*
X91661428Y-75547142D02*
X91804285Y-75618571D01*
X92090000Y-75618571D01*
X92232857Y-75547142D01*
X92304285Y-75404285D01*
X92304285Y-74832857D01*
X92232857Y-74690000D01*
X92090000Y-74618571D01*
X91804285Y-74618571D01*
X91661428Y-74690000D01*
X91590000Y-74832857D01*
X91590000Y-74975714D01*
X92304285Y-75118571D01*
X90304285Y-75618571D02*
X90304285Y-74118571D01*
X90304285Y-75547142D02*
X90447142Y-75618571D01*
X90732857Y-75618571D01*
X90875714Y-75547142D01*
X90947142Y-75475714D01*
X91018571Y-75332857D01*
X91018571Y-74904285D01*
X90947142Y-74761428D01*
X90875714Y-74690000D01*
X90732857Y-74618571D01*
X90447142Y-74618571D01*
X90304285Y-74690000D01*
X89590000Y-75475714D02*
X89518571Y-75547142D01*
X89590000Y-75618571D01*
X89661428Y-75547142D01*
X89590000Y-75475714D01*
X89590000Y-75618571D01*
X89590000Y-75047142D02*
X89661428Y-74190000D01*
X89590000Y-74118571D01*
X89518571Y-74190000D01*
X89590000Y-75047142D01*
X89590000Y-74118571D01*
D10*
X105122023Y-91404761D02*
X104979166Y-91452380D01*
X104741071Y-91452380D01*
X104645833Y-91404761D01*
X104598214Y-91357142D01*
X104550595Y-91261904D01*
X104550595Y-91166666D01*
X104598214Y-91071428D01*
X104645833Y-91023809D01*
X104741071Y-90976190D01*
X104931547Y-90928571D01*
X105026785Y-90880952D01*
X105074404Y-90833333D01*
X105122023Y-90738095D01*
X105122023Y-90642857D01*
X105074404Y-90547619D01*
X105026785Y-90500000D01*
X104931547Y-90452380D01*
X104693452Y-90452380D01*
X104550595Y-90500000D01*
X104217261Y-90452380D02*
X103979166Y-91452380D01*
X103788690Y-90738095D01*
X103598214Y-91452380D01*
X103360119Y-90452380D01*
X102455357Y-91452380D02*
X103026785Y-91452380D01*
X102741071Y-91452380D02*
X102741071Y-90452380D01*
X102836309Y-90595238D01*
X102931547Y-90690476D01*
X103026785Y-90738095D01*
X101074404Y-90452380D02*
X100883928Y-90452380D01*
X100788690Y-90500000D01*
X100693452Y-90595238D01*
X100645833Y-90785714D01*
X100645833Y-91119047D01*
X100693452Y-91309523D01*
X100788690Y-91404761D01*
X100883928Y-91452380D01*
X101074404Y-91452380D01*
X101169642Y-91404761D01*
X101264880Y-91309523D01*
X101312500Y-91119047D01*
X101312500Y-90785714D01*
X101264880Y-90595238D01*
X101169642Y-90500000D01*
X101074404Y-90452380D01*
X100217261Y-90785714D02*
X100217261Y-91452380D01*
X100217261Y-90880952D02*
X100169642Y-90833333D01*
X100074404Y-90785714D01*
X99931547Y-90785714D01*
X99836309Y-90833333D01*
X99788690Y-90928571D01*
X99788690Y-91452380D01*
X99312500Y-91357142D02*
X99264880Y-91404761D01*
X99312500Y-91452380D01*
X99360119Y-91404761D01*
X99312500Y-91357142D01*
X99312500Y-91452380D01*
X99312500Y-90833333D02*
X99264880Y-90880952D01*
X99312500Y-90928571D01*
X99360119Y-90880952D01*
X99312500Y-90833333D01*
X99312500Y-90928571D01*
X98074404Y-91452380D02*
X98074404Y-90452380D01*
X97836309Y-90452380D01*
X97693452Y-90500000D01*
X97598214Y-90595238D01*
X97550595Y-90690476D01*
X97502976Y-90880952D01*
X97502976Y-91023809D01*
X97550595Y-91214285D01*
X97598214Y-91309523D01*
X97693452Y-91404761D01*
X97836309Y-91452380D01*
X98074404Y-91452380D01*
X97074404Y-91452380D02*
X97074404Y-90785714D01*
X97074404Y-90452380D02*
X97122023Y-90500000D01*
X97074404Y-90547619D01*
X97026785Y-90500000D01*
X97074404Y-90452380D01*
X97074404Y-90547619D01*
X96645833Y-91404761D02*
X96550595Y-91452380D01*
X96360119Y-91452380D01*
X96264880Y-91404761D01*
X96217261Y-91309523D01*
X96217261Y-91261904D01*
X96264880Y-91166666D01*
X96360119Y-91119047D01*
X96502976Y-91119047D01*
X96598214Y-91071428D01*
X96645833Y-90976190D01*
X96645833Y-90928571D01*
X96598214Y-90833333D01*
X96502976Y-90785714D01*
X96360119Y-90785714D01*
X96264880Y-90833333D01*
X95360119Y-91452380D02*
X95360119Y-90928571D01*
X95407738Y-90833333D01*
X95502976Y-90785714D01*
X95693452Y-90785714D01*
X95788690Y-90833333D01*
X95360119Y-91404761D02*
X95455357Y-91452380D01*
X95693452Y-91452380D01*
X95788690Y-91404761D01*
X95836309Y-91309523D01*
X95836309Y-91214285D01*
X95788690Y-91119047D01*
X95693452Y-91071428D01*
X95455357Y-91071428D01*
X95360119Y-91023809D01*
X94883928Y-91452380D02*
X94883928Y-90452380D01*
X94883928Y-90833333D02*
X94788690Y-90785714D01*
X94598214Y-90785714D01*
X94502976Y-90833333D01*
X94455357Y-90880952D01*
X94407738Y-90976190D01*
X94407738Y-91261904D01*
X94455357Y-91357142D01*
X94502976Y-91404761D01*
X94598214Y-91452380D01*
X94788690Y-91452380D01*
X94883928Y-91404761D01*
X93836309Y-91452380D02*
X93931547Y-91404761D01*
X93979166Y-91309523D01*
X93979166Y-90452380D01*
X93074404Y-91404761D02*
X93169642Y-91452380D01*
X93360119Y-91452380D01*
X93455357Y-91404761D01*
X93502976Y-91309523D01*
X93502976Y-90928571D01*
X93455357Y-90833333D01*
X93360119Y-90785714D01*
X93169642Y-90785714D01*
X93074404Y-90833333D01*
X93026785Y-90928571D01*
X93026785Y-91023809D01*
X93502976Y-91119047D01*
X91836309Y-91357142D02*
X91788690Y-91404761D01*
X91836309Y-91452380D01*
X91883928Y-91404761D01*
X91836309Y-91357142D01*
X91836309Y-91452380D01*
X91836309Y-90833333D02*
X91788690Y-90880952D01*
X91836309Y-90928571D01*
X91883928Y-90880952D01*
X91836309Y-90833333D01*
X91836309Y-90928571D01*
X90264880Y-90928571D02*
X90122023Y-90976190D01*
X90074404Y-91023809D01*
X90026785Y-91119047D01*
X90026785Y-91261904D01*
X90074404Y-91357142D01*
X90122023Y-91404761D01*
X90217261Y-91452380D01*
X90598214Y-91452380D01*
X90598214Y-90452380D01*
X90264880Y-90452380D01*
X90169642Y-90500000D01*
X90122023Y-90547619D01*
X90074404Y-90642857D01*
X90074404Y-90738095D01*
X90122023Y-90833333D01*
X90169642Y-90880952D01*
X90264880Y-90928571D01*
X90598214Y-90928571D01*
X89645833Y-91166666D02*
X89169642Y-91166666D01*
X89741071Y-91452380D02*
X89407738Y-90452380D01*
X89074404Y-91452380D01*
X88741071Y-91452380D02*
X88741071Y-90452380D01*
X88169642Y-91452380D01*
X88169642Y-90452380D01*
X87693452Y-91452380D02*
X87693452Y-90452380D01*
X87122023Y-91452380D02*
X87550595Y-90880952D01*
X87122023Y-90452380D02*
X87693452Y-91023809D01*
X85455357Y-91452380D02*
X85931547Y-91452380D01*
X85931547Y-90452380D01*
X84598214Y-91452380D02*
X85169642Y-91452380D01*
X84883928Y-91452380D02*
X84883928Y-90452380D01*
X84979166Y-90595238D01*
X85074404Y-90690476D01*
X85169642Y-90738095D01*
X84169642Y-91357142D02*
X84122023Y-91404761D01*
X84169642Y-91452380D01*
X84217261Y-91404761D01*
X84169642Y-91357142D01*
X84169642Y-91452380D01*
X84169642Y-90833333D02*
X84122023Y-90880952D01*
X84169642Y-90928571D01*
X84217261Y-90880952D01*
X84169642Y-90833333D01*
X84169642Y-90928571D01*
X82741071Y-90452380D02*
X82645833Y-90452380D01*
X82550595Y-90500000D01*
X82502976Y-90547619D01*
X82455357Y-90642857D01*
X82407738Y-90833333D01*
X82407738Y-91071428D01*
X82455357Y-91261904D01*
X82502976Y-91357142D01*
X82550595Y-91404761D01*
X82645833Y-91452380D01*
X82741071Y-91452380D01*
X82836309Y-91404761D01*
X82883928Y-91357142D01*
X82931547Y-91261904D01*
X82979166Y-91071428D01*
X82979166Y-90833333D01*
X82931547Y-90642857D01*
X82883928Y-90547619D01*
X82836309Y-90500000D01*
X82741071Y-90452380D01*
X81979166Y-91071428D02*
X81217261Y-91071428D01*
X80217261Y-91452380D02*
X80788690Y-91452380D01*
X80502976Y-91452380D02*
X80502976Y-90452380D01*
X80598214Y-90595238D01*
X80693452Y-90690476D01*
X80788690Y-90738095D01*
X79836309Y-90547619D02*
X79788690Y-90500000D01*
X79693452Y-90452380D01*
X79455357Y-90452380D01*
X79360119Y-90500000D01*
X79312500Y-90547619D01*
X79264880Y-90642857D01*
X79264880Y-90738095D01*
X79312500Y-90880952D01*
X79883928Y-91452380D01*
X79264880Y-91452380D01*
X78693452Y-90880952D02*
X78788690Y-90833333D01*
X78836309Y-90785714D01*
X78883928Y-90690476D01*
X78883928Y-90642857D01*
X78836309Y-90547619D01*
X78788690Y-90500000D01*
X78693452Y-90452380D01*
X78502976Y-90452380D01*
X78407738Y-90500000D01*
X78360119Y-90547619D01*
X78312500Y-90642857D01*
X78312500Y-90690476D01*
X78360119Y-90785714D01*
X78407738Y-90833333D01*
X78502976Y-90880952D01*
X78693452Y-90880952D01*
X78788690Y-90928571D01*
X78836309Y-90976190D01*
X78883928Y-91071428D01*
X78883928Y-91261904D01*
X78836309Y-91357142D01*
X78788690Y-91404761D01*
X78693452Y-91452380D01*
X78502976Y-91452380D01*
X78407738Y-91404761D01*
X78360119Y-91357142D01*
X78312500Y-91261904D01*
X78312500Y-91071428D01*
X78360119Y-90976190D01*
X78407738Y-90928571D01*
X78502976Y-90880952D01*
X77883928Y-91452380D02*
X77883928Y-90452380D01*
X77788690Y-91071428D02*
X77502976Y-91452380D01*
X77502976Y-90785714D02*
X77883928Y-91166666D01*
X105122023Y-93054761D02*
X104979166Y-93102380D01*
X104741071Y-93102380D01*
X104645833Y-93054761D01*
X104598214Y-93007142D01*
X104550595Y-92911904D01*
X104550595Y-92816666D01*
X104598214Y-92721428D01*
X104645833Y-92673809D01*
X104741071Y-92626190D01*
X104931547Y-92578571D01*
X105026785Y-92530952D01*
X105074404Y-92483333D01*
X105122023Y-92388095D01*
X105122023Y-92292857D01*
X105074404Y-92197619D01*
X105026785Y-92150000D01*
X104931547Y-92102380D01*
X104693452Y-92102380D01*
X104550595Y-92150000D01*
X104217261Y-92102380D02*
X103979166Y-93102380D01*
X103788690Y-92388095D01*
X103598214Y-93102380D01*
X103360119Y-92102380D01*
X103026785Y-92197619D02*
X102979166Y-92150000D01*
X102883928Y-92102380D01*
X102645833Y-92102380D01*
X102550595Y-92150000D01*
X102502976Y-92197619D01*
X102455357Y-92292857D01*
X102455357Y-92388095D01*
X102502976Y-92530952D01*
X103074404Y-93102380D01*
X102455357Y-93102380D01*
X101074404Y-92102380D02*
X100883928Y-92102380D01*
X100788690Y-92150000D01*
X100693452Y-92245238D01*
X100645833Y-92435714D01*
X100645833Y-92769047D01*
X100693452Y-92959523D01*
X100788690Y-93054761D01*
X100883928Y-93102380D01*
X101074404Y-93102380D01*
X101169642Y-93054761D01*
X101264880Y-92959523D01*
X101312500Y-92769047D01*
X101312500Y-92435714D01*
X101264880Y-92245238D01*
X101169642Y-92150000D01*
X101074404Y-92102380D01*
X100217261Y-92435714D02*
X100217261Y-93102380D01*
X100217261Y-92530952D02*
X100169642Y-92483333D01*
X100074404Y-92435714D01*
X99931547Y-92435714D01*
X99836309Y-92483333D01*
X99788690Y-92578571D01*
X99788690Y-93102380D01*
X99312500Y-93007142D02*
X99264880Y-93054761D01*
X99312500Y-93102380D01*
X99360119Y-93054761D01*
X99312500Y-93007142D01*
X99312500Y-93102380D01*
X99312500Y-92483333D02*
X99264880Y-92530952D01*
X99312500Y-92578571D01*
X99360119Y-92530952D01*
X99312500Y-92483333D01*
X99312500Y-92578571D01*
X98074404Y-93102380D02*
X98074404Y-92102380D01*
X97836309Y-92102380D01*
X97693452Y-92150000D01*
X97598214Y-92245238D01*
X97550595Y-92340476D01*
X97502976Y-92530952D01*
X97502976Y-92673809D01*
X97550595Y-92864285D01*
X97598214Y-92959523D01*
X97693452Y-93054761D01*
X97836309Y-93102380D01*
X98074404Y-93102380D01*
X97074404Y-93102380D02*
X97074404Y-92435714D01*
X97074404Y-92102380D02*
X97122023Y-92150000D01*
X97074404Y-92197619D01*
X97026785Y-92150000D01*
X97074404Y-92102380D01*
X97074404Y-92197619D01*
X96645833Y-93054761D02*
X96550595Y-93102380D01*
X96360119Y-93102380D01*
X96264880Y-93054761D01*
X96217261Y-92959523D01*
X96217261Y-92911904D01*
X96264880Y-92816666D01*
X96360119Y-92769047D01*
X96502976Y-92769047D01*
X96598214Y-92721428D01*
X96645833Y-92626190D01*
X96645833Y-92578571D01*
X96598214Y-92483333D01*
X96502976Y-92435714D01*
X96360119Y-92435714D01*
X96264880Y-92483333D01*
X95360119Y-93102380D02*
X95360119Y-92578571D01*
X95407738Y-92483333D01*
X95502976Y-92435714D01*
X95693452Y-92435714D01*
X95788690Y-92483333D01*
X95360119Y-93054761D02*
X95455357Y-93102380D01*
X95693452Y-93102380D01*
X95788690Y-93054761D01*
X95836309Y-92959523D01*
X95836309Y-92864285D01*
X95788690Y-92769047D01*
X95693452Y-92721428D01*
X95455357Y-92721428D01*
X95360119Y-92673809D01*
X94883928Y-93102380D02*
X94883928Y-92102380D01*
X94883928Y-92483333D02*
X94788690Y-92435714D01*
X94598214Y-92435714D01*
X94502976Y-92483333D01*
X94455357Y-92530952D01*
X94407738Y-92626190D01*
X94407738Y-92911904D01*
X94455357Y-93007142D01*
X94502976Y-93054761D01*
X94598214Y-93102380D01*
X94788690Y-93102380D01*
X94883928Y-93054761D01*
X93836309Y-93102380D02*
X93931547Y-93054761D01*
X93979166Y-92959523D01*
X93979166Y-92102380D01*
X93074404Y-93054761D02*
X93169642Y-93102380D01*
X93360119Y-93102380D01*
X93455357Y-93054761D01*
X93502976Y-92959523D01*
X93502976Y-92578571D01*
X93455357Y-92483333D01*
X93360119Y-92435714D01*
X93169642Y-92435714D01*
X93074404Y-92483333D01*
X93026785Y-92578571D01*
X93026785Y-92673809D01*
X93502976Y-92769047D01*
X91836309Y-93007142D02*
X91788690Y-93054761D01*
X91836309Y-93102380D01*
X91883928Y-93054761D01*
X91836309Y-93007142D01*
X91836309Y-93102380D01*
X91836309Y-92483333D02*
X91788690Y-92530952D01*
X91836309Y-92578571D01*
X91883928Y-92530952D01*
X91836309Y-92483333D01*
X91836309Y-92578571D01*
X90264880Y-92578571D02*
X90122023Y-92626190D01*
X90074404Y-92673809D01*
X90026785Y-92769047D01*
X90026785Y-92911904D01*
X90074404Y-93007142D01*
X90122023Y-93054761D01*
X90217261Y-93102380D01*
X90598214Y-93102380D01*
X90598214Y-92102380D01*
X90264880Y-92102380D01*
X90169642Y-92150000D01*
X90122023Y-92197619D01*
X90074404Y-92292857D01*
X90074404Y-92388095D01*
X90122023Y-92483333D01*
X90169642Y-92530952D01*
X90264880Y-92578571D01*
X90598214Y-92578571D01*
X89645833Y-92816666D02*
X89169642Y-92816666D01*
X89741071Y-93102380D02*
X89407738Y-92102380D01*
X89074404Y-93102380D01*
X88741071Y-93102380D02*
X88741071Y-92102380D01*
X88169642Y-93102380D01*
X88169642Y-92102380D01*
X87693452Y-93102380D02*
X87693452Y-92102380D01*
X87122023Y-93102380D02*
X87550595Y-92530952D01*
X87122023Y-92102380D02*
X87693452Y-92673809D01*
X85455357Y-93102380D02*
X85931547Y-93102380D01*
X85931547Y-92102380D01*
X85169642Y-92197619D02*
X85122023Y-92150000D01*
X85026785Y-92102380D01*
X84788690Y-92102380D01*
X84693452Y-92150000D01*
X84645833Y-92197619D01*
X84598214Y-92292857D01*
X84598214Y-92388095D01*
X84645833Y-92530952D01*
X85217261Y-93102380D01*
X84598214Y-93102380D01*
X84169642Y-93007142D02*
X84122023Y-93054761D01*
X84169642Y-93102380D01*
X84217261Y-93054761D01*
X84169642Y-93007142D01*
X84169642Y-93102380D01*
X84169642Y-92483333D02*
X84122023Y-92530952D01*
X84169642Y-92578571D01*
X84217261Y-92530952D01*
X84169642Y-92483333D01*
X84169642Y-92578571D01*
X82407738Y-93102380D02*
X82979166Y-93102380D01*
X82693452Y-93102380D02*
X82693452Y-92102380D01*
X82788690Y-92245238D01*
X82883928Y-92340476D01*
X82979166Y-92388095D01*
X82026785Y-92197619D02*
X81979166Y-92150000D01*
X81883928Y-92102380D01*
X81645833Y-92102380D01*
X81550595Y-92150000D01*
X81502976Y-92197619D01*
X81455357Y-92292857D01*
X81455357Y-92388095D01*
X81502976Y-92530952D01*
X82074404Y-93102380D01*
X81455357Y-93102380D01*
X80883928Y-92530952D02*
X80979166Y-92483333D01*
X81026785Y-92435714D01*
X81074404Y-92340476D01*
X81074404Y-92292857D01*
X81026785Y-92197619D01*
X80979166Y-92150000D01*
X80883928Y-92102380D01*
X80693452Y-92102380D01*
X80598214Y-92150000D01*
X80550595Y-92197619D01*
X80502976Y-92292857D01*
X80502976Y-92340476D01*
X80550595Y-92435714D01*
X80598214Y-92483333D01*
X80693452Y-92530952D01*
X80883928Y-92530952D01*
X80979166Y-92578571D01*
X81026785Y-92626190D01*
X81074404Y-92721428D01*
X81074404Y-92911904D01*
X81026785Y-93007142D01*
X80979166Y-93054761D01*
X80883928Y-93102380D01*
X80693452Y-93102380D01*
X80598214Y-93054761D01*
X80550595Y-93007142D01*
X80502976Y-92911904D01*
X80502976Y-92721428D01*
X80550595Y-92626190D01*
X80598214Y-92578571D01*
X80693452Y-92530952D01*
X80074404Y-93102380D02*
X80074404Y-92102380D01*
X79979166Y-92721428D02*
X79693452Y-93102380D01*
X79693452Y-92435714D02*
X80074404Y-92816666D01*
X79264880Y-92721428D02*
X78502976Y-92721428D01*
X78074404Y-92197619D02*
X78026785Y-92150000D01*
X77931547Y-92102380D01*
X77693452Y-92102380D01*
X77598214Y-92150000D01*
X77550595Y-92197619D01*
X77502976Y-92292857D01*
X77502976Y-92388095D01*
X77550595Y-92530952D01*
X78122023Y-93102380D01*
X77502976Y-93102380D01*
X76598214Y-92102380D02*
X77074404Y-92102380D01*
X77122023Y-92578571D01*
X77074404Y-92530952D01*
X76979166Y-92483333D01*
X76741071Y-92483333D01*
X76645833Y-92530952D01*
X76598214Y-92578571D01*
X76550595Y-92673809D01*
X76550595Y-92911904D01*
X76598214Y-93007142D01*
X76645833Y-93054761D01*
X76741071Y-93102380D01*
X76979166Y-93102380D01*
X77074404Y-93054761D01*
X77122023Y-93007142D01*
X75693452Y-92102380D02*
X75883928Y-92102380D01*
X75979166Y-92150000D01*
X76026785Y-92197619D01*
X76122023Y-92340476D01*
X76169642Y-92530952D01*
X76169642Y-92911904D01*
X76122023Y-93007142D01*
X76074404Y-93054761D01*
X75979166Y-93102380D01*
X75788690Y-93102380D01*
X75693452Y-93054761D01*
X75645833Y-93007142D01*
X75598214Y-92911904D01*
X75598214Y-92673809D01*
X75645833Y-92578571D01*
X75693452Y-92530952D01*
X75788690Y-92483333D01*
X75979166Y-92483333D01*
X76074404Y-92530952D01*
X76122023Y-92578571D01*
X76169642Y-92673809D01*
X75169642Y-93102380D02*
X75169642Y-92102380D01*
X75074404Y-92721428D02*
X74788690Y-93102380D01*
X74788690Y-92435714D02*
X75169642Y-92816666D01*
X105122023Y-94704761D02*
X104979166Y-94752380D01*
X104741071Y-94752380D01*
X104645833Y-94704761D01*
X104598214Y-94657142D01*
X104550595Y-94561904D01*
X104550595Y-94466666D01*
X104598214Y-94371428D01*
X104645833Y-94323809D01*
X104741071Y-94276190D01*
X104931547Y-94228571D01*
X105026785Y-94180952D01*
X105074404Y-94133333D01*
X105122023Y-94038095D01*
X105122023Y-93942857D01*
X105074404Y-93847619D01*
X105026785Y-93800000D01*
X104931547Y-93752380D01*
X104693452Y-93752380D01*
X104550595Y-93800000D01*
X104217261Y-93752380D02*
X103979166Y-94752380D01*
X103788690Y-94038095D01*
X103598214Y-94752380D01*
X103360119Y-93752380D01*
X103074404Y-93752380D02*
X102455357Y-93752380D01*
X102788690Y-94133333D01*
X102645833Y-94133333D01*
X102550595Y-94180952D01*
X102502976Y-94228571D01*
X102455357Y-94323809D01*
X102455357Y-94561904D01*
X102502976Y-94657142D01*
X102550595Y-94704761D01*
X102645833Y-94752380D01*
X102931547Y-94752380D01*
X103026785Y-94704761D01*
X103074404Y-94657142D01*
X101074404Y-93752380D02*
X100883928Y-93752380D01*
X100788690Y-93800000D01*
X100693452Y-93895238D01*
X100645833Y-94085714D01*
X100645833Y-94419047D01*
X100693452Y-94609523D01*
X100788690Y-94704761D01*
X100883928Y-94752380D01*
X101074404Y-94752380D01*
X101169642Y-94704761D01*
X101264880Y-94609523D01*
X101312500Y-94419047D01*
X101312500Y-94085714D01*
X101264880Y-93895238D01*
X101169642Y-93800000D01*
X101074404Y-93752380D01*
X100217261Y-94085714D02*
X100217261Y-94752380D01*
X100217261Y-94180952D02*
X100169642Y-94133333D01*
X100074404Y-94085714D01*
X99931547Y-94085714D01*
X99836309Y-94133333D01*
X99788690Y-94228571D01*
X99788690Y-94752380D01*
X99312500Y-94657142D02*
X99264880Y-94704761D01*
X99312500Y-94752380D01*
X99360119Y-94704761D01*
X99312500Y-94657142D01*
X99312500Y-94752380D01*
X99312500Y-94133333D02*
X99264880Y-94180952D01*
X99312500Y-94228571D01*
X99360119Y-94180952D01*
X99312500Y-94133333D01*
X99312500Y-94228571D01*
X98074404Y-94752380D02*
X98074404Y-93752380D01*
X97836309Y-93752380D01*
X97693452Y-93800000D01*
X97598214Y-93895238D01*
X97550595Y-93990476D01*
X97502976Y-94180952D01*
X97502976Y-94323809D01*
X97550595Y-94514285D01*
X97598214Y-94609523D01*
X97693452Y-94704761D01*
X97836309Y-94752380D01*
X98074404Y-94752380D01*
X97074404Y-94752380D02*
X97074404Y-94085714D01*
X97074404Y-93752380D02*
X97122023Y-93800000D01*
X97074404Y-93847619D01*
X97026785Y-93800000D01*
X97074404Y-93752380D01*
X97074404Y-93847619D01*
X96645833Y-94704761D02*
X96550595Y-94752380D01*
X96360119Y-94752380D01*
X96264880Y-94704761D01*
X96217261Y-94609523D01*
X96217261Y-94561904D01*
X96264880Y-94466666D01*
X96360119Y-94419047D01*
X96502976Y-94419047D01*
X96598214Y-94371428D01*
X96645833Y-94276190D01*
X96645833Y-94228571D01*
X96598214Y-94133333D01*
X96502976Y-94085714D01*
X96360119Y-94085714D01*
X96264880Y-94133333D01*
X95360119Y-94752380D02*
X95360119Y-94228571D01*
X95407738Y-94133333D01*
X95502976Y-94085714D01*
X95693452Y-94085714D01*
X95788690Y-94133333D01*
X95360119Y-94704761D02*
X95455357Y-94752380D01*
X95693452Y-94752380D01*
X95788690Y-94704761D01*
X95836309Y-94609523D01*
X95836309Y-94514285D01*
X95788690Y-94419047D01*
X95693452Y-94371428D01*
X95455357Y-94371428D01*
X95360119Y-94323809D01*
X94883928Y-94752380D02*
X94883928Y-93752380D01*
X94883928Y-94133333D02*
X94788690Y-94085714D01*
X94598214Y-94085714D01*
X94502976Y-94133333D01*
X94455357Y-94180952D01*
X94407738Y-94276190D01*
X94407738Y-94561904D01*
X94455357Y-94657142D01*
X94502976Y-94704761D01*
X94598214Y-94752380D01*
X94788690Y-94752380D01*
X94883928Y-94704761D01*
X93836309Y-94752380D02*
X93931547Y-94704761D01*
X93979166Y-94609523D01*
X93979166Y-93752380D01*
X93074404Y-94704761D02*
X93169642Y-94752380D01*
X93360119Y-94752380D01*
X93455357Y-94704761D01*
X93502976Y-94609523D01*
X93502976Y-94228571D01*
X93455357Y-94133333D01*
X93360119Y-94085714D01*
X93169642Y-94085714D01*
X93074404Y-94133333D01*
X93026785Y-94228571D01*
X93026785Y-94323809D01*
X93502976Y-94419047D01*
X91836309Y-94657142D02*
X91788690Y-94704761D01*
X91836309Y-94752380D01*
X91883928Y-94704761D01*
X91836309Y-94657142D01*
X91836309Y-94752380D01*
X91836309Y-94133333D02*
X91788690Y-94180952D01*
X91836309Y-94228571D01*
X91883928Y-94180952D01*
X91836309Y-94133333D01*
X91836309Y-94228571D01*
X90264880Y-94228571D02*
X90122023Y-94276190D01*
X90074404Y-94323809D01*
X90026785Y-94419047D01*
X90026785Y-94561904D01*
X90074404Y-94657142D01*
X90122023Y-94704761D01*
X90217261Y-94752380D01*
X90598214Y-94752380D01*
X90598214Y-93752380D01*
X90264880Y-93752380D01*
X90169642Y-93800000D01*
X90122023Y-93847619D01*
X90074404Y-93942857D01*
X90074404Y-94038095D01*
X90122023Y-94133333D01*
X90169642Y-94180952D01*
X90264880Y-94228571D01*
X90598214Y-94228571D01*
X89645833Y-94466666D02*
X89169642Y-94466666D01*
X89741071Y-94752380D02*
X89407738Y-93752380D01*
X89074404Y-94752380D01*
X88741071Y-94752380D02*
X88741071Y-93752380D01*
X88169642Y-94752380D01*
X88169642Y-93752380D01*
X87693452Y-94752380D02*
X87693452Y-93752380D01*
X87122023Y-94752380D02*
X87550595Y-94180952D01*
X87122023Y-93752380D02*
X87693452Y-94323809D01*
X85455357Y-94752380D02*
X85931547Y-94752380D01*
X85931547Y-93752380D01*
X85217261Y-93752380D02*
X84598214Y-93752380D01*
X84931547Y-94133333D01*
X84788690Y-94133333D01*
X84693452Y-94180952D01*
X84645833Y-94228571D01*
X84598214Y-94323809D01*
X84598214Y-94561904D01*
X84645833Y-94657142D01*
X84693452Y-94704761D01*
X84788690Y-94752380D01*
X85074404Y-94752380D01*
X85169642Y-94704761D01*
X85217261Y-94657142D01*
X84169642Y-94657142D02*
X84122023Y-94704761D01*
X84169642Y-94752380D01*
X84217261Y-94704761D01*
X84169642Y-94657142D01*
X84169642Y-94752380D01*
X84169642Y-94133333D02*
X84122023Y-94180952D01*
X84169642Y-94228571D01*
X84217261Y-94180952D01*
X84169642Y-94133333D01*
X84169642Y-94228571D01*
X82979166Y-93847619D02*
X82931547Y-93800000D01*
X82836309Y-93752380D01*
X82598214Y-93752380D01*
X82502976Y-93800000D01*
X82455357Y-93847619D01*
X82407738Y-93942857D01*
X82407738Y-94038095D01*
X82455357Y-94180952D01*
X83026785Y-94752380D01*
X82407738Y-94752380D01*
X81502976Y-93752380D02*
X81979166Y-93752380D01*
X82026785Y-94228571D01*
X81979166Y-94180952D01*
X81883928Y-94133333D01*
X81645833Y-94133333D01*
X81550595Y-94180952D01*
X81502976Y-94228571D01*
X81455357Y-94323809D01*
X81455357Y-94561904D01*
X81502976Y-94657142D01*
X81550595Y-94704761D01*
X81645833Y-94752380D01*
X81883928Y-94752380D01*
X81979166Y-94704761D01*
X82026785Y-94657142D01*
X80598214Y-93752380D02*
X80788690Y-93752380D01*
X80883928Y-93800000D01*
X80931547Y-93847619D01*
X81026785Y-93990476D01*
X81074404Y-94180952D01*
X81074404Y-94561904D01*
X81026785Y-94657142D01*
X80979166Y-94704761D01*
X80883928Y-94752380D01*
X80693452Y-94752380D01*
X80598214Y-94704761D01*
X80550595Y-94657142D01*
X80502976Y-94561904D01*
X80502976Y-94323809D01*
X80550595Y-94228571D01*
X80598214Y-94180952D01*
X80693452Y-94133333D01*
X80883928Y-94133333D01*
X80979166Y-94180952D01*
X81026785Y-94228571D01*
X81074404Y-94323809D01*
X80074404Y-94371428D02*
X79312500Y-94371428D01*
X78931547Y-93752380D02*
X78312500Y-93752380D01*
X78645833Y-94133333D01*
X78502976Y-94133333D01*
X78407738Y-94180952D01*
X78360119Y-94228571D01*
X78312500Y-94323809D01*
X78312500Y-94561904D01*
X78360119Y-94657142D01*
X78407738Y-94704761D01*
X78502976Y-94752380D01*
X78788690Y-94752380D01*
X78883928Y-94704761D01*
X78931547Y-94657142D01*
X77741071Y-94180952D02*
X77836309Y-94133333D01*
X77883928Y-94085714D01*
X77931547Y-93990476D01*
X77931547Y-93942857D01*
X77883928Y-93847619D01*
X77836309Y-93800000D01*
X77741071Y-93752380D01*
X77550595Y-93752380D01*
X77455357Y-93800000D01*
X77407738Y-93847619D01*
X77360119Y-93942857D01*
X77360119Y-93990476D01*
X77407738Y-94085714D01*
X77455357Y-94133333D01*
X77550595Y-94180952D01*
X77741071Y-94180952D01*
X77836309Y-94228571D01*
X77883928Y-94276190D01*
X77931547Y-94371428D01*
X77931547Y-94561904D01*
X77883928Y-94657142D01*
X77836309Y-94704761D01*
X77741071Y-94752380D01*
X77550595Y-94752380D01*
X77455357Y-94704761D01*
X77407738Y-94657142D01*
X77360119Y-94561904D01*
X77360119Y-94371428D01*
X77407738Y-94276190D01*
X77455357Y-94228571D01*
X77550595Y-94180952D01*
X76502976Y-94085714D02*
X76502976Y-94752380D01*
X76741071Y-93704761D02*
X76979166Y-94419047D01*
X76360119Y-94419047D01*
X75979166Y-94752380D02*
X75979166Y-93752380D01*
X75883928Y-94371428D02*
X75598214Y-94752380D01*
X75598214Y-94085714D02*
X75979166Y-94466666D01*
X105122023Y-99654761D02*
X104979166Y-99702380D01*
X104741071Y-99702380D01*
X104645833Y-99654761D01*
X104598214Y-99607142D01*
X104550595Y-99511904D01*
X104550595Y-99416666D01*
X104598214Y-99321428D01*
X104645833Y-99273809D01*
X104741071Y-99226190D01*
X104931547Y-99178571D01*
X105026785Y-99130952D01*
X105074404Y-99083333D01*
X105122023Y-98988095D01*
X105122023Y-98892857D01*
X105074404Y-98797619D01*
X105026785Y-98750000D01*
X104931547Y-98702380D01*
X104693452Y-98702380D01*
X104550595Y-98750000D01*
X104217261Y-98702380D02*
X103979166Y-99702380D01*
X103788690Y-98988095D01*
X103598214Y-99702380D01*
X103360119Y-98702380D01*
X102550595Y-99035714D02*
X102550595Y-99702380D01*
X102788690Y-98654761D02*
X103026785Y-99369047D01*
X102407738Y-99369047D01*
X101074404Y-98702380D02*
X100883928Y-98702380D01*
X100788690Y-98750000D01*
X100693452Y-98845238D01*
X100645833Y-99035714D01*
X100645833Y-99369047D01*
X100693452Y-99559523D01*
X100788690Y-99654761D01*
X100883928Y-99702380D01*
X101074404Y-99702380D01*
X101169642Y-99654761D01*
X101264880Y-99559523D01*
X101312500Y-99369047D01*
X101312500Y-99035714D01*
X101264880Y-98845238D01*
X101169642Y-98750000D01*
X101074404Y-98702380D01*
X100217261Y-99035714D02*
X100217261Y-99702380D01*
X100217261Y-99130952D02*
X100169642Y-99083333D01*
X100074404Y-99035714D01*
X99931547Y-99035714D01*
X99836309Y-99083333D01*
X99788690Y-99178571D01*
X99788690Y-99702380D01*
X99312500Y-99607142D02*
X99264880Y-99654761D01*
X99312500Y-99702380D01*
X99360119Y-99654761D01*
X99312500Y-99607142D01*
X99312500Y-99702380D01*
X99312500Y-99083333D02*
X99264880Y-99130952D01*
X99312500Y-99178571D01*
X99360119Y-99130952D01*
X99312500Y-99083333D01*
X99312500Y-99178571D01*
X98074404Y-99702380D02*
X98074404Y-98702380D01*
X97836309Y-98702380D01*
X97693452Y-98750000D01*
X97598214Y-98845238D01*
X97550595Y-98940476D01*
X97502976Y-99130952D01*
X97502976Y-99273809D01*
X97550595Y-99464285D01*
X97598214Y-99559523D01*
X97693452Y-99654761D01*
X97836309Y-99702380D01*
X98074404Y-99702380D01*
X97074404Y-99702380D02*
X97074404Y-99035714D01*
X97074404Y-98702380D02*
X97122023Y-98750000D01*
X97074404Y-98797619D01*
X97026785Y-98750000D01*
X97074404Y-98702380D01*
X97074404Y-98797619D01*
X96645833Y-99654761D02*
X96550595Y-99702380D01*
X96360119Y-99702380D01*
X96264880Y-99654761D01*
X96217261Y-99559523D01*
X96217261Y-99511904D01*
X96264880Y-99416666D01*
X96360119Y-99369047D01*
X96502976Y-99369047D01*
X96598214Y-99321428D01*
X96645833Y-99226190D01*
X96645833Y-99178571D01*
X96598214Y-99083333D01*
X96502976Y-99035714D01*
X96360119Y-99035714D01*
X96264880Y-99083333D01*
X95360119Y-99702380D02*
X95360119Y-99178571D01*
X95407738Y-99083333D01*
X95502976Y-99035714D01*
X95693452Y-99035714D01*
X95788690Y-99083333D01*
X95360119Y-99654761D02*
X95455357Y-99702380D01*
X95693452Y-99702380D01*
X95788690Y-99654761D01*
X95836309Y-99559523D01*
X95836309Y-99464285D01*
X95788690Y-99369047D01*
X95693452Y-99321428D01*
X95455357Y-99321428D01*
X95360119Y-99273809D01*
X94883928Y-99702380D02*
X94883928Y-98702380D01*
X94883928Y-99083333D02*
X94788690Y-99035714D01*
X94598214Y-99035714D01*
X94502976Y-99083333D01*
X94455357Y-99130952D01*
X94407738Y-99226190D01*
X94407738Y-99511904D01*
X94455357Y-99607142D01*
X94502976Y-99654761D01*
X94598214Y-99702380D01*
X94788690Y-99702380D01*
X94883928Y-99654761D01*
X93836309Y-99702380D02*
X93931547Y-99654761D01*
X93979166Y-99559523D01*
X93979166Y-98702380D01*
X93074404Y-99654761D02*
X93169642Y-99702380D01*
X93360119Y-99702380D01*
X93455357Y-99654761D01*
X93502976Y-99559523D01*
X93502976Y-99178571D01*
X93455357Y-99083333D01*
X93360119Y-99035714D01*
X93169642Y-99035714D01*
X93074404Y-99083333D01*
X93026785Y-99178571D01*
X93026785Y-99273809D01*
X93502976Y-99369047D01*
X91836309Y-99607142D02*
X91788690Y-99654761D01*
X91836309Y-99702380D01*
X91883928Y-99654761D01*
X91836309Y-99607142D01*
X91836309Y-99702380D01*
X91836309Y-99083333D02*
X91788690Y-99130952D01*
X91836309Y-99178571D01*
X91883928Y-99130952D01*
X91836309Y-99083333D01*
X91836309Y-99178571D01*
X90264880Y-99178571D02*
X90122023Y-99226190D01*
X90074404Y-99273809D01*
X90026785Y-99369047D01*
X90026785Y-99511904D01*
X90074404Y-99607142D01*
X90122023Y-99654761D01*
X90217261Y-99702380D01*
X90598214Y-99702380D01*
X90598214Y-98702380D01*
X90264880Y-98702380D01*
X90169642Y-98750000D01*
X90122023Y-98797619D01*
X90074404Y-98892857D01*
X90074404Y-98988095D01*
X90122023Y-99083333D01*
X90169642Y-99130952D01*
X90264880Y-99178571D01*
X90598214Y-99178571D01*
X89645833Y-99416666D02*
X89169642Y-99416666D01*
X89741071Y-99702380D02*
X89407738Y-98702380D01*
X89074404Y-99702380D01*
X88741071Y-99702380D02*
X88741071Y-98702380D01*
X88169642Y-99702380D01*
X88169642Y-98702380D01*
X87693452Y-99702380D02*
X87693452Y-98702380D01*
X87122023Y-99702380D02*
X87550595Y-99130952D01*
X87122023Y-98702380D02*
X87693452Y-99273809D01*
X85455357Y-99702380D02*
X85931547Y-99702380D01*
X85931547Y-98702380D01*
X84693452Y-99035714D02*
X84693452Y-99702380D01*
X84931547Y-98654761D02*
X85169642Y-99369047D01*
X84550595Y-99369047D01*
X84169642Y-99607142D02*
X84122023Y-99654761D01*
X84169642Y-99702380D01*
X84217261Y-99654761D01*
X84169642Y-99607142D01*
X84169642Y-99702380D01*
X84169642Y-99083333D02*
X84122023Y-99130952D01*
X84169642Y-99178571D01*
X84217261Y-99130952D01*
X84169642Y-99083333D01*
X84169642Y-99178571D01*
X83026785Y-98702380D02*
X82407738Y-98702380D01*
X82741071Y-99083333D01*
X82598214Y-99083333D01*
X82502976Y-99130952D01*
X82455357Y-99178571D01*
X82407738Y-99273809D01*
X82407738Y-99511904D01*
X82455357Y-99607142D01*
X82502976Y-99654761D01*
X82598214Y-99702380D01*
X82883928Y-99702380D01*
X82979166Y-99654761D01*
X83026785Y-99607142D01*
X81836309Y-99130952D02*
X81931547Y-99083333D01*
X81979166Y-99035714D01*
X82026785Y-98940476D01*
X82026785Y-98892857D01*
X81979166Y-98797619D01*
X81931547Y-98750000D01*
X81836309Y-98702380D01*
X81645833Y-98702380D01*
X81550595Y-98750000D01*
X81502976Y-98797619D01*
X81455357Y-98892857D01*
X81455357Y-98940476D01*
X81502976Y-99035714D01*
X81550595Y-99083333D01*
X81645833Y-99130952D01*
X81836309Y-99130952D01*
X81931547Y-99178571D01*
X81979166Y-99226190D01*
X82026785Y-99321428D01*
X82026785Y-99511904D01*
X81979166Y-99607142D01*
X81931547Y-99654761D01*
X81836309Y-99702380D01*
X81645833Y-99702380D01*
X81550595Y-99654761D01*
X81502976Y-99607142D01*
X81455357Y-99511904D01*
X81455357Y-99321428D01*
X81502976Y-99226190D01*
X81550595Y-99178571D01*
X81645833Y-99130952D01*
X80598214Y-99035714D02*
X80598214Y-99702380D01*
X80836309Y-98654761D02*
X81074404Y-99369047D01*
X80455357Y-99369047D01*
X80074404Y-99321428D02*
X79312500Y-99321428D01*
X78360119Y-98702380D02*
X78836309Y-98702380D01*
X78883928Y-99178571D01*
X78836309Y-99130952D01*
X78741071Y-99083333D01*
X78502976Y-99083333D01*
X78407738Y-99130952D01*
X78360119Y-99178571D01*
X78312500Y-99273809D01*
X78312500Y-99511904D01*
X78360119Y-99607142D01*
X78407738Y-99654761D01*
X78502976Y-99702380D01*
X78741071Y-99702380D01*
X78836309Y-99654761D01*
X78883928Y-99607142D01*
X77360119Y-99702380D02*
X77931547Y-99702380D01*
X77645833Y-99702380D02*
X77645833Y-98702380D01*
X77741071Y-98845238D01*
X77836309Y-98940476D01*
X77931547Y-98988095D01*
X76979166Y-98797619D02*
X76931547Y-98750000D01*
X76836309Y-98702380D01*
X76598214Y-98702380D01*
X76502976Y-98750000D01*
X76455357Y-98797619D01*
X76407738Y-98892857D01*
X76407738Y-98988095D01*
X76455357Y-99130952D01*
X77026785Y-99702380D01*
X76407738Y-99702380D01*
X75979166Y-99702380D02*
X75979166Y-98702380D01*
X75883928Y-99321428D02*
X75598214Y-99702380D01*
X75598214Y-99035714D02*
X75979166Y-99416666D01*
X105122023Y-101304761D02*
X104979166Y-101352380D01*
X104741071Y-101352380D01*
X104645833Y-101304761D01*
X104598214Y-101257142D01*
X104550595Y-101161904D01*
X104550595Y-101066666D01*
X104598214Y-100971428D01*
X104645833Y-100923809D01*
X104741071Y-100876190D01*
X104931547Y-100828571D01*
X105026785Y-100780952D01*
X105074404Y-100733333D01*
X105122023Y-100638095D01*
X105122023Y-100542857D01*
X105074404Y-100447619D01*
X105026785Y-100400000D01*
X104931547Y-100352380D01*
X104693452Y-100352380D01*
X104550595Y-100400000D01*
X104217261Y-100352380D02*
X103979166Y-101352380D01*
X103788690Y-100638095D01*
X103598214Y-101352380D01*
X103360119Y-100352380D01*
X102502976Y-100352380D02*
X102979166Y-100352380D01*
X103026785Y-100828571D01*
X102979166Y-100780952D01*
X102883928Y-100733333D01*
X102645833Y-100733333D01*
X102550595Y-100780952D01*
X102502976Y-100828571D01*
X102455357Y-100923809D01*
X102455357Y-101161904D01*
X102502976Y-101257142D01*
X102550595Y-101304761D01*
X102645833Y-101352380D01*
X102883928Y-101352380D01*
X102979166Y-101304761D01*
X103026785Y-101257142D01*
X101074404Y-100352380D02*
X100883928Y-100352380D01*
X100788690Y-100400000D01*
X100693452Y-100495238D01*
X100645833Y-100685714D01*
X100645833Y-101019047D01*
X100693452Y-101209523D01*
X100788690Y-101304761D01*
X100883928Y-101352380D01*
X101074404Y-101352380D01*
X101169642Y-101304761D01*
X101264880Y-101209523D01*
X101312500Y-101019047D01*
X101312500Y-100685714D01*
X101264880Y-100495238D01*
X101169642Y-100400000D01*
X101074404Y-100352380D01*
X100217261Y-100685714D02*
X100217261Y-101352380D01*
X100217261Y-100780952D02*
X100169642Y-100733333D01*
X100074404Y-100685714D01*
X99931547Y-100685714D01*
X99836309Y-100733333D01*
X99788690Y-100828571D01*
X99788690Y-101352380D01*
X99312500Y-101257142D02*
X99264880Y-101304761D01*
X99312500Y-101352380D01*
X99360119Y-101304761D01*
X99312500Y-101257142D01*
X99312500Y-101352380D01*
X99312500Y-100733333D02*
X99264880Y-100780952D01*
X99312500Y-100828571D01*
X99360119Y-100780952D01*
X99312500Y-100733333D01*
X99312500Y-100828571D01*
X98074404Y-101352380D02*
X98074404Y-100352380D01*
X97836309Y-100352380D01*
X97693452Y-100400000D01*
X97598214Y-100495238D01*
X97550595Y-100590476D01*
X97502976Y-100780952D01*
X97502976Y-100923809D01*
X97550595Y-101114285D01*
X97598214Y-101209523D01*
X97693452Y-101304761D01*
X97836309Y-101352380D01*
X98074404Y-101352380D01*
X97074404Y-101352380D02*
X97074404Y-100685714D01*
X97074404Y-100352380D02*
X97122023Y-100400000D01*
X97074404Y-100447619D01*
X97026785Y-100400000D01*
X97074404Y-100352380D01*
X97074404Y-100447619D01*
X96645833Y-101304761D02*
X96550595Y-101352380D01*
X96360119Y-101352380D01*
X96264880Y-101304761D01*
X96217261Y-101209523D01*
X96217261Y-101161904D01*
X96264880Y-101066666D01*
X96360119Y-101019047D01*
X96502976Y-101019047D01*
X96598214Y-100971428D01*
X96645833Y-100876190D01*
X96645833Y-100828571D01*
X96598214Y-100733333D01*
X96502976Y-100685714D01*
X96360119Y-100685714D01*
X96264880Y-100733333D01*
X95360119Y-101352380D02*
X95360119Y-100828571D01*
X95407738Y-100733333D01*
X95502976Y-100685714D01*
X95693452Y-100685714D01*
X95788690Y-100733333D01*
X95360119Y-101304761D02*
X95455357Y-101352380D01*
X95693452Y-101352380D01*
X95788690Y-101304761D01*
X95836309Y-101209523D01*
X95836309Y-101114285D01*
X95788690Y-101019047D01*
X95693452Y-100971428D01*
X95455357Y-100971428D01*
X95360119Y-100923809D01*
X94883928Y-101352380D02*
X94883928Y-100352380D01*
X94883928Y-100733333D02*
X94788690Y-100685714D01*
X94598214Y-100685714D01*
X94502976Y-100733333D01*
X94455357Y-100780952D01*
X94407738Y-100876190D01*
X94407738Y-101161904D01*
X94455357Y-101257142D01*
X94502976Y-101304761D01*
X94598214Y-101352380D01*
X94788690Y-101352380D01*
X94883928Y-101304761D01*
X93836309Y-101352380D02*
X93931547Y-101304761D01*
X93979166Y-101209523D01*
X93979166Y-100352380D01*
X93074404Y-101304761D02*
X93169642Y-101352380D01*
X93360119Y-101352380D01*
X93455357Y-101304761D01*
X93502976Y-101209523D01*
X93502976Y-100828571D01*
X93455357Y-100733333D01*
X93360119Y-100685714D01*
X93169642Y-100685714D01*
X93074404Y-100733333D01*
X93026785Y-100828571D01*
X93026785Y-100923809D01*
X93502976Y-101019047D01*
X91836309Y-101257142D02*
X91788690Y-101304761D01*
X91836309Y-101352380D01*
X91883928Y-101304761D01*
X91836309Y-101257142D01*
X91836309Y-101352380D01*
X91836309Y-100733333D02*
X91788690Y-100780952D01*
X91836309Y-100828571D01*
X91883928Y-100780952D01*
X91836309Y-100733333D01*
X91836309Y-100828571D01*
X90264880Y-100828571D02*
X90122023Y-100876190D01*
X90074404Y-100923809D01*
X90026785Y-101019047D01*
X90026785Y-101161904D01*
X90074404Y-101257142D01*
X90122023Y-101304761D01*
X90217261Y-101352380D01*
X90598214Y-101352380D01*
X90598214Y-100352380D01*
X90264880Y-100352380D01*
X90169642Y-100400000D01*
X90122023Y-100447619D01*
X90074404Y-100542857D01*
X90074404Y-100638095D01*
X90122023Y-100733333D01*
X90169642Y-100780952D01*
X90264880Y-100828571D01*
X90598214Y-100828571D01*
X89645833Y-101066666D02*
X89169642Y-101066666D01*
X89741071Y-101352380D02*
X89407738Y-100352380D01*
X89074404Y-101352380D01*
X88741071Y-101352380D02*
X88741071Y-100352380D01*
X88169642Y-101352380D01*
X88169642Y-100352380D01*
X87693452Y-101352380D02*
X87693452Y-100352380D01*
X87122023Y-101352380D02*
X87550595Y-100780952D01*
X87122023Y-100352380D02*
X87693452Y-100923809D01*
X85931547Y-101352380D02*
X85931547Y-100352380D01*
X85931547Y-100828571D02*
X85360119Y-100828571D01*
X85360119Y-101352380D02*
X85360119Y-100352380D01*
X84360119Y-101352380D02*
X84931547Y-101352380D01*
X84645833Y-101352380D02*
X84645833Y-100352380D01*
X84741071Y-100495238D01*
X84836309Y-100590476D01*
X84931547Y-100638095D01*
X83931547Y-101257142D02*
X83883928Y-101304761D01*
X83931547Y-101352380D01*
X83979166Y-101304761D01*
X83931547Y-101257142D01*
X83931547Y-101352380D01*
X83931547Y-100733333D02*
X83883928Y-100780952D01*
X83931547Y-100828571D01*
X83979166Y-100780952D01*
X83931547Y-100733333D01*
X83931547Y-100828571D01*
X82217261Y-100352380D02*
X82693452Y-100352380D01*
X82741071Y-100828571D01*
X82693452Y-100780952D01*
X82598214Y-100733333D01*
X82360119Y-100733333D01*
X82264880Y-100780952D01*
X82217261Y-100828571D01*
X82169642Y-100923809D01*
X82169642Y-101161904D01*
X82217261Y-101257142D01*
X82264880Y-101304761D01*
X82360119Y-101352380D01*
X82598214Y-101352380D01*
X82693452Y-101304761D01*
X82741071Y-101257142D01*
X81217261Y-101352380D02*
X81788690Y-101352380D01*
X81502976Y-101352380D02*
X81502976Y-100352380D01*
X81598214Y-100495238D01*
X81693452Y-100590476D01*
X81788690Y-100638095D01*
X80836309Y-100447619D02*
X80788690Y-100400000D01*
X80693452Y-100352380D01*
X80455357Y-100352380D01*
X80360119Y-100400000D01*
X80312500Y-100447619D01*
X80264880Y-100542857D01*
X80264880Y-100638095D01*
X80312500Y-100780952D01*
X80883928Y-101352380D01*
X80264880Y-101352380D01*
X79836309Y-101352380D02*
X79836309Y-100352380D01*
X79741071Y-100971428D02*
X79455357Y-101352380D01*
X79455357Y-100685714D02*
X79836309Y-101066666D01*
X79026785Y-100971428D02*
X78264880Y-100971428D01*
X77360119Y-100352380D02*
X77550595Y-100352380D01*
X77645833Y-100400000D01*
X77693452Y-100447619D01*
X77788690Y-100590476D01*
X77836309Y-100780952D01*
X77836309Y-101161904D01*
X77788690Y-101257142D01*
X77741071Y-101304761D01*
X77645833Y-101352380D01*
X77455357Y-101352380D01*
X77360119Y-101304761D01*
X77312500Y-101257142D01*
X77264880Y-101161904D01*
X77264880Y-100923809D01*
X77312500Y-100828571D01*
X77360119Y-100780952D01*
X77455357Y-100733333D01*
X77645833Y-100733333D01*
X77741071Y-100780952D01*
X77788690Y-100828571D01*
X77836309Y-100923809D01*
X76407738Y-100685714D02*
X76407738Y-101352380D01*
X76645833Y-100304761D02*
X76883928Y-101019047D01*
X76264880Y-101019047D01*
X75693452Y-100352380D02*
X75598214Y-100352380D01*
X75502976Y-100400000D01*
X75455357Y-100447619D01*
X75407738Y-100542857D01*
X75360119Y-100733333D01*
X75360119Y-100971428D01*
X75407738Y-101161904D01*
X75455357Y-101257142D01*
X75502976Y-101304761D01*
X75598214Y-101352380D01*
X75693452Y-101352380D01*
X75788690Y-101304761D01*
X75836309Y-101257142D01*
X75883928Y-101161904D01*
X75931547Y-100971428D01*
X75931547Y-100733333D01*
X75883928Y-100542857D01*
X75836309Y-100447619D01*
X75788690Y-100400000D01*
X75693452Y-100352380D01*
X74931547Y-101352380D02*
X74931547Y-100352380D01*
X74836309Y-100971428D02*
X74550595Y-101352380D01*
X74550595Y-100685714D02*
X74931547Y-101066666D01*
X105122023Y-102954761D02*
X104979166Y-103002380D01*
X104741071Y-103002380D01*
X104645833Y-102954761D01*
X104598214Y-102907142D01*
X104550595Y-102811904D01*
X104550595Y-102716666D01*
X104598214Y-102621428D01*
X104645833Y-102573809D01*
X104741071Y-102526190D01*
X104931547Y-102478571D01*
X105026785Y-102430952D01*
X105074404Y-102383333D01*
X105122023Y-102288095D01*
X105122023Y-102192857D01*
X105074404Y-102097619D01*
X105026785Y-102050000D01*
X104931547Y-102002380D01*
X104693452Y-102002380D01*
X104550595Y-102050000D01*
X104217261Y-102002380D02*
X103979166Y-103002380D01*
X103788690Y-102288095D01*
X103598214Y-103002380D01*
X103360119Y-102002380D01*
X102550595Y-102002380D02*
X102741071Y-102002380D01*
X102836309Y-102050000D01*
X102883928Y-102097619D01*
X102979166Y-102240476D01*
X103026785Y-102430952D01*
X103026785Y-102811904D01*
X102979166Y-102907142D01*
X102931547Y-102954761D01*
X102836309Y-103002380D01*
X102645833Y-103002380D01*
X102550595Y-102954761D01*
X102502976Y-102907142D01*
X102455357Y-102811904D01*
X102455357Y-102573809D01*
X102502976Y-102478571D01*
X102550595Y-102430952D01*
X102645833Y-102383333D01*
X102836309Y-102383333D01*
X102931547Y-102430952D01*
X102979166Y-102478571D01*
X103026785Y-102573809D01*
X101074404Y-102002380D02*
X100883928Y-102002380D01*
X100788690Y-102050000D01*
X100693452Y-102145238D01*
X100645833Y-102335714D01*
X100645833Y-102669047D01*
X100693452Y-102859523D01*
X100788690Y-102954761D01*
X100883928Y-103002380D01*
X101074404Y-103002380D01*
X101169642Y-102954761D01*
X101264880Y-102859523D01*
X101312500Y-102669047D01*
X101312500Y-102335714D01*
X101264880Y-102145238D01*
X101169642Y-102050000D01*
X101074404Y-102002380D01*
X100217261Y-102335714D02*
X100217261Y-103002380D01*
X100217261Y-102430952D02*
X100169642Y-102383333D01*
X100074404Y-102335714D01*
X99931547Y-102335714D01*
X99836309Y-102383333D01*
X99788690Y-102478571D01*
X99788690Y-103002380D01*
X99312500Y-102907142D02*
X99264880Y-102954761D01*
X99312500Y-103002380D01*
X99360119Y-102954761D01*
X99312500Y-102907142D01*
X99312500Y-103002380D01*
X99312500Y-102383333D02*
X99264880Y-102430952D01*
X99312500Y-102478571D01*
X99360119Y-102430952D01*
X99312500Y-102383333D01*
X99312500Y-102478571D01*
X98074404Y-103002380D02*
X98074404Y-102002380D01*
X97836309Y-102002380D01*
X97693452Y-102050000D01*
X97598214Y-102145238D01*
X97550595Y-102240476D01*
X97502976Y-102430952D01*
X97502976Y-102573809D01*
X97550595Y-102764285D01*
X97598214Y-102859523D01*
X97693452Y-102954761D01*
X97836309Y-103002380D01*
X98074404Y-103002380D01*
X97074404Y-103002380D02*
X97074404Y-102335714D01*
X97074404Y-102002380D02*
X97122023Y-102050000D01*
X97074404Y-102097619D01*
X97026785Y-102050000D01*
X97074404Y-102002380D01*
X97074404Y-102097619D01*
X96645833Y-102954761D02*
X96550595Y-103002380D01*
X96360119Y-103002380D01*
X96264880Y-102954761D01*
X96217261Y-102859523D01*
X96217261Y-102811904D01*
X96264880Y-102716666D01*
X96360119Y-102669047D01*
X96502976Y-102669047D01*
X96598214Y-102621428D01*
X96645833Y-102526190D01*
X96645833Y-102478571D01*
X96598214Y-102383333D01*
X96502976Y-102335714D01*
X96360119Y-102335714D01*
X96264880Y-102383333D01*
X95360119Y-103002380D02*
X95360119Y-102478571D01*
X95407738Y-102383333D01*
X95502976Y-102335714D01*
X95693452Y-102335714D01*
X95788690Y-102383333D01*
X95360119Y-102954761D02*
X95455357Y-103002380D01*
X95693452Y-103002380D01*
X95788690Y-102954761D01*
X95836309Y-102859523D01*
X95836309Y-102764285D01*
X95788690Y-102669047D01*
X95693452Y-102621428D01*
X95455357Y-102621428D01*
X95360119Y-102573809D01*
X94883928Y-103002380D02*
X94883928Y-102002380D01*
X94883928Y-102383333D02*
X94788690Y-102335714D01*
X94598214Y-102335714D01*
X94502976Y-102383333D01*
X94455357Y-102430952D01*
X94407738Y-102526190D01*
X94407738Y-102811904D01*
X94455357Y-102907142D01*
X94502976Y-102954761D01*
X94598214Y-103002380D01*
X94788690Y-103002380D01*
X94883928Y-102954761D01*
X93836309Y-103002380D02*
X93931547Y-102954761D01*
X93979166Y-102859523D01*
X93979166Y-102002380D01*
X93074404Y-102954761D02*
X93169642Y-103002380D01*
X93360119Y-103002380D01*
X93455357Y-102954761D01*
X93502976Y-102859523D01*
X93502976Y-102478571D01*
X93455357Y-102383333D01*
X93360119Y-102335714D01*
X93169642Y-102335714D01*
X93074404Y-102383333D01*
X93026785Y-102478571D01*
X93026785Y-102573809D01*
X93502976Y-102669047D01*
X91836309Y-102907142D02*
X91788690Y-102954761D01*
X91836309Y-103002380D01*
X91883928Y-102954761D01*
X91836309Y-102907142D01*
X91836309Y-103002380D01*
X91836309Y-102383333D02*
X91788690Y-102430952D01*
X91836309Y-102478571D01*
X91883928Y-102430952D01*
X91836309Y-102383333D01*
X91836309Y-102478571D01*
X90264880Y-102478571D02*
X90122023Y-102526190D01*
X90074404Y-102573809D01*
X90026785Y-102669047D01*
X90026785Y-102811904D01*
X90074404Y-102907142D01*
X90122023Y-102954761D01*
X90217261Y-103002380D01*
X90598214Y-103002380D01*
X90598214Y-102002380D01*
X90264880Y-102002380D01*
X90169642Y-102050000D01*
X90122023Y-102097619D01*
X90074404Y-102192857D01*
X90074404Y-102288095D01*
X90122023Y-102383333D01*
X90169642Y-102430952D01*
X90264880Y-102478571D01*
X90598214Y-102478571D01*
X89645833Y-102716666D02*
X89169642Y-102716666D01*
X89741071Y-103002380D02*
X89407738Y-102002380D01*
X89074404Y-103002380D01*
X88741071Y-103002380D02*
X88741071Y-102002380D01*
X88169642Y-103002380D01*
X88169642Y-102002380D01*
X87693452Y-103002380D02*
X87693452Y-102002380D01*
X87122023Y-103002380D02*
X87550595Y-102430952D01*
X87122023Y-102002380D02*
X87693452Y-102573809D01*
X85931547Y-103002380D02*
X85931547Y-102002380D01*
X85931547Y-102478571D02*
X85360119Y-102478571D01*
X85360119Y-103002380D02*
X85360119Y-102002380D01*
X84931547Y-102097619D02*
X84883928Y-102050000D01*
X84788690Y-102002380D01*
X84550595Y-102002380D01*
X84455357Y-102050000D01*
X84407738Y-102097619D01*
X84360119Y-102192857D01*
X84360119Y-102288095D01*
X84407738Y-102430952D01*
X84979166Y-103002380D01*
X84360119Y-103002380D01*
X83931547Y-102907142D02*
X83883928Y-102954761D01*
X83931547Y-103002380D01*
X83979166Y-102954761D01*
X83931547Y-102907142D01*
X83931547Y-103002380D01*
X83931547Y-102383333D02*
X83883928Y-102430952D01*
X83931547Y-102478571D01*
X83979166Y-102430952D01*
X83931547Y-102383333D01*
X83931547Y-102478571D01*
X82264880Y-102002380D02*
X82455357Y-102002380D01*
X82550595Y-102050000D01*
X82598214Y-102097619D01*
X82693452Y-102240476D01*
X82741071Y-102430952D01*
X82741071Y-102811904D01*
X82693452Y-102907142D01*
X82645833Y-102954761D01*
X82550595Y-103002380D01*
X82360119Y-103002380D01*
X82264880Y-102954761D01*
X82217261Y-102907142D01*
X82169642Y-102811904D01*
X82169642Y-102573809D01*
X82217261Y-102478571D01*
X82264880Y-102430952D01*
X82360119Y-102383333D01*
X82550595Y-102383333D01*
X82645833Y-102430952D01*
X82693452Y-102478571D01*
X82741071Y-102573809D01*
X81312500Y-102335714D02*
X81312500Y-103002380D01*
X81550595Y-101954761D02*
X81788690Y-102669047D01*
X81169642Y-102669047D01*
X80598214Y-102002380D02*
X80502976Y-102002380D01*
X80407738Y-102050000D01*
X80360119Y-102097619D01*
X80312500Y-102192857D01*
X80264880Y-102383333D01*
X80264880Y-102621428D01*
X80312500Y-102811904D01*
X80360119Y-102907142D01*
X80407738Y-102954761D01*
X80502976Y-103002380D01*
X80598214Y-103002380D01*
X80693452Y-102954761D01*
X80741071Y-102907142D01*
X80788690Y-102811904D01*
X80836309Y-102621428D01*
X80836309Y-102383333D01*
X80788690Y-102192857D01*
X80741071Y-102097619D01*
X80693452Y-102050000D01*
X80598214Y-102002380D01*
X79836309Y-103002380D02*
X79836309Y-102002380D01*
X79741071Y-102621428D02*
X79455357Y-103002380D01*
X79455357Y-102335714D02*
X79836309Y-102716666D01*
X79026785Y-102621428D02*
X78264880Y-102621428D01*
X77883928Y-102002380D02*
X77217261Y-102002380D01*
X77645833Y-103002380D01*
X76407738Y-102002380D02*
X76598214Y-102002380D01*
X76693452Y-102050000D01*
X76741071Y-102097619D01*
X76836309Y-102240476D01*
X76883928Y-102430952D01*
X76883928Y-102811904D01*
X76836309Y-102907142D01*
X76788690Y-102954761D01*
X76693452Y-103002380D01*
X76502976Y-103002380D01*
X76407738Y-102954761D01*
X76360119Y-102907142D01*
X76312500Y-102811904D01*
X76312500Y-102573809D01*
X76360119Y-102478571D01*
X76407738Y-102430952D01*
X76502976Y-102383333D01*
X76693452Y-102383333D01*
X76788690Y-102430952D01*
X76836309Y-102478571D01*
X76883928Y-102573809D01*
X75741071Y-102430952D02*
X75836309Y-102383333D01*
X75883928Y-102335714D01*
X75931547Y-102240476D01*
X75931547Y-102192857D01*
X75883928Y-102097619D01*
X75836309Y-102050000D01*
X75741071Y-102002380D01*
X75550595Y-102002380D01*
X75455357Y-102050000D01*
X75407738Y-102097619D01*
X75360119Y-102192857D01*
X75360119Y-102240476D01*
X75407738Y-102335714D01*
X75455357Y-102383333D01*
X75550595Y-102430952D01*
X75741071Y-102430952D01*
X75836309Y-102478571D01*
X75883928Y-102526190D01*
X75931547Y-102621428D01*
X75931547Y-102811904D01*
X75883928Y-102907142D01*
X75836309Y-102954761D01*
X75741071Y-103002380D01*
X75550595Y-103002380D01*
X75455357Y-102954761D01*
X75407738Y-102907142D01*
X75360119Y-102811904D01*
X75360119Y-102621428D01*
X75407738Y-102526190D01*
X75455357Y-102478571D01*
X75550595Y-102430952D01*
X74931547Y-103002380D02*
X74931547Y-102002380D01*
X74836309Y-102621428D02*
X74550595Y-103002380D01*
X74550595Y-102335714D02*
X74931547Y-102716666D01*
X105122023Y-104604761D02*
X104979166Y-104652380D01*
X104741071Y-104652380D01*
X104645833Y-104604761D01*
X104598214Y-104557142D01*
X104550595Y-104461904D01*
X104550595Y-104366666D01*
X104598214Y-104271428D01*
X104645833Y-104223809D01*
X104741071Y-104176190D01*
X104931547Y-104128571D01*
X105026785Y-104080952D01*
X105074404Y-104033333D01*
X105122023Y-103938095D01*
X105122023Y-103842857D01*
X105074404Y-103747619D01*
X105026785Y-103700000D01*
X104931547Y-103652380D01*
X104693452Y-103652380D01*
X104550595Y-103700000D01*
X104217261Y-103652380D02*
X103979166Y-104652380D01*
X103788690Y-103938095D01*
X103598214Y-104652380D01*
X103360119Y-103652380D01*
X103074404Y-103652380D02*
X102407738Y-103652380D01*
X102836309Y-104652380D01*
X101074404Y-103652380D02*
X100883928Y-103652380D01*
X100788690Y-103700000D01*
X100693452Y-103795238D01*
X100645833Y-103985714D01*
X100645833Y-104319047D01*
X100693452Y-104509523D01*
X100788690Y-104604761D01*
X100883928Y-104652380D01*
X101074404Y-104652380D01*
X101169642Y-104604761D01*
X101264880Y-104509523D01*
X101312500Y-104319047D01*
X101312500Y-103985714D01*
X101264880Y-103795238D01*
X101169642Y-103700000D01*
X101074404Y-103652380D01*
X100217261Y-103985714D02*
X100217261Y-104652380D01*
X100217261Y-104080952D02*
X100169642Y-104033333D01*
X100074404Y-103985714D01*
X99931547Y-103985714D01*
X99836309Y-104033333D01*
X99788690Y-104128571D01*
X99788690Y-104652380D01*
X99312500Y-104557142D02*
X99264880Y-104604761D01*
X99312500Y-104652380D01*
X99360119Y-104604761D01*
X99312500Y-104557142D01*
X99312500Y-104652380D01*
X99312500Y-104033333D02*
X99264880Y-104080952D01*
X99312500Y-104128571D01*
X99360119Y-104080952D01*
X99312500Y-104033333D01*
X99312500Y-104128571D01*
X98074404Y-104652380D02*
X98074404Y-103652380D01*
X97836309Y-103652380D01*
X97693452Y-103700000D01*
X97598214Y-103795238D01*
X97550595Y-103890476D01*
X97502976Y-104080952D01*
X97502976Y-104223809D01*
X97550595Y-104414285D01*
X97598214Y-104509523D01*
X97693452Y-104604761D01*
X97836309Y-104652380D01*
X98074404Y-104652380D01*
X97074404Y-104652380D02*
X97074404Y-103985714D01*
X97074404Y-103652380D02*
X97122023Y-103700000D01*
X97074404Y-103747619D01*
X97026785Y-103700000D01*
X97074404Y-103652380D01*
X97074404Y-103747619D01*
X96645833Y-104604761D02*
X96550595Y-104652380D01*
X96360119Y-104652380D01*
X96264880Y-104604761D01*
X96217261Y-104509523D01*
X96217261Y-104461904D01*
X96264880Y-104366666D01*
X96360119Y-104319047D01*
X96502976Y-104319047D01*
X96598214Y-104271428D01*
X96645833Y-104176190D01*
X96645833Y-104128571D01*
X96598214Y-104033333D01*
X96502976Y-103985714D01*
X96360119Y-103985714D01*
X96264880Y-104033333D01*
X95360119Y-104652380D02*
X95360119Y-104128571D01*
X95407738Y-104033333D01*
X95502976Y-103985714D01*
X95693452Y-103985714D01*
X95788690Y-104033333D01*
X95360119Y-104604761D02*
X95455357Y-104652380D01*
X95693452Y-104652380D01*
X95788690Y-104604761D01*
X95836309Y-104509523D01*
X95836309Y-104414285D01*
X95788690Y-104319047D01*
X95693452Y-104271428D01*
X95455357Y-104271428D01*
X95360119Y-104223809D01*
X94883928Y-104652380D02*
X94883928Y-103652380D01*
X94883928Y-104033333D02*
X94788690Y-103985714D01*
X94598214Y-103985714D01*
X94502976Y-104033333D01*
X94455357Y-104080952D01*
X94407738Y-104176190D01*
X94407738Y-104461904D01*
X94455357Y-104557142D01*
X94502976Y-104604761D01*
X94598214Y-104652380D01*
X94788690Y-104652380D01*
X94883928Y-104604761D01*
X93836309Y-104652380D02*
X93931547Y-104604761D01*
X93979166Y-104509523D01*
X93979166Y-103652380D01*
X93074404Y-104604761D02*
X93169642Y-104652380D01*
X93360119Y-104652380D01*
X93455357Y-104604761D01*
X93502976Y-104509523D01*
X93502976Y-104128571D01*
X93455357Y-104033333D01*
X93360119Y-103985714D01*
X93169642Y-103985714D01*
X93074404Y-104033333D01*
X93026785Y-104128571D01*
X93026785Y-104223809D01*
X93502976Y-104319047D01*
X91836309Y-104557142D02*
X91788690Y-104604761D01*
X91836309Y-104652380D01*
X91883928Y-104604761D01*
X91836309Y-104557142D01*
X91836309Y-104652380D01*
X91836309Y-104033333D02*
X91788690Y-104080952D01*
X91836309Y-104128571D01*
X91883928Y-104080952D01*
X91836309Y-104033333D01*
X91836309Y-104128571D01*
X90264880Y-104128571D02*
X90122023Y-104176190D01*
X90074404Y-104223809D01*
X90026785Y-104319047D01*
X90026785Y-104461904D01*
X90074404Y-104557142D01*
X90122023Y-104604761D01*
X90217261Y-104652380D01*
X90598214Y-104652380D01*
X90598214Y-103652380D01*
X90264880Y-103652380D01*
X90169642Y-103700000D01*
X90122023Y-103747619D01*
X90074404Y-103842857D01*
X90074404Y-103938095D01*
X90122023Y-104033333D01*
X90169642Y-104080952D01*
X90264880Y-104128571D01*
X90598214Y-104128571D01*
X89645833Y-104366666D02*
X89169642Y-104366666D01*
X89741071Y-104652380D02*
X89407738Y-103652380D01*
X89074404Y-104652380D01*
X88741071Y-104652380D02*
X88741071Y-103652380D01*
X88169642Y-104652380D01*
X88169642Y-103652380D01*
X87693452Y-104652380D02*
X87693452Y-103652380D01*
X87122023Y-104652380D02*
X87550595Y-104080952D01*
X87122023Y-103652380D02*
X87693452Y-104223809D01*
X85931547Y-104652380D02*
X85931547Y-103652380D01*
X85931547Y-104128571D02*
X85360119Y-104128571D01*
X85360119Y-104652380D02*
X85360119Y-103652380D01*
X84979166Y-103652380D02*
X84360119Y-103652380D01*
X84693452Y-104033333D01*
X84550595Y-104033333D01*
X84455357Y-104080952D01*
X84407738Y-104128571D01*
X84360119Y-104223809D01*
X84360119Y-104461904D01*
X84407738Y-104557142D01*
X84455357Y-104604761D01*
X84550595Y-104652380D01*
X84836309Y-104652380D01*
X84931547Y-104604761D01*
X84979166Y-104557142D01*
X83931547Y-104557142D02*
X83883928Y-104604761D01*
X83931547Y-104652380D01*
X83979166Y-104604761D01*
X83931547Y-104557142D01*
X83931547Y-104652380D01*
X83931547Y-104033333D02*
X83883928Y-104080952D01*
X83931547Y-104128571D01*
X83979166Y-104080952D01*
X83931547Y-104033333D01*
X83931547Y-104128571D01*
X82788690Y-103652380D02*
X82122023Y-103652380D01*
X82550595Y-104652380D01*
X81312500Y-103652380D02*
X81502976Y-103652380D01*
X81598214Y-103700000D01*
X81645833Y-103747619D01*
X81741071Y-103890476D01*
X81788690Y-104080952D01*
X81788690Y-104461904D01*
X81741071Y-104557142D01*
X81693452Y-104604761D01*
X81598214Y-104652380D01*
X81407738Y-104652380D01*
X81312500Y-104604761D01*
X81264880Y-104557142D01*
X81217261Y-104461904D01*
X81217261Y-104223809D01*
X81264880Y-104128571D01*
X81312500Y-104080952D01*
X81407738Y-104033333D01*
X81598214Y-104033333D01*
X81693452Y-104080952D01*
X81741071Y-104128571D01*
X81788690Y-104223809D01*
X80645833Y-104080952D02*
X80741071Y-104033333D01*
X80788690Y-103985714D01*
X80836309Y-103890476D01*
X80836309Y-103842857D01*
X80788690Y-103747619D01*
X80741071Y-103700000D01*
X80645833Y-103652380D01*
X80455357Y-103652380D01*
X80360119Y-103700000D01*
X80312500Y-103747619D01*
X80264880Y-103842857D01*
X80264880Y-103890476D01*
X80312500Y-103985714D01*
X80360119Y-104033333D01*
X80455357Y-104080952D01*
X80645833Y-104080952D01*
X80741071Y-104128571D01*
X80788690Y-104176190D01*
X80836309Y-104271428D01*
X80836309Y-104461904D01*
X80788690Y-104557142D01*
X80741071Y-104604761D01*
X80645833Y-104652380D01*
X80455357Y-104652380D01*
X80360119Y-104604761D01*
X80312500Y-104557142D01*
X80264880Y-104461904D01*
X80264880Y-104271428D01*
X80312500Y-104176190D01*
X80360119Y-104128571D01*
X80455357Y-104080952D01*
X79836309Y-104652380D02*
X79836309Y-103652380D01*
X79741071Y-104271428D02*
X79455357Y-104652380D01*
X79455357Y-103985714D02*
X79836309Y-104366666D01*
X79026785Y-104271428D02*
X78264880Y-104271428D01*
X77645833Y-104080952D02*
X77741071Y-104033333D01*
X77788690Y-103985714D01*
X77836309Y-103890476D01*
X77836309Y-103842857D01*
X77788690Y-103747619D01*
X77741071Y-103700000D01*
X77645833Y-103652380D01*
X77455357Y-103652380D01*
X77360119Y-103700000D01*
X77312500Y-103747619D01*
X77264880Y-103842857D01*
X77264880Y-103890476D01*
X77312500Y-103985714D01*
X77360119Y-104033333D01*
X77455357Y-104080952D01*
X77645833Y-104080952D01*
X77741071Y-104128571D01*
X77788690Y-104176190D01*
X77836309Y-104271428D01*
X77836309Y-104461904D01*
X77788690Y-104557142D01*
X77741071Y-104604761D01*
X77645833Y-104652380D01*
X77455357Y-104652380D01*
X77360119Y-104604761D01*
X77312500Y-104557142D01*
X77264880Y-104461904D01*
X77264880Y-104271428D01*
X77312500Y-104176190D01*
X77360119Y-104128571D01*
X77455357Y-104080952D01*
X76407738Y-103652380D02*
X76598214Y-103652380D01*
X76693452Y-103700000D01*
X76741071Y-103747619D01*
X76836309Y-103890476D01*
X76883928Y-104080952D01*
X76883928Y-104461904D01*
X76836309Y-104557142D01*
X76788690Y-104604761D01*
X76693452Y-104652380D01*
X76502976Y-104652380D01*
X76407738Y-104604761D01*
X76360119Y-104557142D01*
X76312500Y-104461904D01*
X76312500Y-104223809D01*
X76360119Y-104128571D01*
X76407738Y-104080952D01*
X76502976Y-104033333D01*
X76693452Y-104033333D01*
X76788690Y-104080952D01*
X76836309Y-104128571D01*
X76883928Y-104223809D01*
X75836309Y-104652380D02*
X75645833Y-104652380D01*
X75550595Y-104604761D01*
X75502976Y-104557142D01*
X75407738Y-104414285D01*
X75360119Y-104223809D01*
X75360119Y-103842857D01*
X75407738Y-103747619D01*
X75455357Y-103700000D01*
X75550595Y-103652380D01*
X75741071Y-103652380D01*
X75836309Y-103700000D01*
X75883928Y-103747619D01*
X75931547Y-103842857D01*
X75931547Y-104080952D01*
X75883928Y-104176190D01*
X75836309Y-104223809D01*
X75741071Y-104271428D01*
X75550595Y-104271428D01*
X75455357Y-104223809D01*
X75407738Y-104176190D01*
X75360119Y-104080952D01*
X74931547Y-104652380D02*
X74931547Y-103652380D01*
X74836309Y-104271428D02*
X74550595Y-104652380D01*
X74550595Y-103985714D02*
X74931547Y-104366666D01*
X105122023Y-106254761D02*
X104979166Y-106302380D01*
X104741071Y-106302380D01*
X104645833Y-106254761D01*
X104598214Y-106207142D01*
X104550595Y-106111904D01*
X104550595Y-106016666D01*
X104598214Y-105921428D01*
X104645833Y-105873809D01*
X104741071Y-105826190D01*
X104931547Y-105778571D01*
X105026785Y-105730952D01*
X105074404Y-105683333D01*
X105122023Y-105588095D01*
X105122023Y-105492857D01*
X105074404Y-105397619D01*
X105026785Y-105350000D01*
X104931547Y-105302380D01*
X104693452Y-105302380D01*
X104550595Y-105350000D01*
X104217261Y-105302380D02*
X103979166Y-106302380D01*
X103788690Y-105588095D01*
X103598214Y-106302380D01*
X103360119Y-105302380D01*
X102836309Y-105730952D02*
X102931547Y-105683333D01*
X102979166Y-105635714D01*
X103026785Y-105540476D01*
X103026785Y-105492857D01*
X102979166Y-105397619D01*
X102931547Y-105350000D01*
X102836309Y-105302380D01*
X102645833Y-105302380D01*
X102550595Y-105350000D01*
X102502976Y-105397619D01*
X102455357Y-105492857D01*
X102455357Y-105540476D01*
X102502976Y-105635714D01*
X102550595Y-105683333D01*
X102645833Y-105730952D01*
X102836309Y-105730952D01*
X102931547Y-105778571D01*
X102979166Y-105826190D01*
X103026785Y-105921428D01*
X103026785Y-106111904D01*
X102979166Y-106207142D01*
X102931547Y-106254761D01*
X102836309Y-106302380D01*
X102645833Y-106302380D01*
X102550595Y-106254761D01*
X102502976Y-106207142D01*
X102455357Y-106111904D01*
X102455357Y-105921428D01*
X102502976Y-105826190D01*
X102550595Y-105778571D01*
X102645833Y-105730952D01*
X101074404Y-105302380D02*
X100883928Y-105302380D01*
X100788690Y-105350000D01*
X100693452Y-105445238D01*
X100645833Y-105635714D01*
X100645833Y-105969047D01*
X100693452Y-106159523D01*
X100788690Y-106254761D01*
X100883928Y-106302380D01*
X101074404Y-106302380D01*
X101169642Y-106254761D01*
X101264880Y-106159523D01*
X101312500Y-105969047D01*
X101312500Y-105635714D01*
X101264880Y-105445238D01*
X101169642Y-105350000D01*
X101074404Y-105302380D01*
X100217261Y-105635714D02*
X100217261Y-106302380D01*
X100217261Y-105730952D02*
X100169642Y-105683333D01*
X100074404Y-105635714D01*
X99931547Y-105635714D01*
X99836309Y-105683333D01*
X99788690Y-105778571D01*
X99788690Y-106302380D01*
X99312500Y-106207142D02*
X99264880Y-106254761D01*
X99312500Y-106302380D01*
X99360119Y-106254761D01*
X99312500Y-106207142D01*
X99312500Y-106302380D01*
X99312500Y-105683333D02*
X99264880Y-105730952D01*
X99312500Y-105778571D01*
X99360119Y-105730952D01*
X99312500Y-105683333D01*
X99312500Y-105778571D01*
X98074404Y-106302380D02*
X98074404Y-105302380D01*
X97836309Y-105302380D01*
X97693452Y-105350000D01*
X97598214Y-105445238D01*
X97550595Y-105540476D01*
X97502976Y-105730952D01*
X97502976Y-105873809D01*
X97550595Y-106064285D01*
X97598214Y-106159523D01*
X97693452Y-106254761D01*
X97836309Y-106302380D01*
X98074404Y-106302380D01*
X97074404Y-106302380D02*
X97074404Y-105635714D01*
X97074404Y-105302380D02*
X97122023Y-105350000D01*
X97074404Y-105397619D01*
X97026785Y-105350000D01*
X97074404Y-105302380D01*
X97074404Y-105397619D01*
X96645833Y-106254761D02*
X96550595Y-106302380D01*
X96360119Y-106302380D01*
X96264880Y-106254761D01*
X96217261Y-106159523D01*
X96217261Y-106111904D01*
X96264880Y-106016666D01*
X96360119Y-105969047D01*
X96502976Y-105969047D01*
X96598214Y-105921428D01*
X96645833Y-105826190D01*
X96645833Y-105778571D01*
X96598214Y-105683333D01*
X96502976Y-105635714D01*
X96360119Y-105635714D01*
X96264880Y-105683333D01*
X95360119Y-106302380D02*
X95360119Y-105778571D01*
X95407738Y-105683333D01*
X95502976Y-105635714D01*
X95693452Y-105635714D01*
X95788690Y-105683333D01*
X95360119Y-106254761D02*
X95455357Y-106302380D01*
X95693452Y-106302380D01*
X95788690Y-106254761D01*
X95836309Y-106159523D01*
X95836309Y-106064285D01*
X95788690Y-105969047D01*
X95693452Y-105921428D01*
X95455357Y-105921428D01*
X95360119Y-105873809D01*
X94883928Y-106302380D02*
X94883928Y-105302380D01*
X94883928Y-105683333D02*
X94788690Y-105635714D01*
X94598214Y-105635714D01*
X94502976Y-105683333D01*
X94455357Y-105730952D01*
X94407738Y-105826190D01*
X94407738Y-106111904D01*
X94455357Y-106207142D01*
X94502976Y-106254761D01*
X94598214Y-106302380D01*
X94788690Y-106302380D01*
X94883928Y-106254761D01*
X93836309Y-106302380D02*
X93931547Y-106254761D01*
X93979166Y-106159523D01*
X93979166Y-105302380D01*
X93074404Y-106254761D02*
X93169642Y-106302380D01*
X93360119Y-106302380D01*
X93455357Y-106254761D01*
X93502976Y-106159523D01*
X93502976Y-105778571D01*
X93455357Y-105683333D01*
X93360119Y-105635714D01*
X93169642Y-105635714D01*
X93074404Y-105683333D01*
X93026785Y-105778571D01*
X93026785Y-105873809D01*
X93502976Y-105969047D01*
X91836309Y-106207142D02*
X91788690Y-106254761D01*
X91836309Y-106302380D01*
X91883928Y-106254761D01*
X91836309Y-106207142D01*
X91836309Y-106302380D01*
X91836309Y-105683333D02*
X91788690Y-105730952D01*
X91836309Y-105778571D01*
X91883928Y-105730952D01*
X91836309Y-105683333D01*
X91836309Y-105778571D01*
X90264880Y-105778571D02*
X90122023Y-105826190D01*
X90074404Y-105873809D01*
X90026785Y-105969047D01*
X90026785Y-106111904D01*
X90074404Y-106207142D01*
X90122023Y-106254761D01*
X90217261Y-106302380D01*
X90598214Y-106302380D01*
X90598214Y-105302380D01*
X90264880Y-105302380D01*
X90169642Y-105350000D01*
X90122023Y-105397619D01*
X90074404Y-105492857D01*
X90074404Y-105588095D01*
X90122023Y-105683333D01*
X90169642Y-105730952D01*
X90264880Y-105778571D01*
X90598214Y-105778571D01*
X89645833Y-106016666D02*
X89169642Y-106016666D01*
X89741071Y-106302380D02*
X89407738Y-105302380D01*
X89074404Y-106302380D01*
X88741071Y-106302380D02*
X88741071Y-105302380D01*
X88169642Y-106302380D01*
X88169642Y-105302380D01*
X87693452Y-106302380D02*
X87693452Y-105302380D01*
X87122023Y-106302380D02*
X87550595Y-105730952D01*
X87122023Y-105302380D02*
X87693452Y-105873809D01*
X85931547Y-106302380D02*
X85931547Y-105302380D01*
X85931547Y-105778571D02*
X85360119Y-105778571D01*
X85360119Y-106302380D02*
X85360119Y-105302380D01*
X84455357Y-105635714D02*
X84455357Y-106302380D01*
X84693452Y-105254761D02*
X84931547Y-105969047D01*
X84312500Y-105969047D01*
X83931547Y-106207142D02*
X83883928Y-106254761D01*
X83931547Y-106302380D01*
X83979166Y-106254761D01*
X83931547Y-106207142D01*
X83931547Y-106302380D01*
X83931547Y-105683333D02*
X83883928Y-105730952D01*
X83931547Y-105778571D01*
X83979166Y-105730952D01*
X83931547Y-105683333D01*
X83931547Y-105778571D01*
X82550595Y-105730952D02*
X82645833Y-105683333D01*
X82693452Y-105635714D01*
X82741071Y-105540476D01*
X82741071Y-105492857D01*
X82693452Y-105397619D01*
X82645833Y-105350000D01*
X82550595Y-105302380D01*
X82360119Y-105302380D01*
X82264880Y-105350000D01*
X82217261Y-105397619D01*
X82169642Y-105492857D01*
X82169642Y-105540476D01*
X82217261Y-105635714D01*
X82264880Y-105683333D01*
X82360119Y-105730952D01*
X82550595Y-105730952D01*
X82645833Y-105778571D01*
X82693452Y-105826190D01*
X82741071Y-105921428D01*
X82741071Y-106111904D01*
X82693452Y-106207142D01*
X82645833Y-106254761D01*
X82550595Y-106302380D01*
X82360119Y-106302380D01*
X82264880Y-106254761D01*
X82217261Y-106207142D01*
X82169642Y-106111904D01*
X82169642Y-105921428D01*
X82217261Y-105826190D01*
X82264880Y-105778571D01*
X82360119Y-105730952D01*
X81312500Y-105302380D02*
X81502976Y-105302380D01*
X81598214Y-105350000D01*
X81645833Y-105397619D01*
X81741071Y-105540476D01*
X81788690Y-105730952D01*
X81788690Y-106111904D01*
X81741071Y-106207142D01*
X81693452Y-106254761D01*
X81598214Y-106302380D01*
X81407738Y-106302380D01*
X81312500Y-106254761D01*
X81264880Y-106207142D01*
X81217261Y-106111904D01*
X81217261Y-105873809D01*
X81264880Y-105778571D01*
X81312500Y-105730952D01*
X81407738Y-105683333D01*
X81598214Y-105683333D01*
X81693452Y-105730952D01*
X81741071Y-105778571D01*
X81788690Y-105873809D01*
X80741071Y-106302380D02*
X80550595Y-106302380D01*
X80455357Y-106254761D01*
X80407738Y-106207142D01*
X80312500Y-106064285D01*
X80264880Y-105873809D01*
X80264880Y-105492857D01*
X80312500Y-105397619D01*
X80360119Y-105350000D01*
X80455357Y-105302380D01*
X80645833Y-105302380D01*
X80741071Y-105350000D01*
X80788690Y-105397619D01*
X80836309Y-105492857D01*
X80836309Y-105730952D01*
X80788690Y-105826190D01*
X80741071Y-105873809D01*
X80645833Y-105921428D01*
X80455357Y-105921428D01*
X80360119Y-105873809D01*
X80312500Y-105826190D01*
X80264880Y-105730952D01*
X79836309Y-106302380D02*
X79836309Y-105302380D01*
X79741071Y-105921428D02*
X79455357Y-106302380D01*
X79455357Y-105635714D02*
X79836309Y-106016666D01*
X79026785Y-105921428D02*
X78264880Y-105921428D01*
X77264880Y-106302380D02*
X77836309Y-106302380D01*
X77550595Y-106302380D02*
X77550595Y-105302380D01*
X77645833Y-105445238D01*
X77741071Y-105540476D01*
X77836309Y-105588095D01*
X76645833Y-105302380D02*
X76550595Y-105302380D01*
X76455357Y-105350000D01*
X76407738Y-105397619D01*
X76360119Y-105492857D01*
X76312500Y-105683333D01*
X76312500Y-105921428D01*
X76360119Y-106111904D01*
X76407738Y-106207142D01*
X76455357Y-106254761D01*
X76550595Y-106302380D01*
X76645833Y-106302380D01*
X76741071Y-106254761D01*
X76788690Y-106207142D01*
X76836309Y-106111904D01*
X76883928Y-105921428D01*
X76883928Y-105683333D01*
X76836309Y-105492857D01*
X76788690Y-105397619D01*
X76741071Y-105350000D01*
X76645833Y-105302380D01*
X75931547Y-105397619D02*
X75883928Y-105350000D01*
X75788690Y-105302380D01*
X75550595Y-105302380D01*
X75455357Y-105350000D01*
X75407738Y-105397619D01*
X75360119Y-105492857D01*
X75360119Y-105588095D01*
X75407738Y-105730952D01*
X75979166Y-106302380D01*
X75360119Y-106302380D01*
X74502976Y-105635714D02*
X74502976Y-106302380D01*
X74741071Y-105254761D02*
X74979166Y-105969047D01*
X74360119Y-105969047D01*
X73979166Y-106302380D02*
X73979166Y-105302380D01*
X73883928Y-105921428D02*
X73598214Y-106302380D01*
X73598214Y-105635714D02*
X73979166Y-106016666D01*
X72122023Y-106683333D02*
X72169642Y-106635714D01*
X72264880Y-106492857D01*
X72312500Y-106397619D01*
X72360119Y-106254761D01*
X72407738Y-106016666D01*
X72407738Y-105826190D01*
X72360119Y-105588095D01*
X72312500Y-105445238D01*
X72264880Y-105350000D01*
X72169642Y-105207142D01*
X72122023Y-105159523D01*
X71741071Y-106302380D02*
X71741071Y-105635714D01*
X71741071Y-105730952D02*
X71693452Y-105683333D01*
X71598214Y-105635714D01*
X71455357Y-105635714D01*
X71360119Y-105683333D01*
X71312500Y-105778571D01*
X71312500Y-106302380D01*
X71312500Y-105778571D02*
X71264880Y-105683333D01*
X71169642Y-105635714D01*
X71026785Y-105635714D01*
X70931547Y-105683333D01*
X70883928Y-105778571D01*
X70883928Y-106302380D01*
X69979166Y-105635714D02*
X69979166Y-106302380D01*
X70407738Y-105635714D02*
X70407738Y-106159523D01*
X70360119Y-106254761D01*
X70264880Y-106302380D01*
X70122023Y-106302380D01*
X70026785Y-106254761D01*
X69979166Y-106207142D01*
X69550595Y-106254761D02*
X69455357Y-106302380D01*
X69264880Y-106302380D01*
X69169642Y-106254761D01*
X69122023Y-106159523D01*
X69122023Y-106111904D01*
X69169642Y-106016666D01*
X69264880Y-105969047D01*
X69407738Y-105969047D01*
X69502976Y-105921428D01*
X69550595Y-105826190D01*
X69550595Y-105778571D01*
X69502976Y-105683333D01*
X69407738Y-105635714D01*
X69264880Y-105635714D01*
X69169642Y-105683333D01*
X68836309Y-105635714D02*
X68455357Y-105635714D01*
X68693452Y-105302380D02*
X68693452Y-106159523D01*
X68645833Y-106254761D01*
X68550595Y-106302380D01*
X68455357Y-106302380D01*
X67360119Y-105635714D02*
X67360119Y-106492857D01*
X67407738Y-106588095D01*
X67502976Y-106635714D01*
X67550595Y-106635714D01*
X67360119Y-105302380D02*
X67407738Y-105350000D01*
X67360119Y-105397619D01*
X67312500Y-105350000D01*
X67360119Y-105302380D01*
X67360119Y-105397619D01*
X66455357Y-105635714D02*
X66455357Y-106302380D01*
X66883928Y-105635714D02*
X66883928Y-106159523D01*
X66836309Y-106254761D01*
X66741071Y-106302380D01*
X66598214Y-106302380D01*
X66502976Y-106254761D01*
X66455357Y-106207142D01*
X65979166Y-106302380D02*
X65979166Y-105635714D01*
X65979166Y-105730952D02*
X65931547Y-105683333D01*
X65836309Y-105635714D01*
X65693452Y-105635714D01*
X65598214Y-105683333D01*
X65550595Y-105778571D01*
X65550595Y-106302380D01*
X65550595Y-105778571D02*
X65502976Y-105683333D01*
X65407738Y-105635714D01*
X65264880Y-105635714D01*
X65169642Y-105683333D01*
X65122023Y-105778571D01*
X65122023Y-106302380D01*
X64645833Y-105635714D02*
X64645833Y-106635714D01*
X64645833Y-105683333D02*
X64550595Y-105635714D01*
X64360119Y-105635714D01*
X64264880Y-105683333D01*
X64217261Y-105730952D01*
X64169642Y-105826190D01*
X64169642Y-106111904D01*
X64217261Y-106207142D01*
X64264880Y-106254761D01*
X64360119Y-106302380D01*
X64550595Y-106302380D01*
X64645833Y-106254761D01*
X63360119Y-106254761D02*
X63455357Y-106302380D01*
X63645833Y-106302380D01*
X63741071Y-106254761D01*
X63788690Y-106159523D01*
X63788690Y-105778571D01*
X63741071Y-105683333D01*
X63645833Y-105635714D01*
X63455357Y-105635714D01*
X63360119Y-105683333D01*
X63312500Y-105778571D01*
X63312500Y-105873809D01*
X63788690Y-105969047D01*
X62883928Y-106302380D02*
X62883928Y-105635714D01*
X62883928Y-105826190D02*
X62836309Y-105730952D01*
X62788690Y-105683333D01*
X62693452Y-105635714D01*
X62598214Y-105635714D01*
X61217261Y-105302380D02*
X61217261Y-106016666D01*
X61264880Y-106159523D01*
X61360119Y-106254761D01*
X61502976Y-106302380D01*
X61598214Y-106302380D01*
X60741071Y-106302380D02*
X60741071Y-105302380D01*
X60360119Y-105302380D01*
X60264880Y-105350000D01*
X60217261Y-105397619D01*
X60169642Y-105492857D01*
X60169642Y-105635714D01*
X60217261Y-105730952D01*
X60264880Y-105778571D01*
X60360119Y-105826190D01*
X60741071Y-105826190D01*
X59788690Y-105397619D02*
X59741071Y-105350000D01*
X59645833Y-105302380D01*
X59407738Y-105302380D01*
X59312500Y-105350000D01*
X59264880Y-105397619D01*
X59217261Y-105492857D01*
X59217261Y-105588095D01*
X59264880Y-105730952D01*
X59836309Y-106302380D01*
X59217261Y-106302380D01*
X58883928Y-106683333D02*
X58836309Y-106635714D01*
X58741071Y-106492857D01*
X58693452Y-106397619D01*
X58645833Y-106254761D01*
X58598214Y-106016666D01*
X58598214Y-105826190D01*
X58645833Y-105588095D01*
X58693452Y-105445238D01*
X58741071Y-105350000D01*
X58836309Y-105207142D01*
X58883928Y-105159523D01*
D12*
X70127142Y-123600714D02*
X71127142Y-123600714D01*
X71127142Y-125172142D02*
X71127142Y-122172142D01*
X69698571Y-122172142D01*
X66841428Y-125172142D02*
X67841428Y-123743571D01*
X68555714Y-125172142D02*
X68555714Y-122172142D01*
X67412857Y-122172142D01*
X67127142Y-122315000D01*
X66984285Y-122457857D01*
X66841428Y-122743571D01*
X66841428Y-123172142D01*
X66984285Y-123457857D01*
X67127142Y-123600714D01*
X67412857Y-123743571D01*
X68555714Y-123743571D01*
X64984285Y-122172142D02*
X64412857Y-122172142D01*
X64127142Y-122315000D01*
X63841428Y-122600714D01*
X63698571Y-123172142D01*
X63698571Y-124172142D01*
X63841428Y-124743571D01*
X64127142Y-125029285D01*
X64412857Y-125172142D01*
X64984285Y-125172142D01*
X65270000Y-125029285D01*
X65555714Y-124743571D01*
X65698571Y-124172142D01*
X65698571Y-123172142D01*
X65555714Y-122600714D01*
X65270000Y-122315000D01*
X64984285Y-122172142D01*
X62412857Y-125172142D02*
X62412857Y-122172142D01*
X60698571Y-125172142D01*
X60698571Y-122172142D01*
X59698571Y-122172142D02*
X57984285Y-122172142D01*
X58841428Y-125172142D02*
X58841428Y-122172142D01*
X71484285Y-129129285D02*
X69198571Y-129129285D01*
X67770000Y-129129285D02*
X65484285Y-129129285D01*
X64055714Y-129129285D02*
X61770000Y-129129285D01*
X60341428Y-128272142D02*
X58055714Y-129129285D01*
X60341428Y-129986428D01*
D10*
X152810595Y-117292380D02*
X153382023Y-117292380D01*
X153096309Y-117292380D02*
X153096309Y-116292380D01*
X153191547Y-116435238D01*
X153286785Y-116530476D01*
X153382023Y-116578095D01*
X74360595Y-118832380D02*
X74551071Y-118832380D01*
X74646309Y-118880000D01*
X74693928Y-118927619D01*
X74789166Y-119070476D01*
X74836785Y-119260952D01*
X74836785Y-119641904D01*
X74789166Y-119737142D01*
X74741547Y-119784761D01*
X74646309Y-119832380D01*
X74455833Y-119832380D01*
X74360595Y-119784761D01*
X74312976Y-119737142D01*
X74265357Y-119641904D01*
X74265357Y-119403809D01*
X74312976Y-119308571D01*
X74360595Y-119260952D01*
X74455833Y-119213333D01*
X74646309Y-119213333D01*
X74741547Y-119260952D01*
X74789166Y-119308571D01*
X74836785Y-119403809D01*
X73312976Y-119832380D02*
X73884404Y-119832380D01*
X73598690Y-119832380D02*
X73598690Y-118832380D01*
X73693928Y-118975238D01*
X73789166Y-119070476D01*
X73884404Y-119118095D01*
X74360595Y-121499380D02*
X74551071Y-121499380D01*
X74646309Y-121547000D01*
X74693928Y-121594619D01*
X74789166Y-121737476D01*
X74836785Y-121927952D01*
X74836785Y-122308904D01*
X74789166Y-122404142D01*
X74741547Y-122451761D01*
X74646309Y-122499380D01*
X74455833Y-122499380D01*
X74360595Y-122451761D01*
X74312976Y-122404142D01*
X74265357Y-122308904D01*
X74265357Y-122070809D01*
X74312976Y-121975571D01*
X74360595Y-121927952D01*
X74455833Y-121880333D01*
X74646309Y-121880333D01*
X74741547Y-121927952D01*
X74789166Y-121975571D01*
X74836785Y-122070809D01*
X73884404Y-121594619D02*
X73836785Y-121547000D01*
X73741547Y-121499380D01*
X73503452Y-121499380D01*
X73408214Y-121547000D01*
X73360595Y-121594619D01*
X73312976Y-121689857D01*
X73312976Y-121785095D01*
X73360595Y-121927952D01*
X73932023Y-122499380D01*
X73312976Y-122499380D01*
X145867380Y-123906595D02*
X144867380Y-123906595D01*
X145867380Y-124954214D02*
X145391190Y-124620880D01*
X145867380Y-124382785D02*
X144867380Y-124382785D01*
X144867380Y-124763738D01*
X144915000Y-124858976D01*
X144962619Y-124906595D01*
X145057857Y-124954214D01*
X145200714Y-124954214D01*
X145295952Y-124906595D01*
X145343571Y-124858976D01*
X145391190Y-124763738D01*
X145391190Y-124382785D01*
X145962619Y-126049452D02*
X145915000Y-125954214D01*
X145819761Y-125858976D01*
X145676904Y-125716119D01*
X145629285Y-125620880D01*
X145629285Y-125525642D01*
X145867380Y-125573261D02*
X145819761Y-125478023D01*
X145724523Y-125382785D01*
X145534047Y-125335166D01*
X145200714Y-125335166D01*
X145010238Y-125382785D01*
X144915000Y-125478023D01*
X144867380Y-125573261D01*
X144867380Y-125763738D01*
X144915000Y-125858976D01*
X145010238Y-125954214D01*
X145200714Y-126001833D01*
X145534047Y-126001833D01*
X145724523Y-125954214D01*
X145819761Y-125858976D01*
X145867380Y-125763738D01*
X145867380Y-125573261D01*
X144962619Y-126382785D02*
X144915000Y-126430404D01*
X144867380Y-126525642D01*
X144867380Y-126763738D01*
X144915000Y-126858976D01*
X144962619Y-126906595D01*
X145057857Y-126954214D01*
X145153095Y-126954214D01*
X145295952Y-126906595D01*
X145867380Y-126335166D01*
X145867380Y-126954214D01*
X150947380Y-124478023D02*
X150471190Y-124144690D01*
X150947380Y-123906595D02*
X149947380Y-123906595D01*
X149947380Y-124287547D01*
X149995000Y-124382785D01*
X150042619Y-124430404D01*
X150137857Y-124478023D01*
X150280714Y-124478023D01*
X150375952Y-124430404D01*
X150423571Y-124382785D01*
X150471190Y-124287547D01*
X150471190Y-123906595D01*
X150899761Y-125287547D02*
X150947380Y-125192309D01*
X150947380Y-125001833D01*
X150899761Y-124906595D01*
X150804523Y-124858976D01*
X150423571Y-124858976D01*
X150328333Y-124906595D01*
X150280714Y-125001833D01*
X150280714Y-125192309D01*
X150328333Y-125287547D01*
X150423571Y-125335166D01*
X150518809Y-125335166D01*
X150614047Y-124858976D01*
X150899761Y-125716119D02*
X150947380Y-125811357D01*
X150947380Y-126001833D01*
X150899761Y-126097071D01*
X150804523Y-126144690D01*
X150756904Y-126144690D01*
X150661666Y-126097071D01*
X150614047Y-126001833D01*
X150614047Y-125858976D01*
X150566428Y-125763738D01*
X150471190Y-125716119D01*
X150423571Y-125716119D01*
X150328333Y-125763738D01*
X150280714Y-125858976D01*
X150280714Y-126001833D01*
X150328333Y-126097071D01*
X150899761Y-126954214D02*
X150947380Y-126858976D01*
X150947380Y-126668500D01*
X150899761Y-126573261D01*
X150804523Y-126525642D01*
X150423571Y-126525642D01*
X150328333Y-126573261D01*
X150280714Y-126668500D01*
X150280714Y-126858976D01*
X150328333Y-126954214D01*
X150423571Y-127001833D01*
X150518809Y-127001833D01*
X150614047Y-126525642D01*
X150280714Y-127287547D02*
X150280714Y-127668500D01*
X149947380Y-127430404D02*
X150804523Y-127430404D01*
X150899761Y-127478023D01*
X150947380Y-127573261D01*
X150947380Y-127668500D01*
X140787380Y-123906595D02*
X139787380Y-123906595D01*
X139787380Y-124144690D01*
X139835000Y-124287547D01*
X139930238Y-124382785D01*
X140025476Y-124430404D01*
X140215952Y-124478023D01*
X140358809Y-124478023D01*
X140549285Y-124430404D01*
X140644523Y-124382785D01*
X140739761Y-124287547D01*
X140787380Y-124144690D01*
X140787380Y-123906595D01*
X140787380Y-125478023D02*
X140311190Y-125144690D01*
X140787380Y-124906595D02*
X139787380Y-124906595D01*
X139787380Y-125287547D01*
X139835000Y-125382785D01*
X139882619Y-125430404D01*
X139977857Y-125478023D01*
X140120714Y-125478023D01*
X140215952Y-125430404D01*
X140263571Y-125382785D01*
X140311190Y-125287547D01*
X140311190Y-124906595D01*
X140882619Y-126573261D02*
X140835000Y-126478023D01*
X140739761Y-126382785D01*
X140596904Y-126239928D01*
X140549285Y-126144690D01*
X140549285Y-126049452D01*
X140787380Y-126097071D02*
X140739761Y-126001833D01*
X140644523Y-125906595D01*
X140454047Y-125858976D01*
X140120714Y-125858976D01*
X139930238Y-125906595D01*
X139835000Y-126001833D01*
X139787380Y-126097071D01*
X139787380Y-126287547D01*
X139835000Y-126382785D01*
X139930238Y-126478023D01*
X140120714Y-126525642D01*
X140454047Y-126525642D01*
X140644523Y-126478023D01*
X140739761Y-126382785D01*
X140787380Y-126287547D01*
X140787380Y-126097071D01*
X139882619Y-126906595D02*
X139835000Y-126954214D01*
X139787380Y-127049452D01*
X139787380Y-127287547D01*
X139835000Y-127382785D01*
X139882619Y-127430404D01*
X139977857Y-127478023D01*
X140073095Y-127478023D01*
X140215952Y-127430404D01*
X140787380Y-126858976D01*
X140787380Y-127478023D01*
X152535000Y-124430404D02*
X152487380Y-124335166D01*
X152487380Y-124192309D01*
X152535000Y-124049452D01*
X152630238Y-123954214D01*
X152725476Y-123906595D01*
X152915952Y-123858976D01*
X153058809Y-123858976D01*
X153249285Y-123906595D01*
X153344523Y-123954214D01*
X153439761Y-124049452D01*
X153487380Y-124192309D01*
X153487380Y-124287547D01*
X153439761Y-124430404D01*
X153392142Y-124478023D01*
X153058809Y-124478023D01*
X153058809Y-124287547D01*
X153487380Y-124906595D02*
X152487380Y-124906595D01*
X153487380Y-125478023D01*
X152487380Y-125478023D01*
X153487380Y-125954214D02*
X152487380Y-125954214D01*
X152487380Y-126192309D01*
X152535000Y-126335166D01*
X152630238Y-126430404D01*
X152725476Y-126478023D01*
X152915952Y-126525642D01*
X153058809Y-126525642D01*
X153249285Y-126478023D01*
X153344523Y-126430404D01*
X153439761Y-126335166D01*
X153487380Y-126192309D01*
X153487380Y-125954214D01*
X148026428Y-123906595D02*
X148026428Y-124668500D01*
X148407380Y-124287547D02*
X147645476Y-124287547D01*
X147407380Y-125620880D02*
X147407380Y-125144690D01*
X147883571Y-125097071D01*
X147835952Y-125144690D01*
X147788333Y-125239928D01*
X147788333Y-125478023D01*
X147835952Y-125573261D01*
X147883571Y-125620880D01*
X147978809Y-125668500D01*
X148216904Y-125668500D01*
X148312142Y-125620880D01*
X148359761Y-125573261D01*
X148407380Y-125478023D01*
X148407380Y-125239928D01*
X148359761Y-125144690D01*
X148312142Y-125097071D01*
X147407380Y-125954214D02*
X148407380Y-126287547D01*
X147407380Y-126620880D01*
X142946428Y-123906595D02*
X142946428Y-124668500D01*
X142327380Y-125620880D02*
X142327380Y-125144690D01*
X142803571Y-125097071D01*
X142755952Y-125144690D01*
X142708333Y-125239928D01*
X142708333Y-125478023D01*
X142755952Y-125573261D01*
X142803571Y-125620880D01*
X142898809Y-125668500D01*
X143136904Y-125668500D01*
X143232142Y-125620880D01*
X143279761Y-125573261D01*
X143327380Y-125478023D01*
X143327380Y-125239928D01*
X143279761Y-125144690D01*
X143232142Y-125097071D01*
X142327380Y-125954214D02*
X143327380Y-126287547D01*
X142327380Y-126620880D01*
X100147380Y-123906595D02*
X99147380Y-123906595D01*
X100147380Y-124954214D02*
X99671190Y-124620880D01*
X100147380Y-124382785D02*
X99147380Y-124382785D01*
X99147380Y-124763738D01*
X99195000Y-124858976D01*
X99242619Y-124906595D01*
X99337857Y-124954214D01*
X99480714Y-124954214D01*
X99575952Y-124906595D01*
X99623571Y-124858976D01*
X99671190Y-124763738D01*
X99671190Y-124382785D01*
X100242619Y-126049452D02*
X100195000Y-125954214D01*
X100099761Y-125858976D01*
X99956904Y-125716119D01*
X99909285Y-125620880D01*
X99909285Y-125525642D01*
X100147380Y-125573261D02*
X100099761Y-125478023D01*
X100004523Y-125382785D01*
X99814047Y-125335166D01*
X99480714Y-125335166D01*
X99290238Y-125382785D01*
X99195000Y-125478023D01*
X99147380Y-125573261D01*
X99147380Y-125763738D01*
X99195000Y-125858976D01*
X99290238Y-125954214D01*
X99480714Y-126001833D01*
X99814047Y-126001833D01*
X100004523Y-125954214D01*
X100099761Y-125858976D01*
X100147380Y-125763738D01*
X100147380Y-125573261D01*
X99147380Y-126858976D02*
X99147380Y-126668500D01*
X99195000Y-126573261D01*
X99242619Y-126525642D01*
X99385476Y-126430404D01*
X99575952Y-126382785D01*
X99956904Y-126382785D01*
X100052142Y-126430404D01*
X100099761Y-126478023D01*
X100147380Y-126573261D01*
X100147380Y-126763738D01*
X100099761Y-126858976D01*
X100052142Y-126906595D01*
X99956904Y-126954214D01*
X99718809Y-126954214D01*
X99623571Y-126906595D01*
X99575952Y-126858976D01*
X99528333Y-126763738D01*
X99528333Y-126573261D01*
X99575952Y-126478023D01*
X99623571Y-126430404D01*
X99718809Y-126382785D01*
X102687380Y-123906595D02*
X101687380Y-123906595D01*
X102687380Y-124954214D02*
X102211190Y-124620880D01*
X102687380Y-124382785D02*
X101687380Y-124382785D01*
X101687380Y-124763738D01*
X101735000Y-124858976D01*
X101782619Y-124906595D01*
X101877857Y-124954214D01*
X102020714Y-124954214D01*
X102115952Y-124906595D01*
X102163571Y-124858976D01*
X102211190Y-124763738D01*
X102211190Y-124382785D01*
X102782619Y-126049452D02*
X102735000Y-125954214D01*
X102639761Y-125858976D01*
X102496904Y-125716119D01*
X102449285Y-125620880D01*
X102449285Y-125525642D01*
X102687380Y-125573261D02*
X102639761Y-125478023D01*
X102544523Y-125382785D01*
X102354047Y-125335166D01*
X102020714Y-125335166D01*
X101830238Y-125382785D01*
X101735000Y-125478023D01*
X101687380Y-125573261D01*
X101687380Y-125763738D01*
X101735000Y-125858976D01*
X101830238Y-125954214D01*
X102020714Y-126001833D01*
X102354047Y-126001833D01*
X102544523Y-125954214D01*
X102639761Y-125858976D01*
X102687380Y-125763738D01*
X102687380Y-125573261D01*
X101687380Y-126335166D02*
X101687380Y-127001833D01*
X102687380Y-126573261D01*
X105132142Y-124478023D02*
X105179761Y-124430404D01*
X105227380Y-124287547D01*
X105227380Y-124192309D01*
X105179761Y-124049452D01*
X105084523Y-123954214D01*
X104989285Y-123906595D01*
X104798809Y-123858976D01*
X104655952Y-123858976D01*
X104465476Y-123906595D01*
X104370238Y-123954214D01*
X104275000Y-124049452D01*
X104227380Y-124192309D01*
X104227380Y-124287547D01*
X104275000Y-124430404D01*
X104322619Y-124478023D01*
X105227380Y-125382785D02*
X105227380Y-124906595D01*
X104227380Y-124906595D01*
X105227380Y-125716119D02*
X104227380Y-125716119D01*
X105227380Y-126287547D02*
X104655952Y-125858976D01*
X104227380Y-126287547D02*
X104798809Y-125716119D01*
X111480000Y-123668500D02*
X111480000Y-124668500D01*
X112847380Y-123906595D02*
X111847380Y-123906595D01*
X111847380Y-124144690D01*
X111895000Y-124287547D01*
X111990238Y-124382785D01*
X112085476Y-124430404D01*
X112275952Y-124478023D01*
X112418809Y-124478023D01*
X112609285Y-124430404D01*
X112704523Y-124382785D01*
X112799761Y-124287547D01*
X112847380Y-124144690D01*
X112847380Y-123906595D01*
X111480000Y-124668500D02*
X111480000Y-125525642D01*
X112561666Y-124858976D02*
X112561666Y-125335166D01*
X112847380Y-124763738D02*
X111847380Y-125097071D01*
X112847380Y-125430404D01*
X111480000Y-125525642D02*
X111480000Y-126525642D01*
X112752142Y-126335166D02*
X112799761Y-126287547D01*
X112847380Y-126144690D01*
X112847380Y-126049452D01*
X112799761Y-125906595D01*
X112704523Y-125811357D01*
X112609285Y-125763738D01*
X112418809Y-125716119D01*
X112275952Y-125716119D01*
X112085476Y-125763738D01*
X111990238Y-125811357D01*
X111895000Y-125906595D01*
X111847380Y-126049452D01*
X111847380Y-126144690D01*
X111895000Y-126287547D01*
X111942619Y-126335166D01*
X111480000Y-126525642D02*
X111480000Y-127525642D01*
X112847380Y-126763738D02*
X111847380Y-126763738D01*
X112847380Y-127335166D02*
X112275952Y-126906595D01*
X111847380Y-127335166D02*
X112418809Y-126763738D01*
X111480000Y-127525642D02*
X111480000Y-128478023D01*
X112847380Y-128287547D02*
X112847380Y-127716119D01*
X112847380Y-128001833D02*
X111847380Y-128001833D01*
X111990238Y-127906595D01*
X112085476Y-127811357D01*
X112133095Y-127716119D01*
X119100000Y-123668500D02*
X119100000Y-124144690D01*
X120467380Y-123906595D02*
X119467380Y-123906595D01*
X119100000Y-124144690D02*
X119100000Y-125192309D01*
X119467380Y-124573261D02*
X119467380Y-124763738D01*
X119515000Y-124858976D01*
X119610238Y-124954214D01*
X119800714Y-125001833D01*
X120134047Y-125001833D01*
X120324523Y-124954214D01*
X120419761Y-124858976D01*
X120467380Y-124763738D01*
X120467380Y-124573261D01*
X120419761Y-124478023D01*
X120324523Y-124382785D01*
X120134047Y-124335166D01*
X119800714Y-124335166D01*
X119610238Y-124382785D01*
X119515000Y-124478023D01*
X119467380Y-124573261D01*
X119100000Y-125192309D02*
X119100000Y-126192309D01*
X120467380Y-126001833D02*
X119991190Y-125668500D01*
X120467380Y-125430404D02*
X119467380Y-125430404D01*
X119467380Y-125811357D01*
X119515000Y-125906595D01*
X119562619Y-125954214D01*
X119657857Y-126001833D01*
X119800714Y-126001833D01*
X119895952Y-125954214D01*
X119943571Y-125906595D01*
X119991190Y-125811357D01*
X119991190Y-125430404D01*
X106400000Y-123668500D02*
X106400000Y-124668500D01*
X107767380Y-123906595D02*
X106767380Y-123906595D01*
X106767380Y-124144690D01*
X106815000Y-124287547D01*
X106910238Y-124382785D01*
X107005476Y-124430404D01*
X107195952Y-124478023D01*
X107338809Y-124478023D01*
X107529285Y-124430404D01*
X107624523Y-124382785D01*
X107719761Y-124287547D01*
X107767380Y-124144690D01*
X107767380Y-123906595D01*
X106400000Y-124668500D02*
X106400000Y-125525642D01*
X107481666Y-124858976D02*
X107481666Y-125335166D01*
X107767380Y-124763738D02*
X106767380Y-125097071D01*
X107767380Y-125430404D01*
X106400000Y-125525642D02*
X106400000Y-126525642D01*
X107672142Y-126335166D02*
X107719761Y-126287547D01*
X107767380Y-126144690D01*
X107767380Y-126049452D01*
X107719761Y-125906595D01*
X107624523Y-125811357D01*
X107529285Y-125763738D01*
X107338809Y-125716119D01*
X107195952Y-125716119D01*
X107005476Y-125763738D01*
X106910238Y-125811357D01*
X106815000Y-125906595D01*
X106767380Y-126049452D01*
X106767380Y-126144690D01*
X106815000Y-126287547D01*
X106862619Y-126335166D01*
X106400000Y-126525642D02*
X106400000Y-127525642D01*
X107767380Y-126763738D02*
X106767380Y-126763738D01*
X107767380Y-127335166D02*
X107195952Y-126906595D01*
X106767380Y-127335166D02*
X107338809Y-126763738D01*
X106400000Y-127525642D02*
X106400000Y-128478023D01*
X106767380Y-127954214D02*
X106767380Y-128049452D01*
X106815000Y-128144690D01*
X106862619Y-128192309D01*
X106957857Y-128239928D01*
X107148333Y-128287547D01*
X107386428Y-128287547D01*
X107576904Y-128239928D01*
X107672142Y-128192309D01*
X107719761Y-128144690D01*
X107767380Y-128049452D01*
X107767380Y-127954214D01*
X107719761Y-127858976D01*
X107672142Y-127811357D01*
X107576904Y-127763738D01*
X107386428Y-127716119D01*
X107148333Y-127716119D01*
X106957857Y-127763738D01*
X106862619Y-127811357D01*
X106815000Y-127858976D01*
X106767380Y-127954214D01*
X137866428Y-123906595D02*
X137866428Y-124668500D01*
X138247380Y-125668500D02*
X138247380Y-125097071D01*
X138247380Y-125382785D02*
X137247380Y-125382785D01*
X137390238Y-125287547D01*
X137485476Y-125192309D01*
X137533095Y-125097071D01*
X137342619Y-126049452D02*
X137295000Y-126097071D01*
X137247380Y-126192309D01*
X137247380Y-126430404D01*
X137295000Y-126525642D01*
X137342619Y-126573261D01*
X137437857Y-126620880D01*
X137533095Y-126620880D01*
X137675952Y-126573261D01*
X138247380Y-126001833D01*
X138247380Y-126620880D01*
X137247380Y-126906595D02*
X138247380Y-127239928D01*
X137247380Y-127573261D01*
X124180000Y-123668500D02*
X124180000Y-124811357D01*
X125547380Y-123906595D02*
X124547380Y-123906595D01*
X125261666Y-124239928D01*
X124547380Y-124573261D01*
X125547380Y-124573261D01*
X124180000Y-124811357D02*
X124180000Y-125716119D01*
X125023571Y-125049452D02*
X125023571Y-125382785D01*
X125547380Y-125525642D02*
X125547380Y-125049452D01*
X124547380Y-125049452D01*
X124547380Y-125525642D01*
X124180000Y-125716119D02*
X124180000Y-126858976D01*
X125547380Y-125954214D02*
X124547380Y-125954214D01*
X125261666Y-126287547D01*
X124547380Y-126620880D01*
X125547380Y-126620880D01*
X124180000Y-126858976D02*
X124180000Y-127858976D01*
X125547380Y-127668500D02*
X125071190Y-127335166D01*
X125547380Y-127097071D02*
X124547380Y-127097071D01*
X124547380Y-127478023D01*
X124595000Y-127573261D01*
X124642619Y-127620880D01*
X124737857Y-127668500D01*
X124880714Y-127668500D01*
X124975952Y-127620880D01*
X125023571Y-127573261D01*
X125071190Y-127478023D01*
X125071190Y-127097071D01*
X116560000Y-123668500D02*
X116560000Y-124668500D01*
X117927380Y-123906595D02*
X116927380Y-123906595D01*
X116927380Y-124144690D01*
X116975000Y-124287547D01*
X117070238Y-124382785D01*
X117165476Y-124430404D01*
X117355952Y-124478023D01*
X117498809Y-124478023D01*
X117689285Y-124430404D01*
X117784523Y-124382785D01*
X117879761Y-124287547D01*
X117927380Y-124144690D01*
X117927380Y-123906595D01*
X116560000Y-124668500D02*
X116560000Y-125525642D01*
X117641666Y-124858976D02*
X117641666Y-125335166D01*
X117927380Y-124763738D02*
X116927380Y-125097071D01*
X117927380Y-125430404D01*
X116560000Y-125525642D02*
X116560000Y-126525642D01*
X117832142Y-126335166D02*
X117879761Y-126287547D01*
X117927380Y-126144690D01*
X117927380Y-126049452D01*
X117879761Y-125906595D01*
X117784523Y-125811357D01*
X117689285Y-125763738D01*
X117498809Y-125716119D01*
X117355952Y-125716119D01*
X117165476Y-125763738D01*
X117070238Y-125811357D01*
X116975000Y-125906595D01*
X116927380Y-126049452D01*
X116927380Y-126144690D01*
X116975000Y-126287547D01*
X117022619Y-126335166D01*
X116560000Y-126525642D02*
X116560000Y-127525642D01*
X117927380Y-126763738D02*
X116927380Y-126763738D01*
X117927380Y-127335166D02*
X117355952Y-126906595D01*
X116927380Y-127335166D02*
X117498809Y-126763738D01*
X116560000Y-127525642D02*
X116560000Y-128478023D01*
X116927380Y-127668500D02*
X116927380Y-128287547D01*
X117308333Y-127954214D01*
X117308333Y-128097071D01*
X117355952Y-128192309D01*
X117403571Y-128239928D01*
X117498809Y-128287547D01*
X117736904Y-128287547D01*
X117832142Y-128239928D01*
X117879761Y-128192309D01*
X117927380Y-128097071D01*
X117927380Y-127811357D01*
X117879761Y-127716119D01*
X117832142Y-127668500D01*
X110307380Y-123906595D02*
X109307380Y-123906595D01*
X109307380Y-124144690D01*
X109355000Y-124287547D01*
X109450238Y-124382785D01*
X109545476Y-124430404D01*
X109735952Y-124478023D01*
X109878809Y-124478023D01*
X110069285Y-124430404D01*
X110164523Y-124382785D01*
X110259761Y-124287547D01*
X110307380Y-124144690D01*
X110307380Y-123906595D01*
X110307380Y-125478023D02*
X109831190Y-125144690D01*
X110307380Y-124906595D02*
X109307380Y-124906595D01*
X109307380Y-125287547D01*
X109355000Y-125382785D01*
X109402619Y-125430404D01*
X109497857Y-125478023D01*
X109640714Y-125478023D01*
X109735952Y-125430404D01*
X109783571Y-125382785D01*
X109831190Y-125287547D01*
X109831190Y-124906595D01*
X110402619Y-126573261D02*
X110355000Y-126478023D01*
X110259761Y-126382785D01*
X110116904Y-126239928D01*
X110069285Y-126144690D01*
X110069285Y-126049452D01*
X110307380Y-126097071D02*
X110259761Y-126001833D01*
X110164523Y-125906595D01*
X109974047Y-125858976D01*
X109640714Y-125858976D01*
X109450238Y-125906595D01*
X109355000Y-126001833D01*
X109307380Y-126097071D01*
X109307380Y-126287547D01*
X109355000Y-126382785D01*
X109450238Y-126478023D01*
X109640714Y-126525642D01*
X109974047Y-126525642D01*
X110164523Y-126478023D01*
X110259761Y-126382785D01*
X110307380Y-126287547D01*
X110307380Y-126097071D01*
X110307380Y-127478023D02*
X110307380Y-126906595D01*
X110307380Y-127192309D02*
X109307380Y-127192309D01*
X109450238Y-127097071D01*
X109545476Y-127001833D01*
X109593095Y-126906595D01*
X135612142Y-124478023D02*
X135659761Y-124430404D01*
X135707380Y-124287547D01*
X135707380Y-124192309D01*
X135659761Y-124049452D01*
X135564523Y-123954214D01*
X135469285Y-123906595D01*
X135278809Y-123858976D01*
X135135952Y-123858976D01*
X134945476Y-123906595D01*
X134850238Y-123954214D01*
X134755000Y-124049452D01*
X134707380Y-124192309D01*
X134707380Y-124287547D01*
X134755000Y-124430404D01*
X134802619Y-124478023D01*
X135421666Y-124858976D02*
X135421666Y-125335166D01*
X135707380Y-124763738D02*
X134707380Y-125097071D01*
X135707380Y-125430404D01*
X135707380Y-126335166D02*
X135231190Y-126001833D01*
X135707380Y-125763738D02*
X134707380Y-125763738D01*
X134707380Y-126144690D01*
X134755000Y-126239928D01*
X134802619Y-126287547D01*
X134897857Y-126335166D01*
X135040714Y-126335166D01*
X135135952Y-126287547D01*
X135183571Y-126239928D01*
X135231190Y-126144690D01*
X135231190Y-125763738D01*
X135707380Y-126763738D02*
X134707380Y-126763738D01*
X134707380Y-127001833D01*
X134755000Y-127144690D01*
X134850238Y-127239928D01*
X134945476Y-127287547D01*
X135135952Y-127335166D01*
X135278809Y-127335166D01*
X135469285Y-127287547D01*
X135564523Y-127239928D01*
X135659761Y-127144690D01*
X135707380Y-127001833D01*
X135707380Y-126763738D01*
X135659761Y-127716119D02*
X135707380Y-127858976D01*
X135707380Y-128097071D01*
X135659761Y-128192309D01*
X135612142Y-128239928D01*
X135516904Y-128287547D01*
X135421666Y-128287547D01*
X135326428Y-128239928D01*
X135278809Y-128192309D01*
X135231190Y-128097071D01*
X135183571Y-127906595D01*
X135135952Y-127811357D01*
X135088333Y-127763738D01*
X134993095Y-127716119D01*
X134897857Y-127716119D01*
X134802619Y-127763738D01*
X134755000Y-127811357D01*
X134707380Y-127906595D01*
X134707380Y-128144690D01*
X134755000Y-128287547D01*
X135183571Y-128716119D02*
X135183571Y-129049452D01*
X135707380Y-129192309D02*
X135707380Y-128716119D01*
X134707380Y-128716119D01*
X134707380Y-129192309D01*
X135707380Y-130097071D02*
X135707380Y-129620880D01*
X134707380Y-129620880D01*
X88620000Y-123668500D02*
X88620000Y-124668500D01*
X89987380Y-123906595D02*
X88987380Y-123906595D01*
X88987380Y-124144690D01*
X89035000Y-124287547D01*
X89130238Y-124382785D01*
X89225476Y-124430404D01*
X89415952Y-124478023D01*
X89558809Y-124478023D01*
X89749285Y-124430404D01*
X89844523Y-124382785D01*
X89939761Y-124287547D01*
X89987380Y-124144690D01*
X89987380Y-123906595D01*
X88620000Y-124668500D02*
X88620000Y-125525642D01*
X89701666Y-124858976D02*
X89701666Y-125335166D01*
X89987380Y-124763738D02*
X88987380Y-125097071D01*
X89987380Y-125430404D01*
X88620000Y-125525642D02*
X88620000Y-126525642D01*
X89892142Y-126335166D02*
X89939761Y-126287547D01*
X89987380Y-126144690D01*
X89987380Y-126049452D01*
X89939761Y-125906595D01*
X89844523Y-125811357D01*
X89749285Y-125763738D01*
X89558809Y-125716119D01*
X89415952Y-125716119D01*
X89225476Y-125763738D01*
X89130238Y-125811357D01*
X89035000Y-125906595D01*
X88987380Y-126049452D01*
X88987380Y-126144690D01*
X89035000Y-126287547D01*
X89082619Y-126335166D01*
X88620000Y-126525642D02*
X88620000Y-127525642D01*
X89987380Y-126763738D02*
X88987380Y-126763738D01*
X89987380Y-127335166D02*
X89415952Y-126906595D01*
X88987380Y-127335166D02*
X89558809Y-126763738D01*
X88620000Y-127525642D02*
X88620000Y-128478023D01*
X89082619Y-127716119D02*
X89035000Y-127763738D01*
X88987380Y-127858976D01*
X88987380Y-128097071D01*
X89035000Y-128192309D01*
X89082619Y-128239928D01*
X89177857Y-128287547D01*
X89273095Y-128287547D01*
X89415952Y-128239928D01*
X89987380Y-127668500D01*
X89987380Y-128287547D01*
X126720000Y-123668500D02*
X126720000Y-124811357D01*
X128087380Y-123906595D02*
X127087380Y-123906595D01*
X127801666Y-124239928D01*
X127087380Y-124573261D01*
X128087380Y-124573261D01*
X126720000Y-124811357D02*
X126720000Y-125716119D01*
X127563571Y-125049452D02*
X127563571Y-125382785D01*
X128087380Y-125525642D02*
X128087380Y-125049452D01*
X127087380Y-125049452D01*
X127087380Y-125525642D01*
X126720000Y-125716119D02*
X126720000Y-126858976D01*
X128087380Y-125954214D02*
X127087380Y-125954214D01*
X127801666Y-126287547D01*
X127087380Y-126620880D01*
X128087380Y-126620880D01*
X126720000Y-126858976D02*
X126720000Y-128001833D01*
X127087380Y-127001833D02*
X128087380Y-127239928D01*
X127373095Y-127430404D01*
X128087380Y-127620880D01*
X127087380Y-127858976D01*
X97607380Y-123906595D02*
X96607380Y-123906595D01*
X97607380Y-124954214D02*
X97131190Y-124620880D01*
X97607380Y-124382785D02*
X96607380Y-124382785D01*
X96607380Y-124763738D01*
X96655000Y-124858976D01*
X96702619Y-124906595D01*
X96797857Y-124954214D01*
X96940714Y-124954214D01*
X97035952Y-124906595D01*
X97083571Y-124858976D01*
X97131190Y-124763738D01*
X97131190Y-124382785D01*
X97702619Y-126049452D02*
X97655000Y-125954214D01*
X97559761Y-125858976D01*
X97416904Y-125716119D01*
X97369285Y-125620880D01*
X97369285Y-125525642D01*
X97607380Y-125573261D02*
X97559761Y-125478023D01*
X97464523Y-125382785D01*
X97274047Y-125335166D01*
X96940714Y-125335166D01*
X96750238Y-125382785D01*
X96655000Y-125478023D01*
X96607380Y-125573261D01*
X96607380Y-125763738D01*
X96655000Y-125858976D01*
X96750238Y-125954214D01*
X96940714Y-126001833D01*
X97274047Y-126001833D01*
X97464523Y-125954214D01*
X97559761Y-125858976D01*
X97607380Y-125763738D01*
X97607380Y-125573261D01*
X96607380Y-126906595D02*
X96607380Y-126430404D01*
X97083571Y-126382785D01*
X97035952Y-126430404D01*
X96988333Y-126525642D01*
X96988333Y-126763738D01*
X97035952Y-126858976D01*
X97083571Y-126906595D01*
X97178809Y-126954214D01*
X97416904Y-126954214D01*
X97512142Y-126906595D01*
X97559761Y-126858976D01*
X97607380Y-126763738D01*
X97607380Y-126525642D01*
X97559761Y-126430404D01*
X97512142Y-126382785D01*
X81986428Y-123906595D02*
X81986428Y-124668500D01*
X82367380Y-124287547D02*
X81605476Y-124287547D01*
X81367380Y-125620880D02*
X81367380Y-125144690D01*
X81843571Y-125097071D01*
X81795952Y-125144690D01*
X81748333Y-125239928D01*
X81748333Y-125478023D01*
X81795952Y-125573261D01*
X81843571Y-125620880D01*
X81938809Y-125668500D01*
X82176904Y-125668500D01*
X82272142Y-125620880D01*
X82319761Y-125573261D01*
X82367380Y-125478023D01*
X82367380Y-125239928D01*
X82319761Y-125144690D01*
X82272142Y-125097071D01*
X81367380Y-125954214D02*
X82367380Y-126287547D01*
X81367380Y-126620880D01*
X92527380Y-123906595D02*
X91527380Y-123906595D01*
X92527380Y-124954214D02*
X92051190Y-124620880D01*
X92527380Y-124382785D02*
X91527380Y-124382785D01*
X91527380Y-124763738D01*
X91575000Y-124858976D01*
X91622619Y-124906595D01*
X91717857Y-124954214D01*
X91860714Y-124954214D01*
X91955952Y-124906595D01*
X92003571Y-124858976D01*
X92051190Y-124763738D01*
X92051190Y-124382785D01*
X92622619Y-126049452D02*
X92575000Y-125954214D01*
X92479761Y-125858976D01*
X92336904Y-125716119D01*
X92289285Y-125620880D01*
X92289285Y-125525642D01*
X92527380Y-125573261D02*
X92479761Y-125478023D01*
X92384523Y-125382785D01*
X92194047Y-125335166D01*
X91860714Y-125335166D01*
X91670238Y-125382785D01*
X91575000Y-125478023D01*
X91527380Y-125573261D01*
X91527380Y-125763738D01*
X91575000Y-125858976D01*
X91670238Y-125954214D01*
X91860714Y-126001833D01*
X92194047Y-126001833D01*
X92384523Y-125954214D01*
X92479761Y-125858976D01*
X92527380Y-125763738D01*
X92527380Y-125573261D01*
X91527380Y-126335166D02*
X91527380Y-126954214D01*
X91908333Y-126620880D01*
X91908333Y-126763738D01*
X91955952Y-126858976D01*
X92003571Y-126906595D01*
X92098809Y-126954214D01*
X92336904Y-126954214D01*
X92432142Y-126906595D01*
X92479761Y-126858976D01*
X92527380Y-126763738D01*
X92527380Y-126478023D01*
X92479761Y-126382785D01*
X92432142Y-126335166D01*
X95067380Y-123906595D02*
X94067380Y-123906595D01*
X95067380Y-124954214D02*
X94591190Y-124620880D01*
X95067380Y-124382785D02*
X94067380Y-124382785D01*
X94067380Y-124763738D01*
X94115000Y-124858976D01*
X94162619Y-124906595D01*
X94257857Y-124954214D01*
X94400714Y-124954214D01*
X94495952Y-124906595D01*
X94543571Y-124858976D01*
X94591190Y-124763738D01*
X94591190Y-124382785D01*
X95162619Y-126049452D02*
X95115000Y-125954214D01*
X95019761Y-125858976D01*
X94876904Y-125716119D01*
X94829285Y-125620880D01*
X94829285Y-125525642D01*
X95067380Y-125573261D02*
X95019761Y-125478023D01*
X94924523Y-125382785D01*
X94734047Y-125335166D01*
X94400714Y-125335166D01*
X94210238Y-125382785D01*
X94115000Y-125478023D01*
X94067380Y-125573261D01*
X94067380Y-125763738D01*
X94115000Y-125858976D01*
X94210238Y-125954214D01*
X94400714Y-126001833D01*
X94734047Y-126001833D01*
X94924523Y-125954214D01*
X95019761Y-125858976D01*
X95067380Y-125763738D01*
X95067380Y-125573261D01*
X94400714Y-126858976D02*
X95067380Y-126858976D01*
X94019761Y-126620880D02*
X94734047Y-126382785D01*
X94734047Y-127001833D01*
X115387380Y-123906595D02*
X114387380Y-123906595D01*
X114387380Y-124144690D01*
X114435000Y-124287547D01*
X114530238Y-124382785D01*
X114625476Y-124430404D01*
X114815952Y-124478023D01*
X114958809Y-124478023D01*
X115149285Y-124430404D01*
X115244523Y-124382785D01*
X115339761Y-124287547D01*
X115387380Y-124144690D01*
X115387380Y-123906595D01*
X115387380Y-125478023D02*
X114911190Y-125144690D01*
X115387380Y-124906595D02*
X114387380Y-124906595D01*
X114387380Y-125287547D01*
X114435000Y-125382785D01*
X114482619Y-125430404D01*
X114577857Y-125478023D01*
X114720714Y-125478023D01*
X114815952Y-125430404D01*
X114863571Y-125382785D01*
X114911190Y-125287547D01*
X114911190Y-124906595D01*
X115482619Y-126573261D02*
X115435000Y-126478023D01*
X115339761Y-126382785D01*
X115196904Y-126239928D01*
X115149285Y-126144690D01*
X115149285Y-126049452D01*
X115387380Y-126097071D02*
X115339761Y-126001833D01*
X115244523Y-125906595D01*
X115054047Y-125858976D01*
X114720714Y-125858976D01*
X114530238Y-125906595D01*
X114435000Y-126001833D01*
X114387380Y-126097071D01*
X114387380Y-126287547D01*
X114435000Y-126382785D01*
X114530238Y-126478023D01*
X114720714Y-126525642D01*
X115054047Y-126525642D01*
X115244523Y-126478023D01*
X115339761Y-126382785D01*
X115387380Y-126287547D01*
X115387380Y-126097071D01*
X114387380Y-126858976D02*
X114387380Y-127478023D01*
X114768333Y-127144690D01*
X114768333Y-127287547D01*
X114815952Y-127382785D01*
X114863571Y-127430404D01*
X114958809Y-127478023D01*
X115196904Y-127478023D01*
X115292142Y-127430404D01*
X115339761Y-127382785D01*
X115387380Y-127287547D01*
X115387380Y-127001833D01*
X115339761Y-126906595D01*
X115292142Y-126858976D01*
X132786428Y-123906595D02*
X132786428Y-124668500D01*
X133167380Y-124287547D02*
X132405476Y-124287547D01*
X133167380Y-125668500D02*
X133167380Y-125097071D01*
X133167380Y-125382785D02*
X132167380Y-125382785D01*
X132310238Y-125287547D01*
X132405476Y-125192309D01*
X132453095Y-125097071D01*
X132262619Y-126049452D02*
X132215000Y-126097071D01*
X132167380Y-126192309D01*
X132167380Y-126430404D01*
X132215000Y-126525642D01*
X132262619Y-126573261D01*
X132357857Y-126620880D01*
X132453095Y-126620880D01*
X132595952Y-126573261D01*
X133167380Y-126001833D01*
X133167380Y-126620880D01*
X132167380Y-126906595D02*
X133167380Y-127239928D01*
X132167380Y-127573261D01*
X121640000Y-123668500D02*
X121640000Y-124144690D01*
X123007380Y-123906595D02*
X122007380Y-123906595D01*
X121640000Y-124144690D02*
X121640000Y-125192309D01*
X122007380Y-124573261D02*
X122007380Y-124763738D01*
X122055000Y-124858976D01*
X122150238Y-124954214D01*
X122340714Y-125001833D01*
X122674047Y-125001833D01*
X122864523Y-124954214D01*
X122959761Y-124858976D01*
X123007380Y-124763738D01*
X123007380Y-124573261D01*
X122959761Y-124478023D01*
X122864523Y-124382785D01*
X122674047Y-124335166D01*
X122340714Y-124335166D01*
X122150238Y-124382785D01*
X122055000Y-124478023D01*
X122007380Y-124573261D01*
X121640000Y-125192309D02*
X121640000Y-126335166D01*
X122007380Y-125335166D02*
X123007380Y-125573261D01*
X122293095Y-125763738D01*
X123007380Y-125954214D01*
X122007380Y-126192309D01*
X78827380Y-124097071D02*
X78827380Y-124287547D01*
X78875000Y-124382785D01*
X78970238Y-124478023D01*
X79160714Y-124525642D01*
X79494047Y-124525642D01*
X79684523Y-124478023D01*
X79779761Y-124382785D01*
X79827380Y-124287547D01*
X79827380Y-124097071D01*
X79779761Y-124001833D01*
X79684523Y-123906595D01*
X79494047Y-123858976D01*
X79160714Y-123858976D01*
X78970238Y-123906595D01*
X78875000Y-124001833D01*
X78827380Y-124097071D01*
X79779761Y-124906595D02*
X79827380Y-125049452D01*
X79827380Y-125287547D01*
X79779761Y-125382785D01*
X79732142Y-125430404D01*
X79636904Y-125478023D01*
X79541666Y-125478023D01*
X79446428Y-125430404D01*
X79398809Y-125382785D01*
X79351190Y-125287547D01*
X79303571Y-125097071D01*
X79255952Y-125001833D01*
X79208333Y-124954214D01*
X79113095Y-124906595D01*
X79017857Y-124906595D01*
X78922619Y-124954214D01*
X78875000Y-125001833D01*
X78827380Y-125097071D01*
X78827380Y-125335166D01*
X78875000Y-125478023D01*
X79732142Y-126478023D02*
X79779761Y-126430404D01*
X79827380Y-126287547D01*
X79827380Y-126192309D01*
X79779761Y-126049452D01*
X79684523Y-125954214D01*
X79589285Y-125906595D01*
X79398809Y-125858976D01*
X79255952Y-125858976D01*
X79065476Y-125906595D01*
X78970238Y-125954214D01*
X78875000Y-126049452D01*
X78827380Y-126192309D01*
X78827380Y-126287547D01*
X78875000Y-126430404D01*
X78922619Y-126478023D01*
X84621666Y-123858976D02*
X84621666Y-124335166D01*
X84907380Y-123763738D02*
X83907380Y-124097071D01*
X84907380Y-124430404D01*
X84907380Y-125239928D02*
X84907380Y-124763738D01*
X83907380Y-124763738D01*
X84383571Y-125573261D02*
X84383571Y-125906595D01*
X84907380Y-126049452D02*
X84907380Y-125573261D01*
X83907380Y-125573261D01*
X83907380Y-126049452D01*
X86574380Y-123763738D02*
X86574380Y-124335166D01*
X87574380Y-124049452D02*
X86574380Y-124049452D01*
X87479142Y-125239928D02*
X87526761Y-125192309D01*
X87574380Y-125049452D01*
X87574380Y-124954214D01*
X87526761Y-124811357D01*
X87431523Y-124716119D01*
X87336285Y-124668500D01*
X87145809Y-124620880D01*
X87002952Y-124620880D01*
X86812476Y-124668500D01*
X86717238Y-124716119D01*
X86622000Y-124811357D01*
X86574380Y-124954214D01*
X86574380Y-125049452D01*
X86622000Y-125192309D01*
X86669619Y-125239928D01*
X76335000Y-124430404D02*
X76287380Y-124335166D01*
X76287380Y-124192309D01*
X76335000Y-124049452D01*
X76430238Y-123954214D01*
X76525476Y-123906595D01*
X76715952Y-123858976D01*
X76858809Y-123858976D01*
X77049285Y-123906595D01*
X77144523Y-123954214D01*
X77239761Y-124049452D01*
X77287380Y-124192309D01*
X77287380Y-124287547D01*
X77239761Y-124430404D01*
X77192142Y-124478023D01*
X76858809Y-124478023D01*
X76858809Y-124287547D01*
X77287380Y-124906595D02*
X76287380Y-124906595D01*
X77287380Y-125478023D01*
X76287380Y-125478023D01*
X77287380Y-125954214D02*
X76287380Y-125954214D01*
X76287380Y-126192309D01*
X76335000Y-126335166D01*
X76430238Y-126430404D01*
X76525476Y-126478023D01*
X76715952Y-126525642D01*
X76858809Y-126525642D01*
X77049285Y-126478023D01*
X77144523Y-126430404D01*
X77239761Y-126335166D01*
X77287380Y-126192309D01*
X77287380Y-125954214D01*
X129675000Y-124430404D02*
X129627380Y-124335166D01*
X129627380Y-124192309D01*
X129675000Y-124049452D01*
X129770238Y-123954214D01*
X129865476Y-123906595D01*
X130055952Y-123858976D01*
X130198809Y-123858976D01*
X130389285Y-123906595D01*
X130484523Y-123954214D01*
X130579761Y-124049452D01*
X130627380Y-124192309D01*
X130627380Y-124287547D01*
X130579761Y-124430404D01*
X130532142Y-124478023D01*
X130198809Y-124478023D01*
X130198809Y-124287547D01*
X130627380Y-124906595D02*
X129627380Y-124906595D01*
X130627380Y-125478023D01*
X129627380Y-125478023D01*
X130627380Y-125954214D02*
X129627380Y-125954214D01*
X129627380Y-126192309D01*
X129675000Y-126335166D01*
X129770238Y-126430404D01*
X129865476Y-126478023D01*
X130055952Y-126525642D01*
X130198809Y-126525642D01*
X130389285Y-126478023D01*
X130484523Y-126430404D01*
X130579761Y-126335166D01*
X130627380Y-126192309D01*
X130627380Y-125954214D01*
M02*
